<svg xmlns="http://www.w3.org/2000/svg" viewBox="0 0 576 611.3"><title>icon-add-to-basket</title><path fill="#10A2DC" d="M564,323.3H491.1L362.29,171.76a24,24,0,0,0-36.58,31.09L428.1,323.3H147.9L250.29,202.84a24,24,0,0,0-36.58-31.08L84.9,323.3H12a12,12,0,0,0-12,12v24a12,12,0,0,0,12,12H30.67L58.25,569.9a48,48,0,0,0,47.54,41.4H470.21a48,48,0,0,0,47.54-41.4l27.58-198.6H564a12,12,0,0,0,12-12v-24A12,12,0,0,0,564,323.3Zm-93.79,240H105.79l-26.66-192H496.87ZM312,427.3v80a24,24,0,0,1-48,0v-80a24,24,0,1,1,48,0Zm112,0v80a24,24,0,0,1-48,0v-80a24,24,0,1,1,48,0Zm-224,0v80a24,24,0,0,1-48,0v-80a24,24,0,1,1,48,0Z"/><path fill="#10A2DC" d="M288,6.91V117.52a6.91,6.91,0,0,0,6.91,6.92H405.52a6.92,6.92,0,0,0,6.92-6.92v-16a6.92,6.92,0,0,0-7.08-6.91l-72.81,1.73A112.95,112.95,0,0,1,545.85,119a6.94,6.94,0,0,0,6.76,5.49h16.47a6.91,6.91,0,0,0,6.8-8.17,142.89,142.89,0,0,0-259.44-52.4l1.35-56.79A6.92,6.92,0,0,0,310.88,0h-16A6.91,6.91,0,0,0,288,6.91Z"/></svg>