<svg xmlns="http://www.w3.org/2000/svg" xmlns:xlink="http://www.w3.org/1999/xlink" viewBox="0 0 481.93 356.91"><defs><style>.a{fill:none;}.b{isolation:isolate;}.c{fill:#10a2dc;}.d{fill:#fff;}.e{fill:#535352;}.f{fill:#dcdcdc;}.g{fill:#999;}.h{fill:#274686;}.i{fill:url(#a);}.j{fill:url(#b);}.k{clip-path:url(#c);}.l{fill:url(#d);}.m,.n{mix-blend-mode:screen;}.m{fill:url(#e);}.n{fill:url(#f);}.o,.p{opacity:0.21;}.o,.p,.q{mix-blend-mode:multiply;}.o{fill:url(#g);}.p{fill:url(#h);}.q{opacity:0.2;fill:url(#i);}.r{opacity:0.65;fill:url(#j);}.r,.s,.t{mix-blend-mode:overlay;}.s{opacity:0.19;fill:url(#k);}.t{opacity:0.22;fill:url(#l);}.u{fill:#7e8083;}</style><linearGradient id="a" x1="332.98" y1="379.7" x2="332.98" y2="277.92" gradientUnits="userSpaceOnUse"><stop offset="0" stop-color="#8e9ba3"/><stop offset="0.4" stop-color="#8e8e8e"/><stop offset="0.54" stop-color="#636363"/><stop offset="0.63" stop-color="#5f5f5f"/><stop offset="0.72" stop-color="#eaeaea"/><stop offset="0.79" stop-color="#fff"/></linearGradient><linearGradient id="b" x1="385.43" y1="379.7" x2="385.43" y2="277.92" xlink:href="#a"/><clipPath id="c"><path class="a" d="M447.31,309.35a14.94,14.94,0,0,0-6,1.18,40.08,40.08,0,0,0,4-5.7c1.56-2.85,4.42-8.36,4.42-8.36H436L427.45,313c-2.67,5.27-4.7,8.88-4.87,13.93-.39,11,8.79,18.52,20,18.52s20.73-7.13,21.14-18.79C464.09,315.94,456.84,309.35,447.31,309.35Zm-4.45,25.46a7.65,7.65,0,0,1-8-8.19,8.31,8.31,0,0,1,8.57-8.19,7.65,7.65,0,0,1,8,8.19A8.31,8.31,0,0,1,442.86,334.81Z"/></clipPath><radialGradient id="d" cx="414.84" cy="320.92" r="53.84" gradientUnits="userSpaceOnUse"><stop offset="0.32" stop-color="#95d7e9"/><stop offset="0.35" stop-color="#8bd3e8"/><stop offset="0.4" stop-color="#71c8e5"/><stop offset="0.47" stop-color="#46b7e1"/><stop offset="0.53" stop-color="#10a1dc"/><stop offset="0.79" stop-color="#053e80"/><stop offset="1" stop-color="#000029"/></radialGradient><radialGradient id="e" cx="385.34" cy="315.51" r="31.39" xlink:href="#d"/><radialGradient id="f" cx="470.67" cy="312.53" r="21.08" xlink:href="#d"/><radialGradient id="g" cx="420.16" cy="320.22" r="48.05" xlink:href="#d"/><radialGradient id="h" cx="423.94" cy="320.92" r="36.7" xlink:href="#d"/><radialGradient id="i" cx="414.84" cy="334.58" r="48.45" xlink:href="#d"/><radialGradient id="j" cx="442.13" cy="320.92" r="28.84" xlink:href="#d"/><radialGradient id="k" cx="424.44" cy="333.42" r="30.92" xlink:href="#d"/><radialGradient id="l" cx="404.54" cy="324.84" r="46.12" xlink:href="#d"/></defs><title>Shirtastic-Vertical</title><g class="b"><circle class="c" cx="222.63" cy="106.83" r="106.83"/><path class="d" d="M243.66,55.07l.68-3,3.28-.16A24.08,24.08,0,0,1,263.94,57c4.17,3.17,8.57,6,12.86,9q9.38,6.56,18.73,13.14c.53.38,1,.85,1.71,1.47-7,10.3-14.15,20.32-21.23,30.64-4-2.3-7.49-5.15-11.33-7.58a3.72,3.72,0,0,0-.49,2.69v68c0,.95-.09,1.9-.14,2.78-2.06.57-80.86.6-83.06,0-.36-4-.12-8.11-.17-12.2s0-8.08,0-12.12v-49.4c-4.27,2.46-7.65,5.44-11.45,7.59-1.35-1-20.53-28.51-21.34-30.64a9.94,9.94,0,0,1,1.21-1.13q14.64-10.2,29.29-20.37c1.47-1,2.91-2.1,4.37-3.14a20.66,20.66,0,0,1,12-3.86c1.92,0,3.84,0,5.74.07.28,1.21.49,2.14.7,3.06l.49,1.77a2.29,2.29,0,0,0,.07.36,28.16,28.16,0,0,0,1.5,4.19,21.73,21.73,0,0,0,9.81,9.5,21.47,21.47,0,0,0,26.51-6.5,13.82,13.82,0,0,0,3.37-7.22l.09-.35Z"/><path class="e" d="M243.66,55.07l-.51,1.75H201.8l-.48-1.76.38-1.35h18.62c.14-.84.28-1.4.32-2,.05-.74,0-1.49,0-2.24,0-5.44,2.7-8.18,8.22-8.47a10.55,10.55,0,0,0,2.42-.4A3.64,3.64,0,0,0,234.11,37c.07-3,.11-6,0-9a3.93,3.93,0,0,0-3.88-4h-.13c-3.36-.09-6.74-.08-10.09,0a3.8,3.8,0,0,0-4,3.29,23.17,23.17,0,0,0-.26,3.12,5.79,5.79,0,0,1-.18,2,2.1,2.1,0,0,1-1.38,1.19c-.49,0-1.42-.63-1.46-1-.28-2.86-.9-5.83.82-8.49a7.8,7.8,0,0,1,7-3.64c3,0,5.84,0,8.75,0,5.07.08,8.26,3.27,8.34,8.3,0,2.54,0,5.08,0,7.63A7.61,7.61,0,0,1,230,44.31a9.08,9.08,0,0,0-1.8.12c-2.87.47-4,1.8-4,4.68,0,1.4.06,2.79.09,4.49,6.46.2,12.63,0,18.86.13Z"/><path class="f" d="M243.07,57.17a13.79,13.79,0,0,1-3.37,7.21,21.46,21.46,0,0,1-26.51,6.51,21.8,21.8,0,0,1-9.81-9.51,27.38,27.38,0,0,1-1.5-4.19c1.17.13,2.5,0,3.49.45a35.18,35.18,0,0,0,12.87,3.42c6.86.6,13.55.07,19.89-2.82A9.83,9.83,0,0,1,243.07,57.17Z"/><path class="g" d="M243.07,57.17a9.86,9.86,0,0,0-4.94,1.07c-6.34,2.89-13,3.41-19.88,2.82a35.53,35.53,0,0,1-12.87-3.42c-1-.49-2.32-.32-3.5-.45,0-.12,0-.24-.07-.36h41.35A2.14,2.14,0,0,1,243.07,57.17Z"/><path class="h" d="M0,292.21l10.24-7.68c2.56,3.18,5.74,5.74,11,5.74,4.19,0,6.67-1.24,6.67-4.19,0-2.25-1.71-3.33-5.2-4.5l-6.2-2.09c-7.68-2.56-13.11-7.21-13.11-15.9,0-10.39,8.61-15.74,18-15.74s14.89,3.33,18,7l-8.07,8.45a11.94,11.94,0,0,0-9.15-3.8c-3.41,0-5.12,1.55-5.12,3.65s1.16,3,3.72,3.87l7,2.33c10.55,3.49,14.12,8.53,14.12,16,0,9.69-6.05,16.67-20,16.67C10,302,3.26,296.55,0,292.21Z"/><path class="h" d="M80.74,248.47H94.85V301.2H80.74V280.58H62.44V301.2H48.32V248.47H62.44v20.24h18.3Z"/><path class="h" d="M104.32,248.47h14.12V301.2H104.32Z"/><path class="h" d="M142,301.2H127.9V248.47h21.33c13.42,0,20.86,7.91,20.86,18.69,0,7-3.33,12.49-9.61,15.35l10.93,18.69H156.13l-9.3-16.51H142Zm6.51-27.29c4.81,0,7.37-2.41,7.37-6.75s-2.56-6.75-7.37-6.75H142v13.5Z"/><path class="h" d="M188.09,260.33h-14V248.47h42v11.86H202.21V301.2H188.09Z"/><path class="h" d="M245.33,294.85H227l-2.64,6.35h-13.8l25.67-53.66c.23-.54.7-.54.93,0L262.7,301.2H248.12Zm-14-10.24h9.54L236,273.44Z"/><path class="h" d="M263.33,292.21l10.24-7.68c2.56,3.18,5.74,5.74,11,5.74,4.19,0,6.67-1.24,6.67-4.19,0-2.25-1.7-3.33-5.19-4.5l-6.21-2.09c-7.68-2.56-13.1-7.21-13.1-15.9,0-10.39,8.61-15.74,18-15.74s14.89,3.33,18,7l-8.07,8.45a11.94,11.94,0,0,0-9.15-3.8c-3.41,0-5.12,1.55-5.12,3.65s1.17,3,3.73,3.87l7,2.33c10.54,3.49,14.11,8.53,14.11,16,0,9.69-6,16.67-20,16.67C273.34,302,266.59,296.55,263.33,292.21Z"/><path class="h" d="M320.88,260.33h-14V248.47h42v11.86H335V301.2H320.88Z"/><path class="h" d="M355.64,248.47h14.11V301.2H355.64Z"/><path class="h" d="M404.11,301.9c-14.81,0-27.45-11.16-27.45-27.06a26.59,26.59,0,0,1,26.67-27c11.4,0,18.38,4.81,22.8,11.32l-10.62,7.21c-2-3.1-5.27-6.28-11.94-6.28-7.76,0-12.49,6.44-12.49,14.74S396,289.65,404,289.65c6.83,0,10.16-3.1,12.41-7.29l10.86,7C422.1,298.1,414.81,301.9,404.11,301.9Z"/><path class="i" d="M337.23,313H316.8v23.86h20.43c8.67,0,11.93-4,11.93-11.93S345.94,313,337.23,313Zm0,20.09h-16.4V316.69h16.4c6.4,0,7.79,2.86,7.79,8.2S343.63,333.05,337.23,333.05Z"/><path class="j" d="M414.55,313l-9.63,18.52a3.3,3.3,0,0,1-3.26,2,3.27,3.27,0,0,1-3.22-2L388.78,313h-25c-8.71,0-11.93,4-11.93,11.93s3.22,11.93,11.93,11.93H382.2l1.34-3.7H363.81c-5.56,0-7.54-2.2-7.83-6.49h25.71l1.34-3.45H356c.29-4.33,2.27-6.56,7.83-6.56h22.43l8.18,15.87c1.46,2.86,3.36,4.68,7.24,4.68s5.82-1.85,7.29-4.68L419,313Z"/><g class="k"><polygon class="l" points="380.49 350.62 372.26 347.58 347.75 339.1 358.38 291.91 422.94 292.77 459.41 284.93 481.93 320.64 466.15 340.12 461.33 356.91 386.55 348.53 380.49 350.62"/><polygon class="m" points="358.38 291.91 347.75 339.1 422.94 292.77 358.38 291.91"/><polygon class="n" points="459.41 284.93 466.15 340.12 481.93 320.64 459.41 284.93"/><polygon class="o" points="481.93 320.64 386.55 348.53 358.38 291.91 481.93 320.64"/><polygon class="p" points="459.41 284.93 386.55 348.53 461.33 356.91 459.41 284.93"/><polygon class="q" points="347.75 339.1 386.55 348.53 481.93 320.64 347.75 339.1"/><polygon class="r" points="461.33 356.91 422.94 292.77 459.41 284.93 461.33 356.91"/><polygon class="s" points="396.86 349.84 387.56 309.93 461.33 356.91 396.86 349.84"/><polygon class="t" points="422.94 292.77 347.75 339.1 461.33 356.91 422.94 292.77"/></g><path class="u" d="M295.31,318.54a2.15,2.15,0,0,1,1.81,2.17c0,1.31-.94,2.38-3.29,2.38H286V314.2h7.7c2.82,0,3.21,1.45,3.21,2.33A2,2,0,0,1,295.31,318.54Zm-1.44-.62c1.05,0,1.63-.43,1.63-1.21s-.53-1.24-1.63-1.24h-6.52v2.45Zm-6.52,1.25v2.65H294c1.41,0,1.71-.69,1.71-1.26s-.43-1.39-1.71-1.39Z"/><path class="u" d="M299.61,314.2l2.95,3.35a6.61,6.61,0,0,1,1,1.33,6,6,0,0,1,1-1.33l2.95-3.35h2.08l-4.23,4.51c-.35.38-1.09,1.12-1.09,1.74v2.64h-1.43v-2.64c0-.61-.74-1.38-1.09-1.74l-4.23-4.51Z"/></g></svg>