<svg xmlns="http://www.w3.org/2000/svg" viewBox="0 0 332.34 350.11"><defs><style>.a{fill:#fefefe;}.b{fill:#525252;}.c{fill:#ddd;}.d{fill:#9a9a9a;}</style></defs><title>ShirtIcon</title><path class="a" d="M213,77.17c.46-2.06.93-4.13,1.5-6.68,2.42-.12,4.87-.22,7.31-.35a53.65,53.65,0,0,1,36.36,11.35c9.27,7.05,19.09,13.37,28.64,20.05q20.88,14.61,41.72,29.28c1.18.83,2.21,1.88,3.8,3.26-15.63,22.94-31.51,45.27-47.28,68.24-9-5.12-16.69-11.46-25.25-16.87-1.59,2.08-1.07,4.12-1.07,6,0,19,0,38,0,57q0,47.25,0,94.49c0,2.12-.22,4.24-.32,6.19-4.58,1.28-180.1,1.34-185,.07-.81-8.95-.27-18.07-.37-27.17s0-18,0-27V185C63.52,190.49,56,197.11,47.53,201.9c-3-2.24-45.72-63.49-47.53-68.23a23.4,23.4,0,0,1,2.69-2.53Q35.3,108.43,67.93,85.78c3.28-2.28,6.48-4.68,9.73-7a46,46,0,0,1,26.68-8.6c4.28-.07,8.55.1,12.8.16.62,2.69,1.09,4.76,1.56,6.83l1.08,3.92a4.47,4.47,0,0,0,.16.81c1.09,3.13,1.78,6.47,3.35,9.33a48.45,48.45,0,0,0,21.83,21.17,47.34,47.34,0,0,0,30.16,3.78c12.05-2.33,21.49-8.88,28.9-18.27,3.67-4.64,6.92-9.82,7.5-16.07a7.38,7.38,0,0,0,.19-.78Z"/><path class="b" d="M213,77.17l-1.14,3.88c-8.3,0-16.59,0-24.89,0h-67.2l-1.08-3.92.84-3H161c.32-1.87.64-3.12.73-4.38.11-1.66,0-3.33,0-5,.08-12.11,6-18.22,18.29-18.86a23.35,23.35,0,0,0,5.39-.89c3.92-1.18,6.22-3.94,6.32-8,.16-6.65.24-13.32,0-20a8.78,8.78,0,0,0-8.94-8.91c-7.49-.21-15-.18-22.48,0-4.84.11-7.77,2.62-8.8,7.32a50,50,0,0,0-.59,6.95c-.11,1.49.19,3.16-.4,4.42s-2,2.58-3.08,2.64-3.15-1.39-3.24-2.32c-.62-6.39-2-13,1.83-18.93,3.63-5.72,9.08-8.07,15.67-8.1s13-.09,19.49,0c11.29.19,18.39,7.28,18.57,18.49.08,5.66,0,11.32,0,17,.1,9.64-7.31,18-17.1,17.64a19.68,19.68,0,0,0-4,.26c-6.4,1.05-8.92,4-9,10.43,0,3.11.12,6.21.2,10,14.37.44,28.13,0,42,.29Z"/><path class="c" d="M211.68,81.83c-.58,6.25-3.83,11.43-7.5,16.07-7.41,9.39-16.85,15.94-28.9,18.27a47.34,47.34,0,0,1-30.16-3.78,48.45,48.45,0,0,1-21.83-21.17c-1.57-2.86-2.26-6.2-3.35-9.33,2.61.29,5.57-.1,7.78,1a78.83,78.83,0,0,0,28.66,7.62c15.28,1.32,30.17.15,44.29-6.29A22.18,22.18,0,0,1,211.68,81.83Z"/><path class="d" d="M211.68,81.83a22.18,22.18,0,0,0-11,2.38c-14.12,6.44-29,7.61-44.29,6.29a78.83,78.83,0,0,1-28.66-7.62c-2.21-1.09-5.17-.7-7.78-1a4.47,4.47,0,0,1-.16-.81H187c8.3,0,16.59,0,24.89,0A7.38,7.38,0,0,1,211.68,81.83Z"/></svg>