<svg xmlns="http://www.w3.org/2000/svg" viewBox="0 0 122.88 116.44"><title>graphic9</title><path d="M54,73.51c-1.82,5.18-3.63,10.35-5.59,16-1.71-3.67-3.32-7-4.77-10.41-.25-.59.16-1.85.33-3.36-2,2.77-4.08,1.55-6.08,1.06-3.78-.93-7.56-1.92-11.34-2.8-1-.23-1.59-.93-2.05-2.3-1.75-5.21-3.55-10.38-5.51-16.09L33.59,60l.06-.39-9.08-4.09c-1.94-.88-3.9-1.72-5.82-2.68a2.56,2.56,0,0,1-1.22-1.32c-2.36-6.72-4.66-13.5-7-20.26-.11-.31-.17-.66-.4-1.56l17.9,10.41.13-.41c-1.6-1.21-3.2-2.4-4.79-3.62C18.76,32.54,14.12,29,9.5,25.41a4.46,4.46,0,0,1-1.35-1.87C5.54,16.37,3,9.16.4,2,.3,1.65.24,1.29,0,.3,17.42,14.7,34.51,28.82,51.74,43.08c.69-2.63,1.32-5.06,1.95-7.49a32.31,32.31,0,0,0,1-4.13c.67-6,3.68-8,6.75-10,2.15-1.34,4.29-2.47,6.71-1.07.74.43,1.81-.72,2.72-.68a3.9,3.9,0,0,1,2.61,1.13c.75.78.74,2.87.3,4.43-2-.5-4.83,1.8-5.84,4.9a3.63,3.63,0,0,0,0,1.67c.78,3.3,1.63,6.57,2.41,9.87.28,1.18.64,1.2,1.29.65q16-13.33,32-26.63,9-7.49,18-15A12.75,12.75,0,0,1,122.88,0c-.63,2-1.07,3.55-1.57,5-2,5.75-4,11.43-5.88,17.25-.81,2.54-2.27,3.35-3.67,4.44-5,3.91-10,7.76-14.89,12.1l15.95-9.36c-1,2.95-1.75,5.37-2.57,7.75-1.56,4.52-3.23,9-4.69,13.57a3.39,3.39,0,0,1-2.16,2.46c-4.3,1.88-8.61,3.71-12.91,5.59a12.89,12.89,0,0,0-1.75,1.3l15.11-4.57c-1.18,3.45-2.18,6.41-3.19,9.36-.74,2.19-1.42,4.44-2.26,6.53-.39,1-1.05,2.16-1.69,2.34-4.74,1.32-9.5,2.52-14.28,3.52-1.08.23-2.23-.44-3.28-.67.63,1.3,0,2.61-.61,4-1.37,2.79-2.68,5.65-4.15,8.78L68.87,73.51l-.29.18q1,5.09,2,10.17c.73,3.65,1.54,7.26,2.15,11a6.27,6.27,0,0,1-.43,3.35C69,104,65.56,109.76,62.21,115.59c-.71,1.24-1.16,1-1.79-.07-3.34-6-6.73-11.84-10-17.83a4.71,4.71,0,0,1-.28-2.53C51.37,88.39,52.72,81.65,54,74.9a10.37,10.37,0,0,0,.1-1.27Z"/></svg>