<svg xmlns="http://www.w3.org/2000/svg" viewBox="0 0 125 109.5"><title>graphic1</title><path d="M79.23,68.52a3,3,0,0,1-1.11-.87A11.21,11.21,0,0,1,76,64.81a9.49,9.49,0,0,1-.87-2.55,8.33,8.33,0,0,1,.06-3.07,6.21,6.21,0,0,1,3.31-4.75,17.33,17.33,0,0,1,2.26-.81,4.65,4.65,0,0,1,1-.24,4.61,4.61,0,0,1,2.69.58,22.06,22.06,0,0,1,3.38,2.21l.33.2a2.91,2.91,0,0,0,0-.53,13.94,13.94,0,0,1-.19-3.7,15.86,15.86,0,0,1,.54-3.2,14.63,14.63,0,0,1,4.29-6.55c.43-.41.85-.84,1.27-1.27.27-.27.39-.28.57,0,.37.72.75,1.43,1,2.18a15.06,15.06,0,0,1,.62,2.11,12.93,12.93,0,0,1,.33,2.22,30.69,30.69,0,0,1-.06,3.59,25.08,25.08,0,0,1-.81,4.63c-.11.4-.18.8-.28,1.25a2,2,0,0,0,.27-.07,11.74,11.74,0,0,1,5-1,7.66,7.66,0,0,1,6.76,4.23,8.14,8.14,0,0,1,.88,2.46,8.94,8.94,0,0,1,.14,3.14,12.39,12.39,0,0,1-.48,2.19,9.58,9.58,0,0,1-3.49,4.72c-.33.24-.67.45-1,.66a.89.89,0,0,1-.34.08.85.85,0,0,1-.07-.38,10.38,10.38,0,0,0,.16-3.24,6.38,6.38,0,0,0-1.18-3.38,4.43,4.43,0,0,0-2.79-1.68,6.63,6.63,0,0,0-2.77,0,3.71,3.71,0,0,0-2.75,2.32,7.24,7.24,0,0,0-.28,4.62,10.71,10.71,0,0,0,2.42,4.65,9.26,9.26,0,0,0,4.57,2.84,12.15,12.15,0,0,0,5.33.23,20.41,20.41,0,0,0,2.69-.57,10.74,10.74,0,0,0,3.33-1.75,11.64,11.64,0,0,0,3.27-3.91c.4-.77.76-1.57,1.1-2.37a10.84,10.84,0,0,0,.48-1.46c.17-.59.31-1.18.44-1.78.1-.4-.1-.59-.49-.45-.8.29-1.59.59-2.36.94a21.3,21.3,0,0,0-4.34,3.07,3.26,3.26,0,0,1-.4.24l-.09-.06.06-.6c.11-1,.19-1.93.34-2.9s.41-2.18.63-3.27c.17-.85.35-1.71.55-2.56.15-.59.31-1.18.51-1.76q.42-1.24.9-2.46a3.45,3.45,0,0,1,.38-.74c.19-.29.27-.3.53-.08.48.42,1,.84,1.41,1.3a10.72,10.72,0,0,0,2.75,2.27c.62.3,1.28.54,1.92.8,0,0,.13,0,.28,0-.14-.3-.25-.56-.38-.81-1-1.92-2-3.85-3.08-5.77-.39-.72-.86-1.39-1.29-2.09a1.56,1.56,0,0,1-.1-.37.84.84,0,0,1,.35-.07c1,.13,2.06.26,3.09.41.58.09,1.15.21,1.72.33.4.09.81.19,1.21.3l3.51.9c.24.06.33.18.28.41-.09.45-.17.9-.29,1.34-.28,1-.57,2-.87,3-.24.81-.51,1.62-.78,2.42a2.34,2.34,0,0,1-.26.61.83.83,0,0,0,0,.86,6.85,6.85,0,0,1,.77,2.62,4.61,4.61,0,0,1-.69,2.9,9.13,9.13,0,0,1-1.78,2A4.16,4.16,0,0,0,120,72.33c-.44,1.24-.88,2.48-1.27,3.73-.33,1-.64,2.1-.88,3.17s-.39,2.19-.58,3.28A16.6,16.6,0,0,0,117.1,87a5.7,5.7,0,0,0,.51,1.8,5.14,5.14,0,0,1,.4,3.53,3.76,3.76,0,0,1-1.47,2.22,29.19,29.19,0,0,0-5.49,5.1c-.18.21-.37.41-.57.61-.55.57-.83.51-1.46.23-1-.45-1.94-1-2.94-1.47s-1.87-.76-2.82-1.11-1.7-.62-2.56-.87-2-.55-3-.8c-.77-.2-1.53-.39-2.31-.56s-1.3-.28-2-.4c-1-.2-2-.39-3-.56s-1.76-.28-2.64-.41c-1-.15-2.06-.31-3.09-.44-1.42-.18-2.84-.38-4.27-.49-2.77-.21-5.56-.34-8.33-.57-2.11-.18-4.23-.16-6.34-.19-2,0-3.9,0-5.85,0s-4.18.06-6.26.16c-2.25.1-4.5.25-6.75.42-1.72.13-3.44.31-5.15.51-1.43.16-2.86.4-4.29.61-1.22.18-2.45.34-3.67.56-1.4.25-2.8.55-4.2.85-.86.18-1.71.36-2.56.59-1,.26-2,.56-3,.88-1.21.38-2.44.75-3.62,1.24s-2.56,1.19-3.84,1.78c-.33.16-.66.3-1,.43a.78.78,0,0,1-.88-.2,6.78,6.78,0,0,1-.69-.73A30.92,30.92,0,0,0,9.7,95.41c-.38-.3-.77-.58-1.16-.88a4.13,4.13,0,0,1-1.65-3.67,6.2,6.2,0,0,1,.62-2.32A4.72,4.72,0,0,0,8,86.73c0-1.18,0-2.37,0-3.55a17,17,0,0,0-.41-2.54c-.28-1.3-.59-2.6-.94-3.89-.3-1.08-.65-2.15-1-3.21a20,20,0,0,0-.8-1.92,3.52,3.52,0,0,0-.63-.82,12.88,12.88,0,0,1-2-2.25,4.73,4.73,0,0,1-.51-4c.18-.61.46-1.19.66-1.79a.81.81,0,0,0,0-.51c-.35-1.07-.76-2.11-1.09-3.19s-.64-2.4-1-3.61C.16,55.25.07,55,0,54.77s0-.36.27-.42c1.19-.3,2.39-.64,3.59-.92.89-.22,1.78-.4,2.69-.57s1.8-.3,2.71-.43a4.21,4.21,0,0,1,.62,0c.33,0,.41.13.23.41-.3.5-.64,1-.93,1.49C8.47,55.6,7.74,56.91,7,58.23c-.55,1-1.08,2-1.61,3.06a1.1,1.1,0,0,0-.06.28c.39-.13.73-.23,1.06-.35a9.86,9.86,0,0,0,3.82-2.75,15.12,15.12,0,0,1,1.44-1.33c.27-.23.44-.22.59.09A17.71,17.71,0,0,1,13.06,59c.33.94.62,1.9.88,2.86.22.79.38,1.6.55,2.4.1.46.2.92.28,1.38.22,1.17.43,2.33.62,3.49.11.7.17,1.41.25,2.11,0,.23-.09.32-.3.21a1.54,1.54,0,0,1-.3-.22,21.86,21.86,0,0,0-3.8-2.77A28.29,28.29,0,0,0,8.4,67.3c-.36-.15-.52,0-.46.44a15.77,15.77,0,0,0,.74,2.69,16.32,16.32,0,0,0,1.93,4,11.43,11.43,0,0,0,3.89,3.65,11.87,11.87,0,0,0,3.94,1.38,15.66,15.66,0,0,0,4.16.23,9.74,9.74,0,0,0,7-3.75,11.13,11.13,0,0,0,1.66-3.07,8.2,8.2,0,0,0,.55-2.8,5.38,5.38,0,0,0-1.69-4.44,4.15,4.15,0,0,0-2.48-.87,5.66,5.66,0,0,0-3.73.91,4.7,4.7,0,0,0-1.74,2.48A10,10,0,0,0,21.9,73a2.25,2.25,0,0,1,0,.63,3.66,3.66,0,0,1-.55-.21,9.86,9.86,0,0,1-4.84-8.53A9.45,9.45,0,0,1,17,61.68a8.47,8.47,0,0,1,2.3-3.57,7.45,7.45,0,0,1,4.22-1.91,10.48,10.48,0,0,1,4.52.47l1.51.49c-.11-.49-.2-.94-.31-1.4s-.3-1.1-.39-1.66a25.64,25.64,0,0,1-.48-5.6,28.13,28.13,0,0,1,.35-2.89A12.65,12.65,0,0,1,30,41.85c.13-.26.29-.5.44-.76s.23-.23.4-.06a24.14,24.14,0,0,1,4.66,5.47,13.09,13.09,0,0,1,1.36,4,22.79,22.79,0,0,1,.16,4.29c0,.26-.09.52-.12.78s0,.46-.08.69l.08.06L38,55.61a14.67,14.67,0,0,1,3.06-1.85,4,4,0,0,1,3-.18c.5.19,1,.3,1.54.48a5.93,5.93,0,0,1,3.22,2.58A8.32,8.32,0,0,1,50,61.23a8.48,8.48,0,0,1-1.23,4,12.27,12.27,0,0,1-2.5,3,3,3,0,0,1-.49.29c-.05-.46-.08-.81-.14-1.16a8.81,8.81,0,0,0-.9-3,3.27,3.27,0,0,0-1.84-1.55,5.43,5.43,0,0,0-3.75.08,3.61,3.61,0,0,0-2,2.1,7.85,7.85,0,0,0-.46,4,5.64,5.64,0,0,0,1,2.4,10,10,0,0,0,3.94,3.34,13.17,13.17,0,0,0,8.48,1,15.09,15.09,0,0,0,2.21-.74,12.53,12.53,0,0,0,3.93-2.62,12.77,12.77,0,0,0,2.7-3.73A12.53,12.53,0,0,0,60.06,64a.49.49,0,0,0,0-.12c0-.36-.1-.45-.43-.3a16.64,16.64,0,0,0-1.65.79,21.51,21.51,0,0,0-3.33,2.43,2.07,2.07,0,0,1-1.27.45A.3.3,0,0,1,53,67c0-.12,0-.25,0-.37V53.87c0-.64.18-.8.82-.65a1.79,1.79,0,0,1,.78.35c.82.74,1.6,1.51,2.38,2.28A9.51,9.51,0,0,0,59,57.55a2.55,2.55,0,0,0,.55.19l.07-.09c-.09-.34-.15-.69-.27-1-.34-1-.69-2-1.06-2.94s-.73-1.82-1.1-2.73c-.28-.67-.57-1.33-.82-2-.18-.48-.3-1-.45-1.47-.07-.24,0-.35.25-.38l.5,0H68.54c.68,0,.71.06.53.71a28,28,0,0,1-1.41,3.73c-.28.68-.55,1.37-.81,2.05s-.59,1.5-.86,2.25c-.21.6-.36,1.22-.55,1.83a.52.52,0,0,0,.58,0,9.26,9.26,0,0,0,2-1.69c.71-.71,1.41-1.42,2.14-2.11a1.87,1.87,0,0,1,1.34-.59c.48,0,.56.07.56.55q0,6,0,12c0,.37,0,.75,0,1.13s-.1.4-.41.38a2,2,0,0,1-1.26-.46,20,20,0,0,0-3.69-2.63c-.39-.21-.8-.38-1.21-.56a2.6,2.6,0,0,0-.48-.1c0,.45,0,.85.08,1.24.1.61.23,1.22.36,1.83a10.46,10.46,0,0,0,1.35,3.17,13.13,13.13,0,0,0,4.44,4.39,13.62,13.62,0,0,0,3.08,1.34,13.15,13.15,0,0,0,4.95.45,8.69,8.69,0,0,0,1.88-.37,16.72,16.72,0,0,0,2.18-.8,10,10,0,0,0,3.9-3.12,5.74,5.74,0,0,0,1.21-2.75,8.25,8.25,0,0,0-.25-3.39,4,4,0,0,0-2.06-2.56,5.11,5.11,0,0,0-2.44-.42,4.17,4.17,0,0,0-2.07.53,3.77,3.77,0,0,0-1.71,2.33,10.54,10.54,0,0,0-.54,2.9A1.08,1.08,0,0,1,79.23,68.52Zm8.71,11c-.64.09-1.29.17-1.93.28a6.17,6.17,0,0,0-2.88,1.31,3.8,3.8,0,0,0-1,5,7.13,7.13,0,0,0,4.51,3.19,9.48,9.48,0,0,0,3.19.28,7.07,7.07,0,0,0,4.11-1.49,3.83,3.83,0,0,0,1.22-4.69,6.06,6.06,0,0,0-2.89-2.83A9.81,9.81,0,0,0,87.94,79.57Zm-50.84,0,0,.08a9.28,9.28,0,0,0-2.95.46,7.51,7.51,0,0,0-3.44,2.16,3.92,3.92,0,0,0,.4,5.89,6.8,6.8,0,0,0,3.33,1.43,9.34,9.34,0,0,0,5.87-1,5.69,5.69,0,0,0,3-3.35,3.52,3.52,0,0,0-.45-3.06,5.56,5.56,0,0,0-3.42-2.29A19.84,19.84,0,0,0,37.1,79.56Zm25.41-1.93-.35.52c-.86,1.37-1.72,2.75-2.59,4.12a.41.41,0,0,0,0,.49c.92,1.44,1.82,2.89,2.72,4.34a2.18,2.18,0,0,0,.27.28l.1-.19,2.79-4.45a.39.39,0,0,0,0-.49c-.67-1-1.32-2.12-2-3.18C63.15,78.62,62.85,78.17,62.51,77.63ZM12.94,94.36c.18-.78.35-1.5.51-2.21.12-.52.2-1,.36-1.54a.48.48,0,0,0-.18-.6l-1.72-1.39-1.25-1c-.08.27-.16.49-.21.71-.15.59-.28,1.19-.42,1.78-.1.41-.19.81-.29,1.21a.53.53,0,0,0,.22.62c.3.22.59.46.88.7Zm101.44-6.71c-.11.07-.19.1-.25.15l-1,.79L111.41,90a.5.5,0,0,0-.19.6c.23.82.37,1.67.56,2.51.09.38.21.76.31,1.15l.15,0,2.91-2.37a.38.38,0,0,0,.15-.44c-.08-.31-.17-.61-.24-.92-.18-.81-.35-1.63-.54-2.44A2.14,2.14,0,0,0,114.38,87.65ZM101,92.07a1.46,1.46,0,0,0,1.47,1.49,1.5,1.5,0,1,0,0-3A1.46,1.46,0,0,0,101,92.07ZM50.9,80.81a1.49,1.49,0,0,0-1.51-1.5,1.5,1.5,0,1,0,1.51,1.5Zm22.4,6.62a1.46,1.46,0,0,0,1.51,1.49,1.51,1.51,0,0,0,0-3A1.46,1.46,0,0,0,73.3,87.43Zm3.84-6.66a1.52,1.52,0,0,0-3,0,1.53,1.53,0,0,0,1.54,1.5A1.5,1.5,0,0,0,77.14,80.77ZM24.05,92.07a1.45,1.45,0,0,0-1.5-1.51,1.5,1.5,0,1,0,0,3A1.45,1.45,0,0,0,24.05,92.07Zm78.1-6.43a1.47,1.47,0,0,0,1.49,1.51,1.56,1.56,0,0,0,1.51-1.49,1.48,1.48,0,0,0-1.5-1.5A1.43,1.43,0,0,0,102.15,85.64ZM50.26,88.91a1.51,1.51,0,0,0,1.49-1.52,1.53,1.53,0,0,0-1.52-1.49,1.51,1.51,0,0,0-1.47,1.51A1.48,1.48,0,0,0,50.26,88.91ZM21.38,84.17a1.48,1.48,0,1,0,0,3,1.4,1.4,0,0,0,1.51-1.48A1.42,1.42,0,0,0,21.38,84.17Zm-16-17.1A8.67,8.67,0,0,0,5,65.71a5.35,5.35,0,0,0-.72-1.16.55.55,0,0,0-.62-.27.79.79,0,0,0-.44.61.75.75,0,0,0,0,.21,4.48,4.48,0,0,0,.31,2.29,2.63,2.63,0,0,0,.82,1.18c.33.25.53.24.77-.08S5.29,67.67,5.33,67.07Zm116.58-1.55a7.28,7.28,0,0,0-.18-.85.48.48,0,0,0-.84-.23,1.91,1.91,0,0,0-.45.49,4.65,4.65,0,0,0-.72,3,.88.88,0,0,0,.49.81c.37.13.59-.19.79-.43A4.8,4.8,0,0,0,121.91,65.52Zm-59.42-4a1.2,1.2,0,0,0,1.27-1.25A1.22,1.22,0,0,0,62.54,59a1.2,1.2,0,0,0-1.27,1.24A1.17,1.17,0,0,0,62.49,61.51Z"/><path d="M62.48,109.5c-3-.07-5.94-.1-8.9-.21-2.32-.08-4.64-.22-7-.4-2.08-.16-4.15-.42-6.23-.63-1-.1-1.9-.19-2.86-.31s-1.84-.27-2.76-.41c-1.26-.19-2.53-.36-3.79-.58-1-.17-1.93-.38-2.9-.58s-1.79-.37-2.69-.58c-.45-.1-.91-.24-1.36-.37-.65-.18-1.31-.35-2-.56a15.43,15.43,0,0,1-3.64-1.5,3.67,3.67,0,0,1-.65-.53.81.81,0,0,1-.06-1.13,3,3,0,0,1,1.23-1c1-.47,2-.91,3-1.28s2.32-.77,3.49-1.11c.79-.22,1.59-.38,2.39-.57s1.81-.42,2.72-.61c.61-.13,1.23-.22,1.84-.33s1.28-.25,1.93-.35c.82-.14,1.65-.26,2.47-.38s1.76-.27,2.64-.39,1.77-.2,2.65-.3l.67-.07c2.21-.22,4.42-.48,6.64-.64s4.14-.21,6.21-.29,4.34-.14,6.51-.18c1.46,0,2.93,0,4.39,0,1.78,0,3.56.1,5.34.21s3.83.28,5.74.43c1.19.09,2.39.17,3.58.29s2.43.28,3.64.44,2.65.34,4,.54c1.14.18,2.28.39,3.41.6s2.11.36,3.15.59c1.2.26,2.38.55,3.57.85,1,.25,2,.5,3,.83s1.91.73,2.87,1.09a7.84,7.84,0,0,1,2,1.05,3.72,3.72,0,0,1,.46.43.85.85,0,0,1-.07,1.32,4.8,4.8,0,0,1-1,.67,17.4,17.4,0,0,1-3.37,1.3c-1,.28-2,.58-3,.84s-1.73.39-2.6.57l-2.82.55c-.75.14-1.5.27-2.26.39-.93.15-1.86.3-2.8.43-1.9.25-3.8.5-5.71.72-1.33.15-2.66.23-4,.34-1.58.13-3.16.27-4.74.38-.86.06-1.73.09-2.59.12l-8.06.19c-.61,0-1.22,0-1.83,0Z"/><path d="M63.88,10.88v3.61c0,.47,0,.54.47.65a5.83,5.83,0,0,1,1.82.81,6.73,6.73,0,0,1,3,6.83,6.25,6.25,0,0,1-1,2.54A6.65,6.65,0,0,1,65.06,28a6.53,6.53,0,0,1-4,.35,6.78,6.78,0,0,1-4.54-3.37,6.44,6.44,0,0,1-.77-4.35,6.72,6.72,0,0,1,3.89-5.1A9,9,0,0,1,61.22,15c.16-.05.27-.09.27-.29v-4a.78.78,0,0,0-.06-.19l-.47.25L57.1,13a1.68,1.68,0,0,1-1.06.08c-.07,0-.15-.14-.19-.24a.92.92,0,0,1,0-.29V5.71c0-.78.43-1,1.13-.64s1.12.71,1.68,1.08l2.66,1.73a.58.58,0,0,0,.17,0,4.23,4.23,0,0,0-.31-2.27c-.85-1.35-1.64-2.74-2.46-4.11a2.42,2.42,0,0,1-.15-1.3c0-.07.16-.18.26-.22a1.2,1.2,0,0,1,.38,0h7.18c.36,0,.41.1.44.47a2.19,2.19,0,0,1-.35,1.33C65.63,3.16,64.84,4.53,64,5.89a.93.93,0,0,0-.15.47c0,.69,0,1.37,0,2.05a.8.8,0,0,0,0,.2,3.29,3.29,0,0,0,.38-.2c1.28-.83,2.55-1.68,3.84-2.5a1.75,1.75,0,0,1,.74-.24c.34,0,.48.13.5.46V12.9c0,.49-.06.58-.55.54a2.37,2.37,0,0,1-.82-.25c-.89-.49-1.76-1-2.64-1.5l-1-.6A4.51,4.51,0,0,0,63.88,10.88ZM62.54,26.67a5.2,5.2,0,0,0,3.08-1.1c.23-.18.22-.26,0-.43a7.44,7.44,0,0,0-4.1-1.31,8.13,8.13,0,0,0-2.68.38c-.44.13-.47.28-.16.64A5.24,5.24,0,0,0,62.54,26.67Zm-1.1-6.12v-3.8c-.28.09-.5.15-.71.23a5.1,5.1,0,0,0-2.41,1.91.24.24,0,0,0,.07.39A7.21,7.21,0,0,0,61.44,20.55ZM63.92,17c0,.12,0,.26,0,.39v2.71c0,.53,0,.54.55.42l.24-.06a6.65,6.65,0,0,0,2.08-.8c.16-.09.26-.2.14-.4a4.93,4.93,0,0,0-2.12-2.05C64.53,17.1,64.29,16.87,63.92,17Z"/><path d="M57.2,44.9H56.07a.34.34,0,0,1-.39-.29c-.06-.22-.13-.43-.18-.65-.22-1-.41-2-.65-2.92s-.51-2-.81-2.93c-.23-.76-.5-1.5-.8-2.23s-.75-1.71-1.1-2.57a.37.37,0,0,0-.47-.27c-.6.12-1.21.21-1.81.34-.94.2-1.89.42-2.83.66-.74.18-1.47.42-2.2.63s-1.26.34-1.88.54-1.08.37-1.61.57c-1,.35-1.93.7-2.88,1.08-1.11.45-2.22.93-3.32,1.41-.89.4-1.77.8-2.65,1.23-1.17.58-2.33,1.16-3.48,1.78s-2.21,1.23-3.29,1.88a79,79,0,0,0-7,4.76,39.44,39.44,0,0,0-4.06,3.46c-.2.2-.36.21-.56,0-.54-.51-1.09-1-1.63-1.5-.3-.28-.3-.39,0-.68A40.94,40.94,0,0,1,17.34,45a70.4,70.4,0,0,1,6.56-4.36c1.92-1.12,3.85-2.22,5.81-3.26,1.42-.75,2.9-1.39,4.36-2.06,1-.46,2-.91,3-1.32S39,33.3,40,33s1.64-.6,2.47-.86,1.86-.54,2.8-.8c.74-.2,1.47-.4,2.21-.58s1.25-.28,1.88-.4l3-.58c.4-.07.8-.11,1.2-.16s.41.14.5.35c.42,1,.84,2,1.24,3s.79,2,1.14,3,.55,1.84.81,2.76c.19.66.38,1.33.54,2,.23.95.43,1.9.64,2.84.07.3.15.6.21.9s0,.52-.43.52h-1Z"/><path d="M71.37,29.54c.62.1,1.24.18,1.86.3q1.71.33,3.42.69c.81.17,1.61.34,2.4.54s1.31.36,2,.56c.93.28,1.86.56,2.78.87s1.88.66,2.82,1c.73.28,1.47.58,2.19.89s1.68.72,2.52,1.1,1.87.85,2.78,1.31c1.34.67,2.68,1.35,4,2.09q2.51,1.41,4.94,2.93c1.18.74,2.32,1.53,3.46,2.33a48.62,48.62,0,0,1,5.33,4.27c.29.27.56.55.84.82s.21.38,0,.57c-.56.53-1.12,1-1.69,1.56-.26.24-.33.23-.59,0a42.44,42.44,0,0,0-5.95-4.83C102.64,45.3,100.81,44.1,99,43c-1.3-.8-2.65-1.51-4-2.23s-2.41-1.26-3.64-1.84-2.36-1-3.55-1.53c-.89-.37-1.79-.73-2.7-1.09-.53-.2-1.07-.39-1.6-.57-.85-.28-1.69-.56-2.53-.82s-1.44-.42-2.16-.62c-.47-.14-.94-.27-1.41-.38s-1.11-.25-1.66-.37l-1.55-.33L73.29,33a.32.32,0,0,0-.39.23c-.64,1.59-1.31,3.18-1.9,4.79A29.53,29.53,0,0,0,70.19,41c-.26,1.08-.48,2.16-.73,3.25,0,.12-.08.23-.11.35s-.22.32-.46.32H66.67c-.34,0-.42-.1-.35-.43.32-1.45.61-2.91,1-4.35.32-1.25.7-2.48,1.11-3.7.47-1.39,1-2.77,1.52-4.14.3-.77.65-1.53,1-2.29C71,29.78,71.08,29.54,71.37,29.54Z"/><path d="M72,26.08a3.11,3.11,0,1,1,6.21,0,3.15,3.15,0,0,1-3.12,3.1A3.11,3.11,0,0,1,72,26.08Z"/><path d="M46.79,26A3.07,3.07,0,0,1,49.93,23,3.11,3.11,0,0,1,53,26.11a3.16,3.16,0,0,1-3.26,3.08A3.13,3.13,0,0,1,46.79,26Z"/><path d="M41.84,25a2.87,2.87,0,0,1,2.83,2.86,2.87,2.87,0,1,1-5.74-.08A2.92,2.92,0,0,1,41.84,25Z"/><path d="M86.07,28a2.86,2.86,0,1,1-2.63-2.91A2.83,2.83,0,0,1,86.07,28Z"/><path d="M62.49,35a2.62,2.62,0,1,1,2.64-2.56A2.59,2.59,0,0,1,62.49,35Z"/><path d="M31.91,31.07a2.56,2.56,0,1,1,2.54,2.59A2.5,2.5,0,0,1,31.91,31.07Z"/><path d="M90.6,28.55A2.56,2.56,0,1,1,88,31.05,2.49,2.49,0,0,1,90.6,28.55Z"/><path d="M94.67,34.13a2.44,2.44,0,0,1,2.39-2.36,2.38,2.38,0,0,1,2.39,2.35,2.32,2.32,0,0,1-2.4,2.4A2.38,2.38,0,0,1,94.67,34.13Z"/><path d="M28,31.76a2.45,2.45,0,0,1,2.36,2.48,2.38,2.38,0,0,1-2.46,2.28,2.32,2.32,0,0,1-2.32-2.39A2.41,2.41,0,0,1,28,31.76Z"/><path d="M21.32,40.46a2.26,2.26,0,0,1-2.24-2.27,2.21,2.21,0,0,1,2.25-2.26,2.27,2.27,0,0,1,2.27,2.29A2.3,2.3,0,0,1,21.32,40.46Z"/><path d="M103.66,40.46a2.24,2.24,0,0,1-2.24-2.27,2.26,2.26,0,0,1,4.52,0A2.27,2.27,0,0,1,103.66,40.46Z"/><path d="M62.53,36.31a2.28,2.28,0,0,1,2.23,2.22,2.39,2.39,0,0,1-2.22,2.26,2.35,2.35,0,0,1-2.29-2.27A2.23,2.23,0,0,1,62.53,36.31Z"/><path d="M13.45,42.33a2,2,0,0,1,2-2,2,2,0,0,1,0,4A2,2,0,0,1,13.45,42.33Z"/><path d="M111.54,42.37a2,2,0,0,1-2,2,2,2,0,1,1,.06-4A2,2,0,0,1,111.54,42.37Z"/><path d="M62.5,42.09a1.67,1.67,0,0,1,1.67,1.63,1.66,1.66,0,0,1-3.31,0A1.65,1.65,0,0,1,62.5,42.09Z"/><path d="M12.34,46.6a1.66,1.66,0,0,1-3.32,0A1.66,1.66,0,0,1,10.68,45,1.71,1.71,0,0,1,12.34,46.6Z"/><path d="M114.34,45A1.62,1.62,0,0,1,116,46.64a1.57,1.57,0,0,1-1.66,1.63,1.61,1.61,0,0,1-1.66-1.63A1.68,1.68,0,0,1,114.34,45Z"/></svg>