<svg xmlns="http://www.w3.org/2000/svg" viewBox="0 0 116.17 134.33"><title>graphic6</title><path d="M67.44,40.63c-.09-.46-.2-.89-.27-1.33-.14-.84-.23-1.7-.4-2.54a1.27,1.27,0,0,0-.44-.79c-2.61-1.61-5.22-3.22-7.89-4.74a25.45,25.45,0,0,0-3.87-1.75,5.58,5.58,0,0,1-2.9-2.22,10.58,10.58,0,0,0-1.5-1.57,12.27,12.27,0,0,1-1.69-1.6,3.73,3.73,0,0,1-.57-1.85c0-1,.24-1.26,1.22-1.45a23.19,23.19,0,0,1,3.07-.53A2.27,2.27,0,0,1,54.7,22c.19.59.3,1.2.44,1.81a2.78,2.78,0,0,0,2,2.25c2.06.54,4.14,1,6.22,1.47s4,.83,6,1.25c.15,0,.32.11.44.07a2.8,2.8,0,0,1,2.11.39,35.1,35.1,0,0,0,3.35,1.43,11.91,11.91,0,0,0,2.26.17,11,11,0,0,1,4.28,1.56A3.33,3.33,0,0,0,84,33a7.81,7.81,0,0,1,2.26.45c1.11.22,2.23.4,3.34.62a12.32,12.32,0,0,1,5.08,2.82,12.75,12.75,0,0,1,2.34,2.36,7,7,0,0,1,.9,2.17,3,3,0,0,0,1.21,1.78.93.93,0,0,0,1.39-.28c.67-.91,1.35-1.81,2-2.73.36-.49.51-.54,1.12-.31.23-.37.46-.75.7-1.12,1.49-2.35,3.08-2.68,5.54-2.41a7.63,7.63,0,0,1,1.68.41,6.6,6.6,0,0,1,2.7,10.89,4.44,4.44,0,0,0-.6.63,3,3,0,0,0-.25.73c-.09.31-.1.7-.31.91a9,9,0,0,1-1.7,1.37,3.81,3.81,0,0,1-1.37.29c-.3.05-.62,0-.92.12-1.44.42-2.89.85-4.33,1.3-.69.22-1.41.36-1.82,1.11-.12.21-.58.26-.9.33a1.74,1.74,0,0,0-1.52,1.64,15.08,15.08,0,0,1-.91,2.62,16,16,0,0,0-.86,2.23,7.27,7.27,0,0,1-2,3.58,10.9,10.9,0,0,0-2.49,4,17.77,17.77,0,0,1-5.28,7.35c-.61.53-1.21,1.06-1.79,1.61-2.1,2-4.76,2.71-7.48,3.24a7.34,7.34,0,0,1-2.76-.1,2.18,2.18,0,0,1-1.84-2.36c0-1.16,0-2.31,0-3.53a5.83,5.83,0,0,0-3.27,1.5,1,1,0,0,0-.1.89c.76,2,1.57,4,2.37,5.94.12.31.23.63.4,1.06l-3.07,1-2.09-6.67a8.38,8.38,0,0,0-.91,1.32,4.72,4.72,0,0,0-.44,3,2.6,2.6,0,0,1,0,.39,51.17,51.17,0,0,1-.2,6.31,96.6,96.6,0,0,1-2,9.71,19.82,19.82,0,0,0-.17,2.79c0,.64-.15,1.27-.25,1.91a7.86,7.86,0,0,0-.2,1.18c-.06,3.24-.12,6.49-.14,9.74,0,1,.08,2,.11,3a1.14,1.14,0,0,1-.14.7,1.74,1.74,0,0,0-.24,1.64A20.77,20.77,0,0,0,67.09,126a3.31,3.31,0,0,0,1.23,1.26,38.18,38.18,0,0,0,4.5,2c2,.68,4,1.18,6,1.72.48.13,1,.15,1,.8a1.36,1.36,0,0,1-1,1.33,5.84,5.84,0,0,1-1.72-.05,5.2,5.2,0,0,0-2.35.11,7.13,7.13,0,0,1-2.83.19,18.66,18.66,0,0,0-7.14.49,22.07,22.07,0,0,1-4,.47c-1.75,0-2.61-1.08-2.27-2.79a19.69,19.69,0,0,0,.67-6.34,24.18,24.18,0,0,0-.68-3.59c-.34-1.21-.89-1.38-2.1-1.14a7.31,7.31,0,0,1-2.19.06c-1.55-.16-3.08-.42-4.62-.62-.55-.08-.75-.29-.73-.91.1-2.22.09-4.45.19-6.68a23.87,23.87,0,0,1,.41-2.76q.66-4,1.31-8a20.4,20.4,0,0,0,.38-2.78c0-1.31-.17-2.62-.1-3.93.2-3.84.09-7.7,1.11-11.47a11.37,11.37,0,0,0,0-4.31c-.31-2.63-.54-5.27-1-7.88a10.74,10.74,0,0,1-.14-3.62,3.88,3.88,0,0,0-.25-1.55c-.38-1.48-.75-3-1.21-4.42a9,9,0,0,0-.87-1.79c-.4-.72-.87-1.4-1.28-2.11a2.28,2.28,0,0,1-.37-1.9.87.87,0,0,0,0-.53c-.75-2.12-1.52-4.24-3.48-5.63a6.51,6.51,0,0,1-2.23-3.33,23.23,23.23,0,0,1-.7-2.29,5.13,5.13,0,0,0-1.32-2.43c-.84-.86-1.73-1.68-2.55-2.56a17.33,17.33,0,0,1-1.72-2c-.87-1.27-1.65-2.59-2.47-3.89a1,1,0,0,0-.31-.34,17.54,17.54,0,0,1-4.68-4.53,49.11,49.11,0,0,0-5.68-6.21c-1.72-1.64-3.39-3.34-5.1-5A.86.86,0,0,1,16.6,16a1,1,0,0,0-.18-.92c-1.83-1.61-3.56-3.39-6.2-3.68a5.38,5.38,0,0,1-1.45-.62,4,4,0,0,0-1.09-.44c-1.43-.16-2.86-.24-4.28-.37a1.13,1.13,0,0,1-.72-.24,1.12,1.12,0,0,0-1.1-.45A1.4,1.4,0,0,1,.09,8,5.78,5.78,0,0,1,2,2.51C2.55,2,3,1.38,3.54.84A2.27,2.27,0,0,1,7,.73a5.1,5.1,0,0,1,.61.62A7.89,7.89,0,0,0,11.1,4a8.66,8.66,0,0,1,2,1.41c.8.61,1.55,1.27,2.36,1.85,1.56,1.11,3.17,2.15,4.73,3.26a2.53,2.53,0,0,0,2.58.28c.66-.26,1.33-.51,2-.75a8.3,8.3,0,0,0,3-1.79,11.83,11.83,0,0,1,2.82-1.72A1.13,1.13,0,0,1,32,7.19a11.15,11.15,0,0,1,1.16,2.59A29.69,29.69,0,0,0,37.52,19a5.54,5.54,0,0,0,.69.82c1.51,1.45,3.06,2.86,4.51,4.36A7.46,7.46,0,0,1,44.2,26.3a8.78,8.78,0,0,0,2.58,3.4c1.75,1.43,3.57,2.72,5.44,4a13.06,13.06,0,0,1,1.84,1.73c.36.36.65.8,1,1.16.72.71,1.14.68,1.87,0a.76.76,0,0,1,.61-.17,7.86,7.86,0,0,1,4.37,2.4,2.35,2.35,0,0,0,1.23.57,3.15,3.15,0,0,1,2.09,1,.58.58,0,0,0,.38.24C66.19,40.65,66.77,40.63,67.44,40.63Z"/></svg>