<svg xmlns="http://www.w3.org/2000/svg" viewBox="0 0 120 118.41"><title>graphic11</title><path d="M58.13,0h4.59l.5.08c1.68.14,3.37.21,5,.42A61.06,61.06,0,0,1,85.81,5.63,60,60,0,0,1,107.72,23.1a58.77,58.77,0,0,1,5.94,9.34,56.11,56.11,0,0,1,3.59,8.72,59.65,59.65,0,0,1,2.13,9.23,55.19,55.19,0,0,1,.54,5.87c0,.22,0,.43.08.65v4.4c0,.19-.07.37-.08.55,0,.73-.06,1.47-.15,2.2-.18,1.5-.38,3-.61,4.49a50,50,0,0,1-1.88,7.91,59.89,59.89,0,0,1-16.53,25.9,61.59,61.59,0,0,1-10.52,7.79,60.33,60.33,0,0,1-9.11,4.34,61.35,61.35,0,0,1-18.74,3.85,2.74,2.74,0,0,0-.5.07H57.19a3.69,3.69,0,0,0-.46-.08c-.92-.07-1.84-.12-2.75-.2a54.29,54.29,0,0,1-6-.85,57.93,57.93,0,0,1-11.47-3.47,58.81,58.81,0,0,1-10.29-5.51A60.31,60.31,0,0,1,13.43,96.73,59.41,59.41,0,0,1,6.25,85.8,57.45,57.45,0,0,1,2.16,75.28,56.23,56.23,0,0,1,.63,68a57.36,57.36,0,0,1-.56-6c0-.13,0-.27-.07-.41V57.28a2.93,2.93,0,0,0,.07-.41c.1-1.24.19-2.49.3-3.73a51.18,51.18,0,0,1,1.28-7.37,57.82,57.82,0,0,1,2.72-8.39,60.63,60.63,0,0,1,19.19-25A60.72,60.72,0,0,1,34.87,5.61,54.64,54.64,0,0,1,41.7,2.93,55.1,55.1,0,0,1,51.76.64c1.9-.23,3.81-.38,5.72-.56ZM61.4,95.82l-.26-.06a7.16,7.16,0,0,0-2.61,0,2.18,2.18,0,0,1-1.33-.1c-1.09-.43-2.21-.84-3.32-1.24A.8.8,0,0,1,53.4,94c-.22-.51-.5-1-.68-1.53a4.62,4.62,0,0,0-1.3-1.79,11,11,0,0,0-2.61-1.81c-1.31-.63-2.7-1.13-4.07-1.65s-2.46-.87-3.69-1.3a3,3,0,0,1-1-.63c-.59-.56-1.22-1.07-1.8-1.64a5.77,5.77,0,0,0-2-1.34,3.32,3.32,0,0,1-1.62-1.39,1.38,1.38,0,0,1-.19-1.6,1,1,0,0,0,.12-.62,9.21,9.21,0,0,0-.93-2.78c-.41-.71-.75-1.47-1.11-2.21a3,3,0,0,1-.22-.56c-.17-.65-.32-1.31-.49-2-.22-.81-.46-1.61-.7-2.43l-.74.2c.18,1,.36,1.9.53,2.83a6.1,6.1,0,0,0,1.66,3.52.84.84,0,0,1,.15.18,1.81,1.81,0,0,1,.11.3,3.28,3.28,0,0,1-1.85-1,4.22,4.22,0,0,0-.54-.58,2.06,2.06,0,0,1-.51-.82c-1.2-3.15-2-6.43-3-9.65a2.39,2.39,0,0,1-.09-.92c.2-2,.27-4,.65-6A9.81,9.81,0,0,1,27.82,55a19,19,0,0,1,3.52-6.13.62.62,0,0,0,.15-.63,8.71,8.71,0,0,1-.27-1.33,18,18,0,0,1,0-2.2,11.9,11.9,0,0,1,.44-3c.42-1.3.74-2.64,1.09-4a7.8,7.8,0,0,0,.34-1.65,7.69,7.69,0,0,0-.73-3.77.69.69,0,0,0-.25-.31,16.62,16.62,0,0,0-2.47-1.21c-1-.37-2.05-.81-3.07-1.24-.13-.05-.29-.13-.33-.24-.18-.48-.32-1-.52-1.59a2.29,2.29,0,0,1,.37.19,5.29,5.29,0,0,1,.7.55A2.3,2.3,0,0,0,28.3,29c.4-.92.76-1.8,1.16-2.66a1.1,1.1,0,0,1,.38-.45c.29-.23.61-.43.92-.65a.61.61,0,0,1,.56-.11c.49.12,1,.19,1.51.3a.39.39,0,0,0,.52-.25c.19-.46.4-.91.59-1.37.07-.16.13-.31.35-.33a4.47,4.47,0,0,1,1.67,0,.72.72,0,0,0,.56-.07,2.15,2.15,0,0,1,1.37-.34,3.82,3.82,0,0,1,2,.32.7.7,0,0,1,.4.47A10.71,10.71,0,0,1,40.73,27a.79.79,0,0,0,.07.46,15.17,15.17,0,0,0,1.5,2A47.08,47.08,0,0,0,47,33.29l1.92,1.49c.33-1.17.36-1.21-.51-1.77a1.9,1.9,0,0,1-1-1.59.83.83,0,0,0-.37-.66c-.34-.28-.65-.58-1-.87.06-.08.08-.14.12-.18a2.22,2.22,0,0,1,2-1c.74-.08.76-.09,1.15.56a3.32,3.32,0,0,0,1.66,1.56.82.82,0,0,1,.39.41A5.1,5.1,0,0,1,52,33.73c0,.23,0,.47,0,.7-.09.58.25.83.67,1a1.72,1.72,0,0,0,1-1.55,8.24,8.24,0,0,1,.19-1.16H55l.38,2.81a2.54,2.54,0,0,0,2.82-.08,2.74,2.74,0,0,1-1.67-1.28c-.28-.4-.6-.78-.91-1.19.42-.4.8-.77,1.2-1.12a.52.52,0,0,1,.38-.09,10,10,0,0,1,2.17.69c1.12.62,2.26,1.2,3.4,1.78a1,1,0,0,1,.49.52A11.67,11.67,0,0,0,63.83,36a1.36,1.36,0,0,0,.43.54c.57.34,1.17.63,1.76,1a1,1,0,0,1,.42.27c.36.59.7,1.2,1.06,1.82-.16.18-.28.34-.43.48a1.86,1.86,0,0,0-.67,1.34.89.89,0,0,1-1,1,2.37,2.37,0,0,1-1.26-.13,10.82,10.82,0,0,0-3.2-1c-.39-.06-.78-.15-1.28-.25l.85-.68c.35-.28.83-.5,1-.87a3.64,3.64,0,0,0,.12-1.38,1,1,0,0,0,0-.55c-.36-.57-.62-1.25-1.47-1.35a9.89,9.89,0,0,1-1.47-.44l-.37-.11.54.61.49.54A4.79,4.79,0,0,1,58,38.36a25.06,25.06,0,0,0-3.51,3.08,1.7,1.7,0,0,0-.23.3c-.37.56-.74,1.12-1.09,1.69a.94.94,0,0,0-.16.42,13,13,0,0,1-.13,1.54,2,2,0,0,0,.48,1.68,1.12,1.12,0,0,0,.71.47,11.66,11.66,0,0,1,3,.91.67.67,0,0,1,.46.65,3.49,3.49,0,0,0,.77,2.39,7.71,7.71,0,0,0,1.36,1.38c0-.16.07-.25.09-.34.1-.69.2-1.39.31-2.08a3.91,3.91,0,0,1,.9-2.56c-.24-.26-.45-.47-.63-.7a1,1,0,0,1-.19-.45c-.07-1.18-.12-2.37-.16-3.56,0-.82,0-.8.77-1.07a1.16,1.16,0,0,1,1,.06,10.54,10.54,0,0,0,1.2.51,4,4,0,0,1,2.37,1.77.66.66,0,0,0,.45.27c.64.11,1.29.2,1.94.28a1.85,1.85,0,0,1,1.07.39c.51.43,1,.84,1.6,1.22a11,11,0,0,1,2.11,2,5.76,5.76,0,0,1,1.25,2.15,1.17,1.17,0,0,1,0,.9c-.41.91-.4.9-1.3,1.31a5.44,5.44,0,0,1-1.93.49.71.71,0,0,0-.32.07,7.53,7.53,0,0,0-2.93,2,.52.52,0,0,0-.06.66,16.27,16.27,0,0,0,1.49-.94c.8-.6.78-.62,1.73-.33.24.08.33.18.34.42s.07.61.1.89c.85.48,1.66,0,2.51,0l.51,1.25c-.67.38-1.3.76-1.94,1.1A4.52,4.52,0,0,0,70.1,60a.74.74,0,0,1-.19.15l-.79-.42c-.08,0-.2-.12-.25-.1a2.87,2.87,0,0,0-1,.59,8.19,8.19,0,0,0-1.35,2.39.65.65,0,0,1-.5.48,1,1,0,0,0-.56.29,10.35,10.35,0,0,0-1.36,2.38,8,8,0,0,0-.6,3.23.84.84,0,0,1-.38.79c-1,.77-2,1.54-3,2.32a1.48,1.48,0,0,0-.4.39,4.68,4.68,0,0,0-1,2.34,1.59,1.59,0,0,1-.06.37,1,1,0,0,0,.1.8,13.73,13.73,0,0,1,.64,1.65c.13.44.17.9.26,1.38-.34.11-.65.18-.93.3s-.42,0-.58-.19c-.64-1-1.3-1.91-2-2.85a1.18,1.18,0,0,0-.39-.38,7,7,0,0,0-2.61-.81,2.66,2.66,0,0,0-1.61.29,2,2,0,0,1-2.28,0,3,3,0,0,0-2-.32,18.58,18.58,0,0,0-1.83.39.73.73,0,0,0-.41.25c-.51.65-1,1.32-1.48,2a.59.59,0,0,0-.15.28,9.65,9.65,0,0,0-.26,2.51c0,.48.13,1,.16,1.44a.62.62,0,0,0,.25.47,17.21,17.21,0,0,0,1.72,1.37,2.72,2.72,0,0,0,2.58.51c.27-.11.51-.2.62-.49a1.65,1.65,0,0,1,1.37-1.11h0a1.39,1.39,0,0,1,1.63.14c.46.29.67.55.52,1.1-.19.7-.08,1.47-.53,2.11a1.45,1.45,0,0,0-.19,1.52.58.58,0,0,0,.07.11h1.23a3.76,3.76,0,0,1,.89,0,6.38,6.38,0,0,1,3,1.27.67.67,0,0,1,.25.55,7.14,7.14,0,0,1-.52,2.36,1.39,1.39,0,0,0,.42,1.37l1.41,1a.87.87,0,0,0,.37.16l3.45.4.23-.25A10,10,0,0,1,65.77,92a1,1,0,0,1,.81,0c.49.2,1,.32,1.49.55a1.58,1.58,0,0,0,1.7-.1,2.26,2.26,0,0,1,1.42-.34c.83,0,1.66,0,2.49,0a5.27,5.27,0,0,0,.88-.1c.59-.12,1.19-.24,1.77-.41a1.83,1.83,0,0,1,1.3.11,17.88,17.88,0,0,0,4,1.42,18.07,18.07,0,0,0,3.81.28c.55,0,1.1,0,1.64-.07a.82.82,0,0,1,.76.34c.67.8,1.36,1.58,2,2.38a.49.49,0,0,0,.52.21c.49-.09,1-.13,1.48-.2a22.9,22.9,0,0,0,6.75-1.77,1.22,1.22,0,0,1,1.16.07,13.79,13.79,0,0,1,1.56,1.14l-.26.42L98.7,99.29a3.2,3.2,0,0,0-.32.57c-.27.66-.55,1.33-.77,2a7.92,7.92,0,0,0-.21,1.1,56.93,56.93,0,0,0,13.86-16.69,56.08,56.08,0,0,0,6.63-20.54,1.54,1.54,0,0,0-1.06.79c-.39.66-.82,1.29-1.23,1.94-.24.36-.47.72-.71,1.1-.36-.08-.69-.19-1-.23a3.54,3.54,0,0,1-2.41-1.41,10.17,10.17,0,0,1-1.63-2.47,22.37,22.37,0,0,1-2.06-6.38,19.83,19.83,0,0,1-.3-2.41c0-1.84.08-3.68.11-5.53a1.76,1.76,0,0,0-.12-.72,38.43,38.43,0,0,1-1.62-4.18,1.06,1.06,0,0,1-.07-.49,5.64,5.64,0,0,1,.72-2c.5-.65.26-1.35.19-2a.94.94,0,0,0-.18.36c-.19.7-.36,1.39-.55,2.08a.68.68,0,0,1-.18.37c-.43.35-.88.69-1.33,1-.6-.36-1.16-.74-1.75-1.05a1,1,0,0,1-.62-1,1.05,1.05,0,0,0-.37-1c-1.08-.87-1.07-.89-1-2.31a.79.79,0,0,1,.17-.41c.24-.29.52-.54.76-.83a.57.57,0,0,0,.18-.35c0-.48-.07-1-.12-1.44a9.48,9.48,0,0,0-2.86-.52.36.36,0,0,1-.28-.11,2.59,2.59,0,0,1-.63-1.93c.27-1.68.22-1.68-.57-3.18a.36.36,0,0,0,0-.09,4,4,0,0,0-2-2.2.36.36,0,0,1-.12-.08c-.08-.11-.2-.21-.23-.33-.21-.88-.44-1.76-.58-2.65a4.26,4.26,0,0,0-1.07-2.72,6.81,6.81,0,0,1-1.45-3.24.49.49,0,0,0-.42-.48,10.13,10.13,0,0,1-2.4-1.13l-1.21-.7-.43.47.8.92-1.24,1a5.08,5.08,0,0,1,1.12.36,7.51,7.51,0,0,1,1.46,1.09,9.91,9.91,0,0,0,3,2.24,1.88,1.88,0,0,1,.31.25c-.58.27-1.08.51-1.6.73a.76.76,0,0,0-.44.44c-.13.29-.28.58-.43.9a12.34,12.34,0,0,1-2.19-.56,4.32,4.32,0,0,1-2.42-2.25,3.94,3.94,0,0,0-1.54-1.77c-.19-.11-.36-.24-.56-.34-1.16-.6-2.32-1.21-3.5-1.77a3,3,0,0,1-1.39-1.19c-.26-.44-.58-.84-.91-1.3.45-.27.84-.53,1.25-.74a4.18,4.18,0,0,1,1-.35c.74-.16,1.49-.28,2.28-.42-.1-.33-.17-.63-.27-.92a.4.4,0,0,0-.19-.23c-.28-.09-.57-.15-.84-.23-.42.67-.42.67-1.21.68H78.6l.3-1.3a4,4,0,0,0-.49-.21,1.86,1.86,0,0,1-1.13-.91,2.76,2.76,0,0,0-1-1c-1.51-1-3-2-4.49-3l-.64-.41a2,2,0,0,0-1,.8c-.46.61-1.2.6-1.84.8-.09,0-.23-.08-.34-.13a7.52,7.52,0,0,0-.78-.32,8.39,8.39,0,0,0-2.87-.19,3.07,3.07,0,0,0-1.66.52,2.32,2.32,0,0,1-.9.33,8,8,0,0,1-2,.29,10.39,10.39,0,0,1-3.11-.6c-.48-.19-.78-.41-.78-.94a2.14,2.14,0,0,0-.14-.5c-.58,0-1.16,0-1.74,0a.73.73,0,0,0-.7.25,1.67,1.67,0,0,1-1.53.63c-.14,0-.28,0-.42,0a14.18,14.18,0,0,0-3.21.59c0,.34,0,.66,0,1A.5.5,0,0,1,48,11a3.08,3.08,0,0,1-1.78.74c-.36,0-.72.13-1.07.12a2.12,2.12,0,0,0-1.42.73c.09.3.19.58.26.86,0,.11,0,.3,0,.34a5.18,5.18,0,0,1-1.24.63,21.53,21.53,0,0,1-2.26.31.36.36,0,0,0-.39.37c-.05.54-.14,1.08-.18,1.62a.56.56,0,0,1-.31.53,5.09,5.09,0,0,0-1.36,1.13,28,28,0,0,1-3.15,3,2.07,2.07,0,0,1-.91.43l-1.55.28c.14-.24.22-.37.3-.49.33-.51.67-1,1-1.54a.54.54,0,0,0-.5-.86,1.41,1.41,0,0,1-1.66-.85,5.39,5.39,0,0,0-.33-.5c-.23-.36-.44-.71-.65-1.05a14.27,14.27,0,0,1,2.14-2.18,1.1,1.1,0,0,1,.7-.31.88.88,0,0,0,.92-.62,9.5,9.5,0,0,1,.49-.95.79.79,0,0,0,.07-.4,14.24,14.24,0,0,0-.2-1.44c-.06-.28,0-.39.27-.49.62-.28,1.25-.56,1.87-.86.37-.18.88-.3,1.07-.6s.05-.86.14-1.28a1.19,1.19,0,0,0-.65-1.35l-.14,0c-1.18.55-2.4,1.09-3.6,1.7a59.88,59.88,0,0,0-9.59,6.07A58.92,58.92,0,0,0,8,33.47,56.29,56.29,0,0,0,2.13,52.39c-.22,1.86-.38,3.73-.43,5.6a50.53,50.53,0,0,0,.46,8.78c.27,1.82.55,3.64.95,5.43A54.3,54.3,0,0,0,7.72,85a57,57,0,0,0,8.62,12.54,58.24,58.24,0,0,0,22.25,15.29,57.6,57.6,0,0,0,7.9,2.42,49.22,49.22,0,0,0,6.59,1.09c1.66.15,3.33.3,5,.36a56.15,56.15,0,0,0,7.67-.28l1.27-.16a6.35,6.35,0,0,1,.18-.79c.1-.29.26-.56.36-.86a2,2,0,0,0,.12-.63c0-.35-.07-.7-.11-1-.06,0-.09-.06-.12-.06-.24,0-.5,0-.74,0a.79.79,0,0,1-.73-.33,39.14,39.14,0,0,0-3.86-4.08,4.08,4.08,0,0,0-.7-.54A25.42,25.42,0,0,1,58,105.64a.83.83,0,0,1-.29-.44,5.45,5.45,0,0,1,.73-3.94,1,1,0,0,1,.44-.38c.51-.17,1-.35,1.5-.53.1,0,.24-.08.28-.15a3.85,3.85,0,0,0,.55-1.47A15.09,15.09,0,0,1,61.4,95.82Zm47.73-61c0-.74-.07-1.44-.12-2.13a.71.71,0,0,0-.17-.32c-.35-.46-.72-.91-1.06-1.38s-.6-.93-1-1.47c.29,0,.47,0,.65-.06s.25,0,.29-.11c.18-.36.44-.69.26-1.17a4.26,4.26,0,0,1-.32-2.06.77.77,0,0,0-.17-.46c-.39-.56-.79-1.12-1.22-1.66-.6-.75-1.21-1.47-1.84-2.23a.78.78,0,0,0,0,.09.76.76,0,0,0,.08.21,2.51,2.51,0,0,1,.27,1.59,6,6,0,0,0-.06.74,4.87,4.87,0,0,0,.06.55A2.36,2.36,0,0,0,106.35,27a.69.69,0,0,1,.45.85c-.09.85-.06.86-.89,1.13a2,2,0,0,1-.94.19,2.37,2.37,0,0,0-1.61.45l2.39,1.07c-.11.34-.21.64-.29.94a.34.34,0,0,1-.38.26l-1.31,0h-.71a18.7,18.7,0,0,0,.53,1.8,4.89,4.89,0,0,1,.37,2.14c0,.09,0,.19,0,.28a1.1,1.1,0,0,0,.22.74c.46.8.95,1.58,1.35,2.4a4.9,4.9,0,0,0,1.31,1.43,5.16,5.16,0,0,0,.14-1,25,25,0,0,1,.07-4.58c0-.14,0-.27,0-.37A2.92,2.92,0,0,1,109.13,34.83Z"/><path d="M59.83,30.68A12.79,12.79,0,0,1,58,29.55a7.15,7.15,0,0,1-1.09-1.45c0-.07,0-.24.07-.35.19-.49.37-1,.59-1.47a1.15,1.15,0,0,0,.06-.94c-.09-.26-.15-.54-.22-.79a5.32,5.32,0,0,1,3.74-.9l.13.84c.31,0,.59,0,.86-.11a.58.58,0,0,0,.32-.23,3.43,3.43,0,0,1,2.22-1.56,4,4,0,0,1,1.46-.21c.5,0,1,0,1.5,0a1.29,1.29,0,0,1,.83.25,12.44,12.44,0,0,0,4.34,2,3,3,0,0,1,.74.37,23.86,23.86,0,0,1,4,3.41.72.72,0,0,1,.23.53c0,.52,0,1,0,1.55a.65.65,0,0,1-.24.57c-.17.14-.31.32-.49.44a1.69,1.69,0,0,0-.7,1.52c0,1.28-.13,2.56-.21,3.84a1.54,1.54,0,0,1,0,.37,1.73,1.73,0,0,0,.3,1.45,1.9,1.9,0,0,0,1.06.83c.6.18,1.19.42,1.87.67a2.08,2.08,0,0,1-.35.2l-4.13,1.34a.77.77,0,0,1-.52,0c-.91-.52-1.8-1.06-2.68-1.63a.68.68,0,0,1-.25-.51,1.16,1.16,0,0,0-.87-1.12,1.16,1.16,0,0,1-.82-1.15c0-.79-.22-1.57-.32-2.36a.9.9,0,0,0-.27-.57,34.35,34.35,0,0,0-3.89-3.23c-.36-.25-.81-.38-1.2-.6s-.57-.38-.84-.57l0,0a4.43,4.43,0,0,1-1.74-2.82A1,1,0,0,0,61.4,27a3,3,0,0,0-.93,1.41C60.3,29.12,60.06,29.86,59.83,30.68Z"/><path d="M97,34.23C95.44,34,94.24,33,92.82,32.58a.58.58,0,0,0,.25.65c.28.23.53.49.81.71a3.26,3.26,0,0,1,.87,1.49c-.65,0-1.23,0-1.71-.41a7.56,7.56,0,0,0-.87-.72,1.42,1.42,0,0,1-.58-.91c-.08-.38-.2-.75-.3-1.13a5.68,5.68,0,0,0-1-2.14,5.65,5.65,0,0,1-.91-1.78c.34-.16.67-.33,1-.47a.35.35,0,0,1,.26,0,1,1,0,0,1,.23.23,5.39,5.39,0,0,0,2.31,1.53c.8.3,1.58.65,2.36,1,.28.12.53.28.8.39a1.24,1.24,0,0,1,.78,1.43C97.09,33.05,97,33.61,97,34.23Z"/><path d="M79.39,30.42c.06-.08.07-.1.08-.1a1.8,1.8,0,0,0,1.39-1,.72.72,0,0,1,.41-.29,3.14,3.14,0,0,1,1.28-.36c.38.05.73.44,1.08.69s.39.31.3.83a6.12,6.12,0,0,1-1.83,3.43c-.4.39-.36.35-.88.21a2.4,2.4,0,0,1-1.5-1.37,3,3,0,0,1-.17-.81C79.49,31.25,79.44,30.81,79.39,30.42Z"/><path d="M65.05,84.28c-.17.34-.3.65-.48.94a.47.47,0,0,1-.31.16l-1.58.21a.73.73,0,0,1-.6-.17,14.83,14.83,0,0,0-2.95-1.8,9.41,9.41,0,0,0-2.21-.55c-.56-.12-1.13-.2-1.7-.3a2,2,0,0,1-.29-.16c.56-.24,1-.46,1.52-.65.08,0,.21,0,.31,0,1.07.29,2.14.56,3.2.86a9.76,9.76,0,0,0,2.56.5,3,3,0,0,1,1.3.35C64.2,83.91,64.6,84.07,65.05,84.28Z"/><path d="M74,51l.23.14c1.18,1,2.36,2,3.56,3a3.58,3.58,0,0,1,.81,1.44c-.89,0-1.72.07-2.54.08a.63.63,0,0,1-.34-.21A17.3,17.3,0,0,1,74.41,54a9.34,9.34,0,0,1-.72-1.41.36.36,0,0,1,0-.23C73.79,51.88,73.9,51.45,74,51Z"/><path d="M69.29,84.63l-.09.59,1.59.91v.12c-.23,0-.46.1-.69.13a19.25,19.25,0,0,1-2.13.23A5.87,5.87,0,0,1,65.55,86c-.1,0-.15-.19-.22-.3a.43.43,0,0,0,0-.05c0-.77,0-.81.78-.94s1.23-.22,1.84-.35S68.81,84.52,69.29,84.63Z"/></svg>