<svg xmlns="http://www.w3.org/2000/svg" viewBox="0 0 87.55 137.21"><title>graphic13</title><path d="M25.27,49.17l-1.09,1.12a5.16,5.16,0,0,0-4.72.76c-1.37,1-1.89,2.55-2.52,4-1.13-.46-2.21-.87-3.28-1.32a3.75,3.75,0,0,0-2.34-.22c-2.29.49-4.11-.71-4.13-3a6.12,6.12,0,0,0-2.26-4.74A14.8,14.8,0,0,1,1,39.14a8.32,8.32,0,0,1,0-5c1.83-6.1,5.9-9.85,12.16-10.81a13,13,0,0,1,12,4.16,8.43,8.43,0,0,1,1.23,1.74,16.79,16.79,0,0,1,2.1,8.2,3.32,3.32,0,0,0,.8,2.33c.35.41.72.8,1.06,1.2a1.1,1.1,0,0,1,.18,1.46,1.18,1.18,0,0,1-1.22.61c-1.47-.13-1.81,0-2.41,1.29a2,2,0,0,1-1.12,1.08,3.62,3.62,0,0,0-.6.28,1.84,1.84,0,0,0-.67,2.56A11.62,11.62,0,0,0,25.27,49.17Zm-8-4.92c0,2,1.58,3.29,3.35,2.55A4.38,4.38,0,0,0,23.57,43,2.68,2.68,0,0,0,21,40.14,4.53,4.53,0,0,0,17.3,44.25ZM8.47,49.37c-.08,1.75.58,2.64,2,3.09,1.54.51,2.79-.12,4-.94a1.84,1.84,0,0,0,.46-3A3.9,3.9,0,0,0,9,48.35,4,4,0,0,0,8.47,49.37Zm11.42-.7c-.14-.19-.21-.4-.35-.47-.92-.42-1.85-.85-2.8-1.2-.66-.24-1.16.21-1,.92a3.66,3.66,0,0,0,.34.86c.32.72.66,1.43,1,2.19C18.37,51.28,19.1,50.72,19.89,48.67Z"/><path d="M24.16,59.63a2.45,2.45,0,0,1,.28.43c.44,1.22.84,1.48,2.07,1.23A7.53,7.53,0,0,0,28,60.76c1.09-.48,2.17-1,3.3-1.51a3.73,3.73,0,0,0-.27-.4c-.84-1-.82-1.56.17-2.33a7.23,7.23,0,0,1,1.48-.9c1.15-.51,1.73-.3,2.45.8a5,5,0,0,0,.35.41,15.19,15.19,0,0,0,1.78-1.36,26.6,26.6,0,0,0,2.44-2.65c.72-.94.48-1.44-.69-1.77-.08,0-.14-.09-.31-.21.15-.18.27-.45.45-.51a2.29,2.29,0,0,1,3,2.65,4.86,4.86,0,0,1-1,2.29,12.39,12.39,0,0,1-3.49,3.08c-.26.14-.49.32-.91.59.38.13.58.28.73.23a4.4,4.4,0,0,0,1.22-.52C39.83,57.86,41,57,42.15,56.2a3.38,3.38,0,0,0,.74-.77,1.49,1.49,0,0,0,.06-2c-.14-.17-.26-.36-.47-.66a2.41,2.41,0,0,1,.74-.15,2.39,2.39,0,0,1,1.72,1.54c.13.33.21.68.31,1a6.44,6.44,0,0,1,1.27.37,2.25,2.25,0,0,1,.92,2.8,5.48,5.48,0,0,1-3.56,3.21,13.18,13.18,0,0,1-5,.84c.28.56.79.49,1.21.57a7.13,7.13,0,0,0,6.69-1.77,2.68,2.68,0,0,0,1.12-2c1.06.38,1.54,1.06,1.24,1.89a5.14,5.14,0,0,1-3.24,3.5,9.74,9.74,0,0,1-7.18-.24,2.29,2.29,0,0,0-.39,0,4.83,4.83,0,0,1,.18,3.52,4.92,4.92,0,0,1-1.83,2.72A9.39,9.39,0,0,1,33.39,72a3,3,0,0,1-2.22-.26c-.43-.24-.86-.51-.67-1.25a5.8,5.8,0,0,0,5.19-2,5.64,5.64,0,0,0,.89-4.33c-.51.93-.95,1.88-1.52,2.76a8.1,8.1,0,0,1-3.37,2.78A3,3,0,0,1,27.21,67a3,3,0,0,1-1.64-1.94c-.07-.41-.17-.79.21-1.1.09,0,.21,0,.25.06a2.45,2.45,0,0,0,3.22.74,11.06,11.06,0,0,0,4.5-3.18L33,60.8C31.21,62.5,29,63,26.65,63.42a2.84,2.84,0,0,1-2.26-.61A2,2,0,0,1,24.16,59.63Zm3.58,7.73c.54.33.78.58,1.05.63a4.06,4.06,0,0,0,2.61-.28A7.26,7.26,0,0,0,35,63.58c.12-.34.19-.7.29-1A11,11,0,0,1,27.74,67.36Zm11.33-6.64c3.31-.13,6.21-1.39,6.89-3.95-.15-.4-.35-.76-.83-.82C43.82,58.39,41.68,59.69,39.07,60.72Z"/><path d="M41.1,75.15a7.58,7.58,0,0,1,.31-1c.48-1,3-1.43,3.79-.64a4.75,4.75,0,0,1,.47.78.86.86,0,0,0,1.09-.55,5.15,5.15,0,0,0,.29-.89,3.09,3.09,0,0,1,2.72-2.4,3.41,3.41,0,0,1,3.06,2,3.2,3.2,0,0,1-1.29,3.88,2.65,2.65,0,0,0-1.18,3,1.7,1.7,0,0,1-.49,1.92,1.84,1.84,0,0,1-2,.19,11.22,11.22,0,0,1-2.09-1.4c-1.15-1-2.17-.92-3,.31-.33.48-.63,1-.95,1.46a3.09,3.09,0,0,1-1.69,1.25,1.59,1.59,0,0,1-2.14-1.5,4.92,4.92,0,0,1,0-.94,1.42,1.42,0,0,0-1.09-1.62c-.46-.17-.94-.3-1.38-.51a3.17,3.17,0,0,1-1.77-3,3.21,3.21,0,0,1,2.44-2.85,2.83,2.83,0,0,1,2.94,1.15c.24.27.39.6.61.88S40.13,75.15,41.1,75.15Zm7,.94a4,4,0,0,0,2.85-1.3,1.57,1.57,0,0,0,.42-1.48,1.19,1.19,0,0,0-1.85-.81,10.06,10.06,0,0,0-1.7,2A1.19,1.19,0,0,0,48.07,76.09Zm-8.55,1.3a3.54,3.54,0,0,0-.15-1A3.76,3.76,0,0,0,37,74.5a1.12,1.12,0,0,0-1.35,1.43,2.12,2.12,0,0,0,.83,1.13A3.36,3.36,0,0,0,39.52,77.39Z"/><path d="M21.32,58.39c-4,2.66-7.94,5.29-11.9,7.89a6.41,6.41,0,0,0-2.95,3.33,1.81,1.81,0,0,1-.26.47,2.2,2.2,0,0,1-2,1.06A1.71,1.71,0,0,1,2.6,69.56l.7-1.27H2.43a8,8,0,0,1-1.2,0c-1.18-.14-1.6-1.06-.87-2a4.54,4.54,0,0,1,4.7-1.91,4,4,0,0,0,3.57-.76c2.73-2,5.53-3.93,8.33-5.84A5.77,5.77,0,0,0,19.11,55a8.07,8.07,0,0,1,1-1.88,2.94,2.94,0,0,1,3.11-1A1.75,1.75,0,0,1,24.05,55a3.33,3.33,0,0,0-.47.63s0,.07,0,.14a8.83,8.83,0,0,1,1-.11,1.36,1.36,0,0,1,1.45.94,1.44,1.44,0,0,1-.74,1.46,4.13,4.13,0,0,1-3.06.61C22,58.61,21.69,58.5,21.32,58.39Z"/><path d="M33.53,81.11a5.73,5.73,0,0,1,.59-.46,1.2,1.2,0,0,1,1.6,0,1.51,1.51,0,0,1,.5,1.79,2,2,0,0,1-1.4,1.34,6.36,6.36,0,0,0-3.4,2.65C29,89.73,26.46,93,24,96.25a4.25,4.25,0,0,0-.31.51,3.06,3.06,0,0,1-.15,3,2.56,2.56,0,0,1-.76.9A1.1,1.1,0,0,1,21,99.83c0-.38,0-.78,0-1.28-.33.22-.58.41-.84.56A1.7,1.7,0,0,1,17.56,98a2.51,2.51,0,0,1,1.22-2.75,7.58,7.58,0,0,1,1.72-.7,5.37,5.37,0,0,0,2.81-1.94c2-2.59,4.11-5.15,6.2-7.71A1.92,1.92,0,0,0,30,83a4.31,4.31,0,0,1,1.32-4.49,3,3,0,0,1,.53-.41,1.16,1.16,0,0,1,1.9,1A15.55,15.55,0,0,1,33.53,81.11Z"/><path d="M54.4,78.45c-.1-.6-.18-1-.26-1.46a1.49,1.49,0,0,1,.6-1.65,1.34,1.34,0,0,1,1.61.26A4.22,4.22,0,0,1,58,80.11a2.24,2.24,0,0,0,.52,2.19q2.94,3.57,5.77,7.22a6.14,6.14,0,0,0,3.44,2.39A3.26,3.26,0,0,1,70.29,94,2,2,0,0,1,70,95.92a1.65,1.65,0,0,1-2.23.51c-.16-.09-.29-.21-.45-.3a3.74,3.74,0,0,0-.53-.26c.05.41.11.71.12,1a1.1,1.1,0,0,1-.71,1.18,1.24,1.24,0,0,1-1.46-.35A3.6,3.6,0,0,1,64,94.56a3.22,3.22,0,0,1,.23-.57c-1-1.36-2.1-2.73-3.15-4.11-1.79-2.34-3.59-4.67-5.36-7a4.15,4.15,0,0,0-2.12-1.55,5,5,0,0,1-1.1-.5,1.91,1.91,0,0,1-.94-1.67,1.39,1.39,0,0,1,2.16-1.22Z"/><path d="M60.77,122.39a14.79,14.79,0,0,1-1.28,1.08,1.33,1.33,0,0,1-1.51.17c-.52-.29-.51-.79-.5-1.28A3.94,3.94,0,0,1,59.61,119a5,5,0,0,1,.86-.36,1.8,1.8,0,0,0,1.14-1.21c1-3,2-6.1,3-9.15a4.46,4.46,0,0,0-.07-2.75,7,7,0,0,1-.31-2.22,2.33,2.33,0,0,1,2-2,1.58,1.58,0,0,1,1.8,1.53c0,.25,0,.51.06.91.31-.24.5-.42.7-.56a1.3,1.3,0,0,1,1.71-.09,1.33,1.33,0,0,1,.08,1.72,3.4,3.4,0,0,1-1.89,1.62c-.21.06-.41.15-.64.23l-.79,2.15c-1.07,3-2.13,6-3.21,8.93a5.86,5.86,0,0,0-.3,4.16,1.65,1.65,0,0,1-.57,1.92,1.51,1.51,0,0,1-1.62.28C60.89,123.84,60.75,123.27,60.77,122.39Z"/><path d="M25.69,123.94a3.26,3.26,0,0,1,.15.68,1.37,1.37,0,0,1-2.08,1.19,1.88,1.88,0,0,1-1-2A4.2,4.2,0,0,1,23,123a3.15,3.15,0,0,0-.06-2.34q-1.19-3.27-2.34-6.54c-.67-1.89-1.32-3.78-2-5.72a3.6,3.6,0,0,1-2.58-1.9,1.28,1.28,0,0,1,.14-1.7,1.23,1.23,0,0,1,1.6.06,10.13,10.13,0,0,1,.84.69c0-.45,0-.75,0-1a1.41,1.41,0,0,1,1.35-1.39A2.19,2.19,0,0,1,22.41,105a4.5,4.5,0,0,1-.22,2,5.4,5.4,0,0,0,0,3.78c.9,2.65,1.79,5.32,2.62,8a2.36,2.36,0,0,0,1.62,1.76,3.81,3.81,0,0,1,2.38,2.21,4.33,4.33,0,0,1,.3,1.29c.05.48.08,1-.42,1.32a1.65,1.65,0,0,1-1.75-.26c-.21-.16-.38-.37-.58-.55S26.07,124.25,25.69,123.94Z"/><path d="M49,26.92a7.9,7.9,0,0,1,.91-.19,1.11,1.11,0,0,1,.71,2.11,3.61,3.61,0,0,1-2.3.59,7.83,7.83,0,0,1-1-.18l-5.49,4.18-4.59,3.49a4.88,4.88,0,0,0-1.87,2.54A1.93,1.93,0,0,1,33.7,41a1.32,1.32,0,0,1-1.46-.69,1,1,0,0,1,.27-1.32c.09-.1.16-.21.3-.38-1.1,0-2.37.86-3.12-.56A3.62,3.62,0,0,1,33,35.26a4.62,4.62,0,0,1,1.34,0,2.73,2.73,0,0,0,2.43-.79c2-1.62,3.95-3.22,6-4.77a6.55,6.55,0,0,0,2.78-3.79,2.59,2.59,0,0,1,1.78-2,3,3,0,0,1,1.18-.15,1.51,1.51,0,0,1,1.17,2.3A9.83,9.83,0,0,1,49,26.92Z"/><path d="M55.87,23.2a3,3,0,0,1-1,2.52,2.31,2.31,0,0,1-.88.57,1,1,0,0,1-1.34-1.14A6,6,0,0,1,53.1,24l-.83.21a1.5,1.5,0,0,1-1.66-.58,1.58,1.58,0,0,1-.2-1.64,2.27,2.27,0,0,1,1.93-1.46,7.87,7.87,0,0,1,1.61,0,4.2,4.2,0,0,0,2.53-.69c2.53-1.59,5.05-3.2,7.6-4.76a1.83,1.83,0,0,0,1-1.6,3.62,3.62,0,0,1,2.06-3.08,2.3,2.3,0,0,1,.74-.28c.44-.07.91-.16,1.25.24a1.31,1.31,0,0,1,.15,1.39,10.64,10.64,0,0,1-.71,1.33c.41-.13.64-.22.88-.27a1.09,1.09,0,0,1,1.14.53,1.19,1.19,0,0,1,.11,1.37,1.67,1.67,0,0,1-1.62,1,6,6,0,0,0-4,1.37Z"/><path d="M60.46,125.38l1.36.17a2.67,2.67,0,0,0,2.57-.71,1.12,1.12,0,0,1,1.89.36,5.4,5.4,0,0,1,.63,1.75,1.89,1.89,0,0,0,1.43,1.58,5.41,5.41,0,0,1,1.12.43,1.6,1.6,0,0,1,.63,2.38,2.55,2.55,0,0,1-3.48,1.32,6.42,6.42,0,0,1-2.81-1.78,3,3,0,0,0-2.66-.84,10.36,10.36,0,0,1-1.85,0,2.12,2.12,0,0,1-.59-4.08A11.28,11.28,0,0,1,60.46,125.38Z"/><path d="M25.61,132.18a19.13,19.13,0,0,1-1.91-.39,2.09,2.09,0,0,0-2,.36,7.52,7.52,0,0,1-3.83,1.45,2.74,2.74,0,0,1-2.75-2.91,1.48,1.48,0,0,1,1-1.2,5.07,5.07,0,0,1,1.29-.31,1.89,1.89,0,0,0,1.77-1.37A5.73,5.73,0,0,1,20,126.3c.68-.85,1.51-.87,2.07,0a2.21,2.21,0,0,0,1.8.93c.7.12,1.42.15,2.12.28A2.89,2.89,0,0,1,28,128.92a2.09,2.09,0,0,1-1.43,3.2A7.63,7.63,0,0,1,25.61,132.18Z"/><path d="M76.63,10.44a2.17,2.17,0,0,1-1.26,1.88c-.63.31-1.26.64-1.87,1a1.23,1.23,0,0,1-1.6-.18A11.77,11.77,0,0,1,70.3,11a1.22,1.22,0,0,1,.06-1,20.87,20.87,0,0,1,1.23-2.22,1.71,1.71,0,0,1,2.91-.44,14.09,14.09,0,0,1,1.71,2.05A4.94,4.94,0,0,1,76.63,10.44Z"/><path d="M28.68,48.68a4.43,4.43,0,0,1,1.32.73A14.29,14.29,0,0,1,31.89,52c.64,1.21.21,2.09-1.1,2.45a16.45,16.45,0,0,1-2.61.49,1.53,1.53,0,0,1-1.1-.32,10.64,10.64,0,0,1-1.51-2c-.41-.74-.22-1.19.41-1.76.42-.38.79-.84,1.23-1.19A15.56,15.56,0,0,1,28.68,48.68Z"/><path d="M12.82,55.62l2.41,1c-2.89,2.15-5.79,4-8.5,6-.91-.08-1.7-.2-2.5-.19A21.42,21.42,0,0,0,2,62.63,2.18,2.18,0,0,1,3.49,61.1a3.78,3.78,0,0,1,1.44-.26,4.58,4.58,0,0,0,3.35-1.39C9.77,58.16,11.28,56.92,12.82,55.62Z"/><path d="M69.21,101.21c-.36-.06-.71-.11-1-.18A1.4,1.4,0,0,1,67,99.75a1.46,1.46,0,0,1,.76-1.58A3,3,0,0,1,70.44,98a1.68,1.68,0,0,1,1,1.72,1.5,1.5,0,0,1-1.31,1.31C69.82,101.12,69.51,101.16,69.21,101.21Z"/><path d="M17.35,103.23c-1.56,0-2.25-.6-2.2-1.8A1.37,1.37,0,0,1,16.41,100a5.72,5.72,0,0,1,1.6,0c1.08.14,1.52.67,1.49,1.66s-.47,1.42-1.61,1.55A4.51,4.51,0,0,1,17.35,103.23Z"/><path d="M74.92,134.56c-.21.37-.36.69-.56,1-.43.62-1,.73-1.42.16a3.34,3.34,0,0,0-2.58-1.38.75.75,0,0,1-.63-1.16c.49-1.14,1.27-1.28,2.09-.35a2.16,2.16,0,0,0,2,.83C74.45,133.56,74.78,133.89,74.92,134.56Z"/><path d="M9.35,133.66c.49-.81.6-.93,1.31-.69a2.17,2.17,0,0,0,2.19-.43,1,1,0,0,1,1.34-.1,1.62,1.62,0,0,1,.45,1.57.7.7,0,0,1-.83.5,3,3,0,0,0-2.81.63.81.81,0,0,1-1.32-.34,1.06,1.06,0,0,1-.09-.25Z"/><path d="M9.05,130.41c.3-.63.69-.84,1.31-.55a2.26,2.26,0,0,0,1.92-.05c1.09-.46,1.34-.34,1.71.81a2.7,2.7,0,0,1,.06.36.77.77,0,0,1-1.06.57,2.84,2.84,0,0,0-2.53.26c-.25.14-.65,0-1,0Z"/><path d="M76.27,131.92l-.68,1.17a.91.91,0,0,1-1.25-.2,2.65,2.65,0,0,0-2.08-1c-.44,0-.79-.1-1-.67a4,4,0,0,1,.37-.75c.47-.65,1-.74,1.55-.17a2.08,2.08,0,0,0,2.1.79C75.8,131,76.12,131.37,76.27,131.92Z"/><path d="M44.25,71.8a6.12,6.12,0,0,1-2.69.72c-.27-.62-.1-1.34-.6-1.86-.08-.08.13-.62.33-.75a4.24,4.24,0,0,1,1.35-.51c.81-.17,1,.08,1.15,1A8.69,8.69,0,0,0,44.25,71.8Z"/><path d="M40.48,69.4l-1.09-1.86a2,2,0,0,1,2.55-1.28l.92,1.79A3.6,3.6,0,0,1,40.48,69.4Z"/><path d="M33.17,51.08h-.8l-.87-1.33c.21-.19.4-.51.64-.55a3.32,3.32,0,0,0,2.46-1.78.68.68,0,0,1,.3-.25c.07-.05.16,0,.41-.1l.9,1.32c-.35.25-.6.55-.89.6a2.52,2.52,0,0,0-2.2,2.14Z"/><path d="M31.47,48.64l-.83-1.26c.21-.19.4-.52.62-.56A3.35,3.35,0,0,0,33.81,45c.06-.1.22-.14.32-.21.51,0,.69.38.86.73.3.59.1,1.11-.56,1.19a2.36,2.36,0,0,0-2,1.5A.71.71,0,0,1,31.47,48.64Z"/><path d="M77.52,8a9.2,9.2,0,0,0,1.57-.56A2.73,2.73,0,0,0,80,6.51c.58-.9.8-1,1.57-.18.12.12.22.27.41.51-.22.2-.39.5-.63.57a3.41,3.41,0,0,0-2.29,1.83A.62.62,0,0,1,78,9.35C77.74,9,77.11,8.75,77.52,8Z"/><path d="M78.14,3.88a18,18,0,0,1-2,1.11c-.67.28-.42,1.5-1.54,1.31l-.92-1a.88.88,0,0,1,.89-.86,2.17,2.17,0,0,0,1.85-1.29c.21-.45.53-.74,1-.56A1.17,1.17,0,0,1,78.14,3.88Z"/><path d="M79.77,5.66a12.21,12.21,0,0,0-1.91,1,11.3,11.3,0,0,0-1.39,1.63L75.31,7.06c0-.52.24-.74.64-.78a2.45,2.45,0,0,0,2.14-1.49c.11-.24.44-.38.69-.58C79.38,4.62,80.05,4.87,79.77,5.66Z"/><path d="M33.12,51.13c1.44.08,2.21-.87,2.9-1.9.71.1,1.12.44,1.18,1s-.18.72-.91.89a2.27,2.27,0,0,0-1.76,1.43.7.7,0,0,1-1,.47l-.76-1.12.37-.79Z"/><path d="M26.63,48.65c-.37-.41-.59-.62-.78-.86-.4-.52-.33-1,.25-1.14a3.1,3.1,0,0,0,2-1.91,3.84,3.84,0,0,1,.67-.68,7.52,7.52,0,0,1,.75.87A.67.67,0,0,1,29.2,46a2.71,2.71,0,0,0-1.89,2C27.23,48.25,26.91,48.4,26.63,48.65Z"/><path d="M76,14.59l-.64-1.17c.13-.4.39-.67.79-.58a2.21,2.21,0,0,0,2.1-.8,4.77,4.77,0,0,1,.84-.5l.81,1.22c-.26.2-.45.48-.64.48a3.11,3.11,0,0,0-2.63,1.27.4.4,0,0,1-.24.1A3.48,3.48,0,0,1,76,14.59Z"/><path d="M78,137.15a3.11,3.11,0,0,1-2.2-.44c-.42-.22-.78-.59-.55-1.07a1.45,1.45,0,0,1,.88-.68c.65-.18,1.07.32,1.49.71S78.48,136.41,78,137.15Z"/><path d="M8.7,134.55a1.12,1.12,0,0,1-1.17.82,7.92,7.92,0,0,1-1.82-.27.55.55,0,0,1-.09-.9,6.39,6.39,0,0,1,2-.7C8.15,133.43,8.51,133.92,8.7,134.55Z"/><path d="M37.65,49.62l-.77-1.24a8.7,8.7,0,0,0,1.41-1,7.22,7.22,0,0,0,.79-1.43l1,1c0,.9-.88.73-1.18,1.23A11.09,11.09,0,0,1,37.65,49.62Z"/><path d="M83.54,3.82A2.39,2.39,0,0,0,81.2,5.38l-1.12-1,2.8-2A1.17,1.17,0,0,1,83.54,3.82Z"/><path d="M37,41.8l1.13,1c0,.91-.87.75-1.17,1.23a12.31,12.31,0,0,1-1.12,1.35c-.59-.14-.73-.57-.84-1.18A2.93,2.93,0,0,0,37,41.8Z"/><path d="M79.36,3.44c-.49-.31-.93-.51-.9-1.08L81.29.73c.49.2.7.7.62,1.46A2.55,2.55,0,0,0,79.36,3.44Z"/><path d="M84.69,3.7c.29.65.79,1,.32,1.68a2.11,2.11,0,0,0-2.33,1.15c-.52-.24-.94-.44-1-1.14a15.73,15.73,0,0,0,1.51-.67C83.66,4.46,84.09,4.11,84.69,3.7Z"/><path d="M37.76,44.07a1.27,1.27,0,0,1,1.28,1l-2.57,1.94c-.54-.28-.54-.28-.63-1.2A2.1,2.1,0,0,0,37.76,44.07Z"/><path d="M6.05,131.91c0-.3,0-.64.09-.77a2.62,2.62,0,0,1,1-.6c.76-.27,1.07-.06,1.55.92C8,132.42,7.87,132.45,6.05,131.91Z"/><path d="M76.92,133.78a1.12,1.12,0,0,1,1.38-.87,1.61,1.61,0,0,1,1.24,1.44A1.79,1.79,0,0,1,76.92,133.78Z"/><path d="M40.16,41c-.29.27-.51.47-.72.68l-.6.65c-.55-.29-.55-.29-.8-.9C39.34,40.24,39.34,40.24,40.16,41Z"/><path d="M86.12,4.43l-.8-.86,1.8-1c.16.19.41.36.43.55a.87.87,0,0,1-.29.68A7.61,7.61,0,0,1,86.12,4.43Z"/><path d="M39.82,45.51c.61-.44.73-1.63,2-.91l-.89,1.63C40.21,46.44,40.07,46,39.82,45.51Z"/><path d="M39.74,44.65l-.86-1c.63-.5.89-1.35,1.93-1C41.09,43.56,40,43.77,39.74,44.65Z"/><path d="M79.76,11.12c.76-.16.86-1.18,1.75-1,.65,1-.44,1.24-.59,1.84A.93.93,0,0,1,79.76,11.12Z"/><path d="M82.75,1.55c-.22-.33-.39-.53-.51-.76a.92.92,0,0,1,0-.37c1.28-.5,1.44-.52,2.11-.24C84.39,1.25,83.32,1,82.75,1.55Z"/><path d="M30.51,45.24,30.44,44c.79.21,1.52-.66,2.14.33-.29.9-1.3.47-1.77,1Z"/><path d="M84.5,3.17l-.88-1.29c.89-.12,1.39-1,2.23-.46C86,2.51,84.86,2.26,84.5,3.17Z"/></svg>