<svg xmlns="http://www.w3.org/2000/svg" viewBox="0 0 130.31 126.62"><title>graphic15</title><path d="M130.31,101.91a41.34,41.34,0,0,1-4.91,6.42c-1.43,1.65-3,3.17-4.52,4.76-.29.3-.57.63-.85,1l-.12-.07c-.09-.51-.18-1-.27-1.53-.59-3.1-1.1-6.21-1.79-9.28a86.48,86.48,0,0,0-5-15.2c-1.47-3.42-2.75-6.91-4.3-10.29a63.15,63.15,0,0,0-3.62-6.47,38.33,38.33,0,0,0-6.46-7.85A12.34,12.34,0,0,0,94,60.81a20.81,20.81,0,0,0-7-1.2,12.59,12.59,0,0,0-4.68.66,17,17,0,0,0-5,3,35.16,35.16,0,0,0-5.76,6.12,18.57,18.57,0,0,1-3.5,3.53,3.92,3.92,0,0,1-2.86.93c-.44,0-.9,0-1.34-.07a4.76,4.76,0,0,1-2.27-1.27,21.42,21.42,0,0,1-3.44-3.68,30.2,30.2,0,0,0-6.83-6.71,12.08,12.08,0,0,0-5.65-2.34,23,23,0,0,0-3.62-.08,19,19,0,0,0-7.74,2,9.25,9.25,0,0,0-2.66,1.84c-1.19,1.23-2.41,2.44-3.5,3.76a52.71,52.71,0,0,0-4.7,7,61.93,61.93,0,0,0-3.83,8.27C18.24,86,16.74,89.43,15.41,93a80.5,80.5,0,0,0-3.62,13c-.5,2.62-.95,5.25-1.42,7.88,0,.06,0,.12,0,.23-.3-.29-.58-.54-.85-.81C8.25,112,7,110.82,5.84,109.51a56.74,56.74,0,0,1-5.65-7.17,1.19,1.19,0,0,1-.15-1,54.29,54.29,0,0,1,3.27-9.86c1.9-4.52,3.82-9,5.8-13.53a55.38,55.38,0,0,1,4.8-8.35q3.77-5.62,7.6-11.2c1.08-1.57,2.29-3.06,3.41-4.59a7.33,7.33,0,0,0,1.37-3.46c.48-3.69,1-7.37,1.53-11,.39-2.64.6-5.3.85-8a38.17,38.17,0,0,1,3.47-12.54A29.48,29.48,0,0,1,40.56,8.07,26.12,26.12,0,0,1,45,4.94a22.05,22.05,0,0,1,6.28-2.11c2.75-.48,5.52-.9,8.28-1.34a1.47,1.47,0,0,1,.28,0c0,.25,0,.48,0,.71,0,2.8.05,5.61.07,8.42q.06,6,.13,12,0,3.64.08,7.3c0,3.48.07,7,.11,10.45,0,2.44.06,4.89.08,7.33,0,1.06,0,2.12,0,3.18h.09c0-.07,0-.14.07-.21.22-1,.46-2,.64-3a6.65,6.65,0,0,0,.06-1.34c0-2.29,0-4.57-.06-6.85l-.06-8-.06-7.27-.09-9.42c0-2.19,0-4.37-.06-6.56L60.73.55c0-.25,0-.39.33-.4,1.67,0,3.34-.14,5-.15,1.06,0,2.12.11,3.17.16.21,0,.28.1.27.3,0,2.7-.05,5.4-.08,8.11l0,3.95-.06,8.72-.06,7.36-.06,7.46c0,2.45,0,4.89-.07,7.34,0,.79,0,1.59,0,2.38a12.94,12.94,0,0,0,.48,3.81,10.48,10.48,0,0,0,.33,1.28c0-.2,0-.41,0-.61L70,40.39q.06-6,.13-11.93,0-3.66.08-7.3c0-3.49.07-7,.1-10.45q0-3.66.08-7.3c0-.65,0-1.29,0-2,.84.13,1.6.23,2.36.36,2.41.4,4.83.74,7.22,1.25a19.61,19.61,0,0,1,8.88,4.36,43.6,43.6,0,0,1,5,4.77,31.37,31.37,0,0,1,4.59,7.56,36.18,36.18,0,0,1,3.07,11.9c.29,3.76.82,7.49,1.31,11.23.34,2.6.75,5.2,1.1,7.8a6.73,6.73,0,0,0,1.25,3.06c1.05,1.46,2.17,2.85,3.2,4.32,2.08,3,4.15,6,6.17,9q2.39,3.6,4.62,7.31a64.8,64.8,0,0,1,4.06,8.49c1.73,4.13,3.42,8.27,5.1,12.42a41.61,41.61,0,0,1,1.86,6.38.94.94,0,0,0,.06.15ZM72.61,57l0,.07.37-.16,1.42-.68a26.2,26.2,0,0,1,12.17-2.71,17.57,17.57,0,0,1,7,1.51c3,1.36,5.91,2.77,8.86,4.16l.4.18a.49.49,0,0,0-.2-.26l-2-1.44a34.51,34.51,0,0,0-10-5,16.4,16.4,0,0,0-6.57-.67,24.28,24.28,0,0,0-5.18,1.17,11.57,11.57,0,0,0-3.23,1.39q-1,.72-2,1.47C73.35,56.38,73,56.71,72.61,57ZM27.35,59.3l0,.07.35-.14C30.37,58,33,56.74,35.63,55.48a20.3,20.3,0,0,1,9-2,27.56,27.56,0,0,1,4.87.58,27.1,27.1,0,0,1,7.15,2.54l1,.46.08-.1a.67.67,0,0,1-.15-.06,15.59,15.59,0,0,0-5.91-3.64A28.57,28.57,0,0,0,45.34,52a17.22,17.22,0,0,0-6.41.92,35.86,35.86,0,0,0-10,5.25Z"/><path d="M65,126.62l-4.64-2.44L48.5,118l-.36-.21H81.6l0,0-1.4.75-14.86,7.85a1.37,1.37,0,0,0-.23.17Z"/><path d="M42.11,114.34a2.63,2.63,0,0,1,1.43-.61,2.09,2.09,0,0,1,1.86.75,3.58,3.58,0,0,1,.79,1.86,9.26,9.26,0,0,0-.8-.87,2.19,2.19,0,0,0-2.62-.36l-.09,0a3.4,3.4,0,0,1-2.25.44c-.23,0-.25-.14-.3-.29q-1.2-3.85-2.41-7.7l-.48-1.53a.32.32,0,0,0-.31-.26,40.82,40.82,0,0,0-10-.14c-2,.25-3.93.68-5.87,1.11a41.77,41.77,0,0,0-8,2.77l-.37.15c.09-.6.16-1.14.26-1.68A64,64,0,0,1,15,100.2C16,97,17,93.78,18.13,90.65q2.4-6.37,5.16-12.61a42.36,42.36,0,0,1,7.36-11.22,20.23,20.23,0,0,1,5.17-4.31,19.22,19.22,0,0,1,6.28-2.17,1.66,1.66,0,0,1,.32,0s.06,0,.16,0c-.16.15-.3.26-.42.38A25.66,25.66,0,0,0,36.84,68a2,2,0,0,0,0,1.85,1.05,1.05,0,0,0,.47.41c1.09.5,2.17,1,3.29,1.45a61,61,0,0,0,7.24,2.45,20.69,20.69,0,0,0,5.87.51c1.36,0,2.72-.12,4.08-.18l.29,0-1.06-5,.06,0c.22.22.45.43.66.66.72.77,1.41,1.56,2.14,2.32a7,7,0,0,0,10.26.12c.91-.94,1.78-1.91,2.68-2.87.07-.08.16-.15.31-.29-.36,1.76-.71,3.42-1.07,5.13.2,0,.38.06.55.06,2.15,0,4.31.14,6.46.13a16.13,16.13,0,0,0,4.66-.87,73.06,73.06,0,0,0,8.71-3.28,1.64,1.64,0,0,0,1.1-1.47,2.08,2.08,0,0,0-.17-.93,24.37,24.37,0,0,0-3.66-5.64c-.66-.73-1.35-1.44-2.06-2.19.37.05.71.08,1,.15a18.53,18.53,0,0,1,9.49,5,44.17,44.17,0,0,1,8,11.13c1.69,3.22,2.87,6.67,4.28,10a152.73,152.73,0,0,1,6.16,18.63c.39,1.36.58,2.78.85,4.18a2,2,0,0,1,0,.28l-.17,0a42,42,0,0,0-6.62-2.44,44.3,44.3,0,0,0-9.63-1.7,48.39,48.39,0,0,0-7.8.32.38.38,0,0,0-.36.31q-1.44,4.59-2.87,9.17c-.08.25-.19.33-.43.3a2.41,2.41,0,0,0-.38,0,2.53,2.53,0,0,1-1.65-.39,2.4,2.4,0,0,0-3.27.74,3,3,0,0,1-.33.38A3,3,0,0,1,85.5,114a2.36,2.36,0,0,1,2.63.37q3.47-12,6.93-23.93l-.06,0c-3,7.29-5.9,14.59-8.87,22l-.83-.83c-.9-.91-1.79-1.82-2.69-2.72l-6.45-6.48q-3.64-3.68-7.3-7.34a.75.75,0,0,1-.23-.78A4.38,4.38,0,0,0,68,90.51a3.55,3.55,0,0,0-3.9-1.26,3.51,3.51,0,0,0-2.58,3,5.35,5.35,0,0,0,.12,2.11.42.42,0,0,1-.14.47l-7.24,7.28q-4.83,4.88-9.68,9.74l-.47.5L35.2,90.27l-.06,0Q38.62,102.29,42.11,114.34Zm3.17-9.25h.06c0-.1.08-.19.11-.29.26-1,.51-2,.77-3,.38-1.43.65-2.9,1.16-4.29A25.73,25.73,0,0,1,50,92.34a8,8,0,0,1,3.33-3.12c.83-.37,1.65-.77,2.48-1.15.67-.3,1.35-.58,2-.91.47-.23.5-.59.07-.88a5.51,5.51,0,0,0-1.06-.59A20,20,0,0,0,47,84.43,29.5,29.5,0,0,0,42,85.53a.56.56,0,0,1-.53-.1L36.8,82.06c-.16-.12-.33-.23-.5-.34,0,.06,0,.08,0,.09,1.72,1.71,3.44,3.42,5.17,5.11a.51.51,0,0,0,.42.08,45.15,45.15,0,0,1,5.61-1.19,14.55,14.55,0,0,1,5.14.08c1.06.25,2.11.54,3.16.81a.22.22,0,0,1-.13.1l-.15,0a10.5,10.5,0,0,0-7.08,5.36,22.05,22.05,0,0,0-1.85,4.4,37.69,37.69,0,0,0-1.28,7.74C45.3,104.59,45.29,104.84,45.28,105.09ZM94,81.81l-.1-.1-.13.09-5,3.61a.66.66,0,0,1-.62.11,26.51,26.51,0,0,0-6-1.18,20.43,20.43,0,0,0-7.49.86,8.37,8.37,0,0,0-2.37,1c-.45.33-.42.66.07.93l.35.16L77,89.24a6.85,6.85,0,0,1,2.42,1.92,19.11,19.11,0,0,1,2.45,4.1,18.8,18.8,0,0,1,1.08,2.54c.67,2.35,1.25,4.72,1.87,7.09a2.34,2.34,0,0,0,.09.24.46.46,0,0,0,0-.27c-.19-1.69-.36-3.39-.6-5.07a21.7,21.7,0,0,0-2.43-7.33,10.44,10.44,0,0,0-6.4-5.39c-.36-.11-.72-.2-1.16-.32.49-.14.9-.25,1.31-.38a15.15,15.15,0,0,1,7.38-.52c1.76.31,3.5.75,5.25,1.15a.5.5,0,0,0,.54-.14l4.64-4.58C93.66,82.11,93.86,82,94,81.81Zm.07-8.67,0,0-.26.23c-1,.88-2,1.77-3,2.64a11.2,11.2,0,0,1-5.86,2.73,31.29,31.29,0,0,1-4.84.28,27.59,27.59,0,0,1-6.58-.83l-1.44-.38a.85.85,0,0,0,.28.26,17.37,17.37,0,0,0,8.37,2.49c1.33,0,2.67-.09,4-.17a8.68,8.68,0,0,0,6.1-3c1.08-1.21,2-2.53,3.06-3.8C94,73.39,94,73.26,94.11,73.14ZM58.2,77.85l0-.08-.24.06a29.56,29.56,0,0,1-12.05.94,10.84,10.84,0,0,1-4.69-1.54,34.55,34.55,0,0,1-4.45-3.63l-.55-.51a.7.7,0,0,0,.16.37c1,1.24,1.93,2.51,3,3.71a8.68,8.68,0,0,0,5.16,3,22.37,22.37,0,0,0,6.33.21,18.35,18.35,0,0,0,6.14-1.85C57.38,78.36,57.78,78.09,58.2,77.85Zm12.31,1.5a.34.34,0,0,0-.08-.09c-.89-.58-1.75-1.2-2.66-1.73A5.27,5.27,0,0,0,64.2,77a6.35,6.35,0,0,0-2.48,1.08c-.62.4-1.22.83-1.83,1.25,1-.25,2-.49,3-.82a7.14,7.14,0,0,1,4.5,0C68.44,78.82,69.47,79.06,70.51,79.35Zm-9.05,2,0,.06a.5.5,0,0,0,.12,0l2.31-.65a4,4,0,0,1,2-.17l1.92.49c.43.11.85.24,1.28.37l0-.09c-.68-.43-1.36-.89-2.06-1.29a3.89,3.89,0,0,0-2.49-.39,5.46,5.46,0,0,0-2.25,1C62.07,80.94,61.77,81.16,61.46,81.38Z"/><path d="M82.67,114.45c-.2.7-.39,1.38-.6,2a.28.28,0,0,1-.18.13.7.7,0,0,1-.25,0H48.05c-.32,0-.44-.09-.51-.4-.12-.6-.3-1.18-.46-1.8Z"/><path d="M63.12,113V97.63H67V113Z"/><path d="M60.67,99v14H57.52c0-.1,0-.22,0-.33q0-5.11,0-10.23a.86.86,0,0,1,.21-.53c.89-.91,1.8-1.81,2.7-2.72A3.36,3.36,0,0,1,60.67,99Z"/><path d="M72.72,113H69.58V99l.22.2c.92.92,1.84,1.84,2.74,2.77a.68.68,0,0,1,.19.44q0,5.16,0,10.32C72.74,112.81,72.73,112.9,72.72,113Z"/><path d="M75.5,104.26c1.06,1,2.08,2,3.09,3.07a.39.39,0,0,1,.09.26c0,1.76,0,3.51,0,5.27a1.31,1.31,0,0,1,0,.15H75.5Z"/><path d="M54.72,104.26V113H51.58c0-.12,0-.23,0-.34,0-1.66,0-3.32,0-5a.64.64,0,0,1,.12-.41c1-1,1.92-2,2.89-2.92A.67.67,0,0,1,54.72,104.26Z"/></svg>