<svg xmlns="http://www.w3.org/2000/svg" viewBox="0 0 137 87.16"><title>graphic2</title><path d="M68.1,87.16c-.1,0-.19,0-.29-.06-1.5-.11-3-.19-4.52-.34s-3-.36-4.47-.61a67.33,67.33,0,0,1-7.28-1.68,73.63,73.63,0,0,1-16.78-7.18A73.08,73.08,0,0,1,25.65,71a71.54,71.54,0,0,1-6.38-5.93c-.35-.37-.68-.77-1-1.15-.1-.11-.18-.19-.36-.1a13.38,13.38,0,0,1-4.66,1.32,11.8,11.8,0,0,1-6.41-1L6.74,64l1.2-2.15c.83.21,1.61.43,2.4.6a8.48,8.48,0,0,0,2.93.05,11.13,11.13,0,0,0,3.92-1.26A7.41,7.41,0,0,0,21,56.68c0-.06.1-.15.14-.14.8.11,1.6.24,2.46.37A9.89,9.89,0,0,1,19.34,63c.84.46,1.64.91,2.45,1.33a124.38,124.38,0,0,0,11.93,5.58c1.93.77,3.87,1.49,5.83,2.19a94.33,94.33,0,0,0,10.81,3.06c1.81.41,3.64.72,5.47,1,1.46.24,2.93.44,4.41.59s2.75.23,4.12.27c1.79.06,3.59.09,5.38.07,1.22,0,2.44-.15,3.66-.26,1-.09,2.1-.18,3.14-.35,1.22-.18,2.43-.42,3.64-.68A48.27,48.27,0,0,0,89,73.05a44,44,0,0,0,5.61-2.84c1.4-.83,2.79-1.68,4.15-2.58a61.48,61.48,0,0,0,6.91-5.34Q108,60.21,110.19,58a39.07,39.07,0,0,0,6-7.46c1-1.64,2.1-3.23,3.11-4.87,1.32-2.14,2.65-4.26,3.88-6.45,1.13-2,2.14-4.1,3.19-6.16a3.76,3.76,0,0,0,.28-.88c.06-.21.07-.44-.22-.54a10.81,10.81,0,0,1-5.56-4.19l-.09-.1v.49c0,1.17.06,2.34,0,3.5a13.88,13.88,0,0,1-2.1,7,11.3,11.3,0,0,1-2.38,2.69.4.4,0,0,0-.13.32,12.94,12.94,0,0,1-.17,4.3,8.82,8.82,0,0,1-2.47,4.69,4.09,4.09,0,0,1-2.56,1.13,10,10,0,0,1-6-1.66,20.19,20.19,0,0,1-5.06-4.34,21.83,21.83,0,0,1-4.81-9.75c-.27-1.18-.41-2.39-.57-3.59a24.44,24.44,0,0,1-.13-5.27A37.84,37.84,0,0,1,95,22.66a32.5,32.5,0,0,1,1-3.61,7.76,7.76,0,0,1,3-4.13,7.48,7.48,0,0,1,4.5-1.47,6,6,0,0,1,5,2.73,9.35,9.35,0,0,1,1.42,4A16.55,16.55,0,0,1,110,24a13.62,13.62,0,0,1-3.18,8,11.68,11.68,0,0,1-4,3c-.22.1-.24.2-.17.4a12.67,12.67,0,0,0,3.83,5.78,5.91,5.91,0,0,0,2.72,1.53,2.64,2.64,0,0,0,2.33-.49,1.29,1.29,0,0,0,.17-.16,1,1,0,0,0,.12-.2,4.1,4.1,0,0,1-2.11-1.93,5.63,5.63,0,0,1-.9-2.1,5.89,5.89,0,0,1,.65-4.23,2.37,2.37,0,0,1,3.55-.75,5,5,0,0,1,1.89,2.44c.3.81.47,1.67.7,2.51,0,.08.05.16.1.34.45-.65.89-1.22,1.27-1.82a10.8,10.8,0,0,0,1.79-3.86,24.21,24.21,0,0,0,.36-3.81c0-1.82-.07-3.65-.12-5.48,0-.26,0-.52,0-.84.78.06,1.52.1,2.25.17.06,0,.13.11.15.18a10.42,10.42,0,0,0,3.13,4.52,12,12,0,0,0,5.35,2.64,10.53,10.53,0,0,0,5.43-.19c.33-.1.64-.22,1-.33h0l.72,2.45v.14a21,21,0,0,1-9.13.2.54.54,0,0,0,0,.12c-.16,1.21-.28,2.42-.47,3.63-.22,1.41-.46,2.83-.76,4.23A65.67,65.67,0,0,1,120,57.72a63,63,0,0,1-8.18,11.54,53.17,53.17,0,0,1-8,7.39,52.08,52.08,0,0,1-13,7,49.45,49.45,0,0,1-7.62,2.19c-1.85.37-3.73.65-5.6.89-1.44.18-2.9.23-4.35.34-.11,0-.21,0-.32.06ZM101.68,33.1l.22-.18a15.15,15.15,0,0,0,3.15-4,11.84,11.84,0,0,0,1.38-8A4.73,4.73,0,0,0,105,18.1a2.24,2.24,0,0,0-1.67-.59A2.76,2.76,0,0,0,101.13,19a6.64,6.64,0,0,0-.91,3.56,33.72,33.72,0,0,0,.14,3.89c.15,1.43.4,2.85.66,4.26C101.17,31.47,101.44,32.25,101.68,33.1Zm12.13,5.74c0-.32-.06-.56-.09-.8a7.34,7.34,0,0,0-.7-2.67,2.22,2.22,0,0,0-.93-1,1,1,0,0,0-1.37.45,1.74,1.74,0,0,0,.08,1.63,5,5,0,0,0,2.49,2.25C113.43,38.75,113.59,38.77,113.81,38.84Z"/><path d="M0,33c.07-.45.12-.89.2-1.34A14.69,14.69,0,0,1,3,25.27c0,.37,0,.74-.08,1.11a33.05,33.05,0,0,0-.05,5.54,20.73,20.73,0,0,0,.74,4.5,7,7,0,0,0,4.31,4.5c.8.33,1.65.51,2.51.77,0-.48,0-.86.12-1.24a6.09,6.09,0,0,1,3.78-4.74,6.07,6.07,0,0,1,2.48-.53,2.53,2.53,0,0,1,2.51,2.33,5.94,5.94,0,0,1-3.13,6,21.39,21.39,0,0,1-2.69,1.28c-.26.11-.31.2-.22.45a5.8,5.8,0,0,0,3.25,3.58,13.42,13.42,0,0,0,3.88,1.08A13.48,13.48,0,0,0,28,48.76a7.52,7.52,0,0,0,3.92-4.11A8.39,8.39,0,0,0,32.41,41c-.23-3.15-1.51-6-2.81-8.75-.75-1.61-1.55-3.2-2.25-4.84a26.14,26.14,0,0,1-1.46-5.08,23.44,23.44,0,0,1-.47-5.79,12.94,12.94,0,0,1,2.5-7.44,12.7,12.7,0,0,1,4.29-3.48,16.9,16.9,0,0,1,5.24-1.81,13.5,13.5,0,0,1,8.3,1.13A1.28,1.28,0,0,0,46.86,5c1.22-.46,2.45-.9,3.68-1.32a11.26,11.26,0,0,1,4-.57,6.28,6.28,0,0,1,1.13.16A22.26,22.26,0,0,0,48,6.73c.32.65.7,1.27,1,1.95a6.34,6.34,0,0,1,.27,3.53,7.42,7.42,0,0,1-.42,1.7A4,4,0,0,1,46.1,16a5.35,5.35,0,0,1-4.17-.28,3.18,3.18,0,0,1-1.66-2.54,6.3,6.3,0,0,1,1.46-4.49c.37-.53.82-1,1.26-1.55a1.67,1.67,0,0,0-1.22-.3A11.27,11.27,0,0,0,36.5,8.59a7.17,7.17,0,0,0-3.34,5.34,14.21,14.21,0,0,0,1.13,7.23,44.93,44.93,0,0,0,3.24,6.09,57.61,57.61,0,0,1,3.18,5.83,14.42,14.42,0,0,1,1.22,7,15.19,15.19,0,0,1-3.47,8.74,18.86,18.86,0,0,1-7.32,5.35,21.5,21.5,0,0,1-4.75,1.5,12.51,12.51,0,0,1-10.23-2.38,18.59,18.59,0,0,1-5.66-7.49c-.07-.18-.13-.28-.36-.28A9.44,9.44,0,0,1,1.34,40,14.27,14.27,0,0,1,.07,35.63c0-.17,0-.34-.07-.51ZM46.9,10.92a3.19,3.19,0,0,0-1.07-2.25.35.35,0,0,0-.52-.07,2.79,2.79,0,0,0-1.54,2.22,1.59,1.59,0,0,0,.64,1.61,1.47,1.47,0,0,0,1.55,0A1.58,1.58,0,0,0,46.9,10.92Zm-34,30.34A8.58,8.58,0,0,0,13.93,41c1-.38,1.93-.87,2.1-2.08a1.22,1.22,0,0,0-.34-1.16.92.92,0,0,0-1-.13,2.43,2.43,0,0,0-.8.53A4.56,4.56,0,0,0,12.85,41.26Z"/><path d="M83.48,0a11.71,11.71,0,0,1,1.34.45A7.31,7.31,0,0,1,87.66,3.1a19,19,0,0,1,2.77,6.56c.34,1.49.59,3,.81,4.53.19,1.32.29,2.65.4,4,.25,3,.3,6.05.26,9.08,0,2.12-.12,4.24-.2,6.35,0,1.11-.12,2.22-.19,3.33s-.17,2.3-.27,3.45c-.14,1.54-.3,3.07-.46,4.61-.06.6-.13,1.21-.2,1.82a.58.58,0,0,0,0,.26A41.14,41.14,0,0,0,94.42,55a8,8,0,0,0,1.23,1.43c.77.72,1.34.52,1.91-.24a5.37,5.37,0,0,0,.84-2.35A26.24,26.24,0,0,0,98.6,49a3.56,3.56,0,0,1,0-.66l.19.27a13.4,13.4,0,0,1,1.43,4.08,20,20,0,0,1,.33,4.64,14.62,14.62,0,0,1-.79,4.45,3.14,3.14,0,0,1-2.72,2,4.47,4.47,0,0,1-3.55-1.21,17.41,17.41,0,0,1-3.87-4.71,57.38,57.38,0,0,1-4.56-9.64,131.36,131.36,0,0,1-4.12-12.84c-.74-2.79-1.45-5.59-2.09-8.41-.52-2.29-1-4.6-1.36-6.92-.28-1.52-.49-3-.67-4.59a33.49,33.49,0,0,1-.27-6.33,12.64,12.64,0,0,1,2.33-6.81A5.69,5.69,0,0,1,82,.1l.41-.1Zm5.28,42.64h.07a2,2,0,0,0,.06-.23c.1-.89.2-1.78.28-2.67.1-1.09.19-2.17.27-3.25.1-1.31.24-2.62.24-3.93,0-2.46,0-4.93-.12-7.39-.1-2-.32-4-.53-6-.15-1.44-.38-2.87-.6-4.31s-.41-2.75-.68-4.12-.53-2.5-.86-3.73a6.89,6.89,0,0,0-1.17-2.55,1,1,0,0,0-1.5-.27A2.59,2.59,0,0,0,83.5,5a15.18,15.18,0,0,0-1.56,6.42,30.71,30.71,0,0,0,.54,6.9c.34,1.72.68,3.44,1.1,5.14q1.48,5.91,3.06,11.78C87.3,37.74,88.05,40.18,88.76,42.64Z"/><path d="M52.58,29.57a4.19,4.19,0,0,1,6.53,3c.35-.29.69-.58,1-.85a6.32,6.32,0,0,1,3-1.35,4.31,4.31,0,0,1,4,1.65,7.12,7.12,0,0,1,1.53,3.65,17.71,17.71,0,0,1,.2,2.52,19.9,19.9,0,0,1-.47,4.28A13.12,13.12,0,0,0,68.23,44l-.3,3.42c-.06.73-.12,1.46-.16,2.19-.09,1.31-.18,2.62-.26,3.93,0,.69-.08,1.38-.08,2.07,0,1.47,0,2.94.08,4.41a19.08,19.08,0,0,0,.39,2.48,1.61,1.61,0,0,0,2.62.78,6.76,6.76,0,0,0,1.27-1.68c0,.25-.05.5-.08.75a4.74,4.74,0,0,1-.15.75c-.23.74-.46,1.49-.74,2.22a4.08,4.08,0,0,1-1.54,1.8A6.06,6.06,0,0,1,66,68.29,4,4,0,0,1,62.09,66a7.77,7.77,0,0,1-.88-3.4c0-.72-.09-1.43-.06-2.14.08-1.44.14-2.89.33-4.32.33-2.4.73-4.78,1.14-7.17.21-1.21.53-2.41.78-3.62.3-1.38.63-2.75.85-4.14a7.26,7.26,0,0,0-.44-4.34,3.45,3.45,0,0,0-.7-.92,1.1,1.1,0,0,0-1.51,0,4,4,0,0,0-1.25,1.93c-.33,1-.57,2.09-.85,3.13-.41,1.5-.83,3-1.23,4.51C57.15,49.77,56,54,54.92,58.25c-.54,2.09-1,4.22-1.42,6.33A1.73,1.73,0,0,1,51.37,66c-.55-.13-1.1-.24-1.66-.35a1.53,1.53,0,0,1-1.27-1.59,11.09,11.09,0,0,1,.62-4.31c.77-2.48,1.62-4.94,2.4-7.42A92.88,92.88,0,0,0,54.19,42c.27-1.39.56-2.77.76-4.17a6.23,6.23,0,0,0-.56-3.91,1.51,1.51,0,0,0-1.62-.86,1.48,1.48,0,0,0-1.25,1.13l-5.25,17.2Q44.62,56.78,43,62.19a1.64,1.64,0,0,1-2.22,1.12l-2.06-.73a1.67,1.67,0,0,1-1.11-2.22q1.53-5,3.08-10L45.5,34.65c.66-2.13,1.32-4.25,2-6.38.07-.24.16-.36.43-.31,1.08.17,2.17.29,3.24.49A2.21,2.21,0,0,1,52.58,29.57Z"/><path d="M84.42,54.47a6.45,6.45,0,0,1,1.68,3.87,13,13,0,0,1-.89,6,8.79,8.79,0,0,1-2.28,3.51,5,5,0,0,1-3.09,1.32,3.33,3.33,0,0,1-2.44-.88,9,9,0,0,1-2.33-3.4,31.58,31.58,0,0,1-1.95-6.31c-.31-1.51-.6-3-.85-4.55-.16-1-.24-2-.36-3s-.23-2-.32-3c-.11-1.15-.18-2.3-.26-3.45s-.19-2.53-.27-3.8c0-.64-.07-1.29-.08-1.94,0-1.63-.08-3.27-.08-4.91a10.36,10.36,0,0,1,.16-2.08,1.56,1.56,0,0,1,1.57-1.28,9.74,9.74,0,0,1,1.62,0,2.51,2.51,0,0,1,2.07,1.75,7.9,7.9,0,0,1,.43,3.54c-.1,1.35-.25,2.7-.36,4a76.17,76.17,0,0,0-.06,8.68c0,1.13.09,2.27.21,3.39a22.84,22.84,0,0,0,1.54,6.87A6,6,0,0,0,79,60.36a2,2,0,0,0,2.65.48,4.2,4.2,0,0,0,2.16-2.58,11.14,11.14,0,0,0,.6-3.39C84.43,54.74,84.42,54.62,84.42,54.47Z"/><path d="M73.17,29.57a2.2,2.2,0,0,1,0-4.4,2.2,2.2,0,1,1,0,4.4Z"/></svg>