<svg xmlns="http://www.w3.org/2000/svg" viewBox="0 0 142.97 140.22"><title>graphic4</title><path d="M143,4c-.11,0-.23.15-.34.14s-.2-.13-.3-.2c.07-.08.14-.21.23-.24a1.45,1.45,0,0,1,.41,0Z"/><path d="M61.47,110.78c-1-.3-2.07-.56-3.08-.91s-2.16-.8-3.2-1.28c-1.27-.57-2.51-1.19-3.74-1.84a36.68,36.68,0,0,1-3.92-2.51,42.15,42.15,0,0,1-4.75-4,33.73,33.73,0,0,1-2.55-2.79c-.85-1-1.67-2.1-2.42-3.21s-1.53-2.37-2.21-3.62-1.3-2.63-1.91-4c-.27-.59-.46-1.21-.67-1.82-.26-.77-.53-1.55-.77-2.33-.18-.59-.32-1.19-.45-1.79-.27-1.22-.56-2.43-.74-3.67s-.23-2.46-.31-3.69c-.05-.79-.06-1.59-.07-2.38,0-.25.05-.51,0-.76s-.09-.48-.14-.75a4.44,4.44,0,0,0,.16-.63c.09-.85.16-1.7.25-2.55s.19-1.67.34-2.49.29-1.39.47-2.08c.3-1.14.57-2.3.95-3.41a42.92,42.92,0,0,1,3.35-7.41,40.69,40.69,0,0,1,4.42-6.24,41.06,41.06,0,0,1,11.33-9.19c1.35-.74,2.77-1.38,4.18-2,.86-.38,1.78-.64,2.67-.94s1.65-.55,2.49-.78c.66-.18,1.35-.28,2-.44a36.35,36.35,0,0,1,4.27-.64c.6-.06,1.2-.09,1.8-.12s1.14-.06,1.71-.06c1.18,0,2.35,0,3.53.07.6,0,1.19.15,1.79.23a1,1,0,0,0,.23,0A3.76,3.76,0,0,1,78,31c.51.12,1,.18,1.53.3,1.34.31,2.69.57,4,1s2.78,1,4.15,1.57a31,31,0,0,1,4.55,2.33c1.2.74,2.39,1.52,3.53,2.36a38.7,38.7,0,0,1,5.59,5c.61.66,1.24,1.3,1.78,2,.83,1.09,1.6,2.22,2.37,3.34a33.89,33.89,0,0,1,2.78,5c.58,1.24,1.06,2.53,1.53,3.81a33.12,33.12,0,0,1,1,3.34c.3,1.17.51,2.37.72,3.57s.31,2.2.46,3.29a1.28,1.28,0,0,1,0,.19c0,1.15.07,2.29.07,3.43,0,.94,0,1.88-.07,2.81,0,.59-.15,1.17-.22,1.75-.12.84-.21,1.69-.36,2.53s-.29,1.39-.47,2.08c-.27,1-.53,2.08-.88,3.09-.47,1.38-1,2.77-1.55,4.11a38.24,38.24,0,0,1-2.71,5,42.08,42.08,0,0,1-3.53,4.78,37.8,37.8,0,0,1-5.78,5.53c-1.28,1-2.62,1.89-4,2.84l.2.28a1.57,1.57,0,0,1-1.56.48c-1,.5-2,1-3.06,1.5-.79.36-1.6.66-2.41,1s-1.41.55-2.13.77-1.57.45-2.37.65-1.41.34-2.12.48-1.46.27-2.2.37-1.29.14-1.94.21c-.33,0-.66.07-1,.08-.73,0-1.46.07-2.19.07-1.19,0-2.38,0-3.57-.08-.59,0-1.17-.14-1.75-.21L64,111.33a7.39,7.39,0,0,1-.93-.22c-.24-.08-.43-.09-.56.17,0,0,0,0-.06.07a.64.64,0,0,1-.72.24C61.54,111.51,61.41,111.12,61.47,110.78Zm4.81-65.86a1,1,0,0,0,.76-.65c.12-.25,0-.42-.18-.58a.32.32,0,0,0-.49.09,5.27,5.27,0,0,0-.4.64.29.29,0,0,0-.12.47,2,2,0,0,0,.54.42s.13-.11.21-.18Zm19,14.77a1.25,1.25,0,0,0-.23.23c-.49.85-1,1.68-1.44,2.55A10.14,10.14,0,0,0,83,64a.93.93,0,0,0,0,.4l.16,0c.15-.34.29-.67.44-1,.36-.8.72-1.6,1.09-2.4.2-.44.65-.79.49-1.36.12,0,.3.06.35,0a2.3,2.3,0,0,0,.74-1.26A4,4,0,0,0,85.25,59.69ZM41.08,52.34a6.7,6.7,0,0,0,.85-2c.16-.58.16-.69-.29-1.08a3.17,3.17,0,0,1-.5.47,3.68,3.68,0,0,0-1.31,1.46.78.78,0,0,0,.12.93.7.7,0,0,0,.85.22.81.81,0,0,1,.27,0,1.35,1.35,0,0,1-1,.74c-.46.14-.7-.2-.93-.61a2.77,2.77,0,0,0,.4,1.72,1.09,1.09,0,0,0,1.26.54,2.15,2.15,0,0,0,.77-.66c.43-.72.79-1.48,1.17-2.22.09-.19.15-.39.24-.64a1.28,1.28,0,0,0-.27.05c-.43.31-.86.64-1.3.95A1.52,1.52,0,0,1,41.08,52.34Zm-.27,20.33-.32-.39a6.58,6.58,0,0,1-.4-2.56c0-.77.06-1.54.1-2.32a9.49,9.49,0,0,0-.31,1.82,22.62,22.62,0,0,0,0,3.08c0,.56.13,1.3,1,1.33l0,.12-.58.12a1.88,1.88,0,0,0,3.28,0c.16-.25.28-.5.64-.47a1.49,1.49,0,0,1-.13-1.17,5,5,0,0,0,0-.67c0-.65,0-.65-.76-.87l.24.48c-.18.26-.37.51-.53.78a1.81,1.81,0,0,1-1.31.91A2.17,2.17,0,0,1,41,72.7.58.58,0,0,0,40.81,72.67ZM69.4,66.1a3.68,3.68,0,0,1,0-.47c.1-.76-.27-1-1-1.21a6.26,6.26,0,0,0-1.5-.14,15.4,15.4,0,0,0-1.8.13,1.89,1.89,0,0,0-1.21.59c-.19.24-.39.48-.57.73a3.49,3.49,0,0,0-.48.68,15,15,0,0,0-.53,1.41.35.35,0,0,0,.06.3,2,2,0,0,0,1.3.7,4.48,4.48,0,0,0,1.49-.18,9.12,9.12,0,0,0,2.31-.94c.25-.18.52-.33.79-.49a2.51,2.51,0,0,1-1.16.93,18.57,18.57,0,0,1-1.78.8,5.49,5.49,0,0,0,2.89-1.09,4.44,4.44,0,0,0,1.29-1.47C69.6,66.22,69.64,66.11,69.4,66.1ZM42.79,86.4a2.77,2.77,0,0,0-.53.43c-.16.19-.21.21-.37,0a11.59,11.59,0,0,1-1.67-3.38c-.39-1.18-.63-2.41-1-3.69l.07.59a19.73,19.73,0,0,1,.32,2.16,14.27,14.27,0,0,0,.29,2.59A8.73,8.73,0,0,0,41,87.86c.38.62.85,1.18,1.23,1.81a11.65,11.65,0,0,0,3.51,3.75,2.05,2.05,0,0,0,2.93-.56A3.9,3.9,0,0,0,49.24,91,14.31,14.31,0,0,0,49,87.52a19.69,19.69,0,0,0-.49-2.12c-.24-.87-.47-1.74-.79-2.58s-.8-1.91-1.2-2.87l-.33-.72a8.1,8.1,0,0,0,.3,1.4c.13.52.27,1,.35,1.57.11.69.2,1.38.25,2.08a5.69,5.69,0,0,1-.56,3,1.84,1.84,0,0,1-1,.91,2.76,2.76,0,0,1-3.19-.86l.47-.88a1,1,0,0,1,.3.07,2,2,0,0,0,2.61-.67c0-.09.07-.2.15-.39a5.08,5.08,0,0,1-1.63.76,4.14,4.14,0,0,1-1.74-.39ZM93,38l-.13.15c.15.15.29.3.43.46.39.48,1,.77,1.08,1.49a.11.11,0,0,0,.05.08c.33.15.31.42.29.71s.14.37.41.41a1.1,1.1,0,0,1,.82.39,25.07,25.07,0,0,1,2.68,4.83,17.26,17.26,0,0,1,.59,1.89,1.22,1.22,0,0,0,.39.73,4.18,4.18,0,0,1,1.42,2c.15.38.34.75.45,1.14a9.08,9.08,0,0,1,.35,1.61,2.35,2.35,0,0,1-.16,1.11,1.72,1.72,0,0,0-.16,1c.16,1,.37,2,.53,3a6.31,6.31,0,0,1,0,.87c-.39-.68-.15-1.52-.66-2.15a1.43,1.43,0,0,0-.07.46,21.66,21.66,0,0,1-.37,5.39.65.65,0,0,0,.24.77,1.23,1.23,0,0,0,.53-1c.07-.53.09-1.07.13-1.61s.07-1,.11-1.42h.1a5.39,5.39,0,0,1,.1.88c0,1.18,0,2.35-.07,3.52,0,.23,0,.36.27.43a3,3,0,0,1,1.74,1.63,8.87,8.87,0,0,1,.72,1.94,8.41,8.41,0,0,1,.53,2.2c0,.25,0,.51,0,.76a4.2,4.2,0,0,1-.24,2.18,12.59,12.59,0,0,1-2.18,3.64,4.19,4.19,0,0,1-2.61,1.4A3.68,3.68,0,0,1,98,78.43c-.06.08-.1.15-.14.21-.62,1-1.23,1.91-1.87,2.85-.3.45-.33.44,0,.85A8.3,8.3,0,0,1,97.19,85a11,11,0,0,1,.44,2.9,9.66,9.66,0,0,1-.36,3.38,3.49,3.49,0,0,1-3,2.53.89.89,0,0,1-.81-.21,6.28,6.28,0,0,0,2.72-3,6.5,6.5,0,0,0,.33-3.78A4.27,4.27,0,0,0,95.7,85a3.18,3.18,0,0,0-3.33-1.65,4.4,4.4,0,0,0-2.59,1.38,5.21,5.21,0,0,0-1.55,2.73.78.78,0,0,1,0,.14,3.62,3.62,0,0,0,0,2.87,4.2,4.2,0,0,0,1.67,2.24c.31.21.64.4,1,.61a4.33,4.33,0,0,1-4.32-2.6c-.52.36-1,.73-1.54,1-1.36.83-2.72,1.65-4.1,2.43-.78.44-1.61.8-2.41,1.2-.39.19-.44.3-.28.72A3.25,3.25,0,0,1,78,98.78a3.44,3.44,0,0,1-1.58,1.66,6.78,6.78,0,0,1-2.62.57A3.58,3.58,0,0,1,71,99.82c-.43-.45-.8-1-1.21-1.45l-4.54.72c0,.19-.07.4-.13.59a5,5,0,0,1-.28.57c-.49-.1-.67,0-.54.35s0,.43-.21.58-.26.24-.4.34a5.06,5.06,0,0,1-2.3,1.06,1.26,1.26,0,0,1-.38,0,7.27,7.27,0,0,1,.68-.29,6.25,6.25,0,0,0,2.69-2.6,3.86,3.86,0,0,0,.51-1.81,3.14,3.14,0,0,0-1.58-2.79A10.49,10.49,0,0,0,60,93.51a5,5,0,0,0-3.81.4,2.75,2.75,0,0,0-1.55,2,7.75,7.75,0,0,0-.12,2.5,3,3,0,0,0,1,1.9c.27.23.55.44.83.64s.83.61,1.32,1a1.5,1.5,0,0,1-.39,0,14.1,14.1,0,0,1-1.43-.33,3.28,3.28,0,0,1-2.51-3.13c0-.33-.14-.47-.45-.54-.59-.14-1.17-.29-1.74-.46-.82-.25-1.62-.52-2.43-.78a11.52,11.52,0,0,1-1.29-.44c-.7-.3-1.38-.63-2.06-1s-1.6-.81-2.37-1.27a23.65,23.65,0,0,1-5.29-4.43,25.2,25.2,0,0,1-2.5-3.24l-1.06-1.67-.09.05c.33.78.67,1.55,1,2.34a32.13,32.13,0,0,0,2.2,4.34,40.44,40.44,0,0,0,3.87,5.42,34.11,34.11,0,0,0,5.07,5c1.34,1.06,2.73,2.07,4.17,3a31.32,31.32,0,0,0,3.76,2.09c1.44.68,2.93,1.25,4.42,1.79,1.16.42,2.34.76,3.53,1.07.37.1.75.1.88.43a2.74,2.74,0,0,1,.82-.08c.61.13,1.24.2,1.85.31a33.18,33.18,0,0,0,4.55.42,41.83,41.83,0,0,0,4.61-.14c1.66-.14,3.3-.41,4.93-.71.6-.11,1.19-.3,1.78-.47.86-.23,1.72-.42,2.55-.73,1.3-.47,2.58-1,3.86-1.54a29.69,29.69,0,0,0,5-2.72A49,49,0,0,0,97,101.49c1.17-1,2.22-2.07,3.31-3.13.4-.39.76-.81,1.13-1.2l.11,0,.28.09a1.34,1.34,0,0,1-.07-.27.54.54,0,0,1,0-.31c.09-.14.24-.24.34-.38.79-1.06,1.62-2.1,2.35-3.2s1.26-2,1.83-3.09,1-2,1.46-3,1-2.27,1.34-3.43.66-2.31.92-3.48c.29-1.34.52-2.69.74-4,.09-.53,0-1.08.13-1.61A31.67,31.67,0,0,0,111,69c0-.41-.25-.85.11-1.22,0,0,0-.17-.07-.24s-.1-.11-.11-.16c-.21-1.24-.41-2.49-.64-3.72-.2-1-.44-2.07-.68-3.1-.08-.31-.27-.61,0-.84a3.34,3.34,0,0,1-.47-.61c-.53-1.38-1-2.79-1.58-4.15-.47-1.1-1.06-2.16-1.63-3.21-.41-.74-.86-1.46-1.32-2.18s-.87-1.24-1.29-1.86c-.12-.18-.15-.51-.29-.56-.47-.18-.66-.6-.92-.93A27.59,27.59,0,0,0,98,41.82c-1.3-1.08-2.63-2.12-4-3.16C93.72,38.4,93.35,38.2,93,38ZM78.22,66.35c0-.09,0-.17,0-.21s-.12-.27-.21-.3a.33.33,0,0,0-.45.24.4.4,0,0,0,.18.33,11.65,11.65,0,0,0,1.1.73c.66.37,1.36.68,2,1.08a11.32,11.32,0,0,0,8.26,1.29,6.23,6.23,0,0,0,3.52-2.32,6.5,6.5,0,0,0,1.21-3.29,8.55,8.55,0,0,0-.38-3.37,6.93,6.93,0,0,0-1.54-3,27.29,27.29,0,0,0-2.42-2.26,11.8,11.8,0,0,0-1.74-1.22c-.65-.38-1.33-.71-2-1a2.66,2.66,0,0,0-2.15-.18l.94.27a4.91,4.91,0,0,1,3.24,2.83c.36.82.73,1.65,1,2.5a26.43,26.43,0,0,1,.92,3,6,6,0,0,1,0,2.69,2.79,2.79,0,0,1-1.5,2.06,8.6,8.6,0,0,1-1.28.48,5.53,5.53,0,0,1-1.18.3c-.88.08-1.77.11-2.66.14A11.26,11.26,0,0,1,78.22,66.35ZM45.54,50.89s0,0,0,0a9.78,9.78,0,0,0,2.56,3,8.4,8.4,0,0,0,3.63,1.61,8.79,8.79,0,0,0,3.72-.22,12,12,0,0,0,1.9-.69,12.66,12.66,0,0,0,4.16-2.76,6.35,6.35,0,0,0,2-5,6.87,6.87,0,0,0-.71-2.73,7,7,0,0,0-2.49-2.85,1.09,1.09,0,0,0-.94-.17c.28.61.55,1.19.8,1.78a5.5,5.5,0,0,1,.38,3.12,5.69,5.69,0,0,1-1.8,3.26,11.46,11.46,0,0,1-3.36,2.15,12.76,12.76,0,0,1-2.59.88,9.12,9.12,0,0,1-3.17.14,7.33,7.33,0,0,1-2.18-.59ZM84.4,80.59a9.34,9.34,0,0,0-.23.91,4.07,4.07,0,0,1-1.47,2.4,10.25,10.25,0,0,1-2.52,1.65,14.12,14.12,0,0,1-2.09.86c-.74.22-1.51.34-2.27.5a5,5,0,0,1-3.51-.65,10.45,10.45,0,0,1-1.18-1,4,4,0,0,0,.12.45,11.65,11.65,0,0,0,1.65,2.81,6.12,6.12,0,0,0,6.4,2.33,8.17,8.17,0,0,0,3.5-1.61A6,6,0,0,0,85,85a10.3,10.3,0,0,0-.22-2.93C84.72,81.59,84.55,81.12,84.4,80.59Zm-2.32-1.28-.61-.43a6.41,6.41,0,0,0-4.65-1.34,5.44,5.44,0,0,0-2.47,1,8.33,8.33,0,0,0-2.88,4.33.36.36,0,0,0,0,.23,10.81,10.81,0,0,0,.6,1.53,1.5,1.5,0,0,0,1.46.89c.38,0,.76,0,1.14,0a.89.89,0,0,0,.46-.1A17.5,17.5,0,0,0,77,84.27C78,83.56,79,82.79,79.9,82c.43-.34.85-.72,1.25-1.09s.44-.89-.13-1.22a4.56,4.56,0,0,0-.55-.24A1.81,1.81,0,0,1,82.08,79.31ZM48.73,50.22A19.19,19.19,0,0,1,56,44.81c-.11-.39,0-.65.35-.75s.32.28.41.43l2.94-.64c0-.07,0-.13-.06-.16a6.42,6.42,0,0,0-4.79-2.51,6.25,6.25,0,0,0-3.16.68A8.22,8.22,0,0,0,47.33,47a2.82,2.82,0,0,0,.5,2.54l.44-.11C48,50,48.43,50,48.73,50.22Zm55.11,18.15a3.3,3.3,0,0,0-.29-.51,2.55,2.55,0,0,0-1.74-.93,2.39,2.39,0,0,0-2.58,1.26,7.1,7.1,0,0,0-.86,3.46,26.56,26.56,0,0,0,0,4.37A2,2,0,0,0,99,77.37c.53-.31.7-1,1.28-1.24a3.34,3.34,0,0,0,.07.82.94.94,0,0,0,.4.48c.08,0,.33-.06.42-.17a5.34,5.34,0,0,0,.7-.94,18.5,18.5,0,0,0,1.46-3.2,7.54,7.54,0,0,0,.63-4.23l-.32-.12ZM51.45,80.26a5.54,5.54,0,0,0,.09,2.86,7.21,7.21,0,0,0,1.11,2.5,5.09,5.09,0,0,0,2.52,2.06,3.27,3.27,0,0,0,2.09-.12,2.49,2.49,0,0,0,1.55-2.06A22.6,22.6,0,0,1,59,83.18,5.18,5.18,0,0,0,58.74,81a7.63,7.63,0,0,0-.39-.75c-.45.18-.33-.25-.39-.41-.14-.41-.18-.87-.33-1.27a1.79,1.79,0,0,0-1.28-1.23,4.51,4.51,0,0,1,.85,2,4.23,4.23,0,0,1-.49,2.56,3.59,3.59,0,0,1-2.1,1.8,1.74,1.74,0,0,1-2.43-.77,6.77,6.77,0,0,1-.54-1.55A10.06,10.06,0,0,1,51.45,80.26ZM84.68,55.37a5.8,5.8,0,0,0-3.24.23,5.11,5.11,0,0,0-3.12,3,13.79,13.79,0,0,0-.62,1.88,4.36,4.36,0,0,0,.66,3.8,3.84,3.84,0,0,0,1.87,1.38c.2-.82.39-1.6.57-2.38.12-.51.2-1,.36-1.52.35-1,.69-2.06,1.12-3.06a10.65,10.65,0,0,1,1.12-2A12.15,12.15,0,0,1,84.68,55.37Zm-39,27.12a15,15,0,0,0-1.3-3.69,2.28,2.28,0,0,0-1.29-1.31,2.16,2.16,0,0,0-1.16.08,1.65,1.65,0,0,0-1.38,1.71,10.57,10.57,0,0,0,.37,2.81,12,12,0,0,0,.57,1.85,2.31,2.31,0,0,0,1.47,1.7,2.16,2.16,0,0,0,2.71-1.17,10.6,10.6,0,0,1,.45-1.16c-.2-.15-.42-.3-.31-.57a1.39,1.39,0,0,0,.39-.32s-.08-.14-.13-.21ZM91.8,41.67c-.17-.08-.25-.13-.34-.16a1.73,1.73,0,0,1-1.1-.85,2.07,2.07,0,0,0-2-1.18,8.11,8.11,0,0,0-2,.27,2.24,2.24,0,0,0-1.61,1.82A5.2,5.2,0,0,0,85,43.72c.14.54.51.64,1,.34a1,1,0,0,0,1.27.31c.14,0,.4-.06.44,0,.24.42.61.31.94.29l.3,1,.75-.64,1.9-1.64c.2-.17.21-.3,0-.43l-.26-.16Zm-18,58.6a10.53,10.53,0,0,0,1.41-.22,2.81,2.81,0,0,0,1.85-3.84,2.46,2.46,0,0,0-1.59-1.45,4.09,4.09,0,0,0-3.33.68,3.64,3.64,0,0,0-1.28,1.72,2,2,0,0,0,1,2.69A5.89,5.89,0,0,0,73.83,100.27ZM84,43.91a2,2,0,0,0,.1.26,12,12,0,0,0,2.58,3.51,9.61,9.61,0,0,0,3.87,2.43,2.73,2.73,0,0,0,2.9-1,14.64,14.64,0,0,0,.89-1.77,3.09,3.09,0,0,0,0-2.18A3.36,3.36,0,0,1,94.09,44c0-.06-.11-.13-.18-.2a1.14,1.14,0,0,1-.19-.19c-.3-.44-.58-.9-.89-1.34s-.45-.57-.72-.9c.23.61.46,1.15.63,1.69a3.73,3.73,0,0,1,0,2.55,3.57,3.57,0,0,1-3.36,2.11,5,5,0,0,1-2.47-1A18.47,18.47,0,0,1,84,43.91ZM61.74,69.29A1.34,1.34,0,0,0,62,70.43a22.71,22.71,0,0,0,1.77,1.89,3.75,3.75,0,0,0,3.9.9,4.87,4.87,0,0,0,2.75-2,2.53,2.53,0,0,0,.47-2,7.09,7.09,0,0,1-.17-1.45c0-.48-.14-1-.21-1.43h-.11a.7.7,0,0,0-.08.27A7.41,7.41,0,0,1,70,68.49a1.32,1.32,0,0,1-.89,1.07,9.57,9.57,0,0,1-4,.85c-.46,0-.92,0-1.38,0A2.56,2.56,0,0,1,61.74,69.29Zm39.69-15.42a1.41,1.41,0,0,0-.31-1,6.28,6.28,0,0,1-.53-1.51,2,2,0,0,0-1.35-1.56,1,1,0,0,1-.23-.15.76.76,0,0,0-1,.12,2.65,2.65,0,0,0-.54,2.31c.06.43.24.85.3,1.29a3.42,3.42,0,0,0,1.13,2,1.49,1.49,0,0,0,2.06,0A1.76,1.76,0,0,0,101.43,53.87Zm-21.6-13a2.23,2.23,0,0,0-.21-.25,4.47,4.47,0,0,0-3.42-1.49,4.74,4.74,0,0,0-3.31,1.17,6,6,0,0,0-.78.89.45.45,0,0,0,0,.39c0,.08.23.09.36.12l.37.12a3.14,3.14,0,0,0,.56.2,5.5,5.5,0,0,0,.7,0c.31.48.46.55.94.43a9.13,9.13,0,0,0,2.17-.9,4.2,4.2,0,0,1,2.33-.68C79.58,40.87,79.68,40.85,79.83,40.85ZM90.32,74.71v.13c-.36-.22-.4,0-.47.22a2.22,2.22,0,0,1-.35.8,4.16,4.16,0,0,1-2,1.27,2.09,2.09,0,0,1-2.24-.39c-.22-.2-.42-.42-.65-.66a1.89,1.89,0,0,0,.71,2,4.07,4.07,0,0,0,2.83,1.22,2.35,2.35,0,0,0,1.73-.59A3.9,3.9,0,0,0,91,77a2.8,2.8,0,0,0-.12-2.43,2.2,2.2,0,0,0-1.29-1ZM54.87,60.87l-.11,0a4.56,4.56,0,0,1-.64,1.51,6.21,6.21,0,0,1-2,1.46,4.84,4.84,0,0,1-1.92.63,1.65,1.65,0,0,1-1.41-.51,1.12,1.12,0,0,0-.22-.17,3.5,3.5,0,0,0,2.87,2.95,2.11,2.11,0,0,0,2.22-.84,4.48,4.48,0,0,0,.8-1.85C54.66,63,54.74,61.92,54.87,60.87Zm8.74,21.26a.88.88,0,0,0-.18.1c-.48.46-.79.3-1-.31-.13-.4-.18-.82-.27-1.22,0,0,0,0,0,0a6.17,6.17,0,0,0,.27,3.63,1.77,1.77,0,0,0,1,1.07,2.65,2.65,0,0,0,2.6-.37,3.1,3.1,0,0,0,1-2.39c0-.31,0-.62,0-.93l-.11,0a2,2,0,0,1-1.54.91A1.64,1.64,0,0,1,63.61,82.13Zm13-30.88A1.48,1.48,0,0,0,78,52.31c1.69.16,2.38-.5,2.76-1.57a1.7,1.7,0,0,0-.29-1.86c-.5.63-.5.63-.78.55a2,2,0,0,0-.11-.64,1.68,1.68,0,0,0-2.06-.6,1.84,1.84,0,0,0-.65,2.6,4.64,4.64,0,0,1,2.69-1.24c0,.71-.62.73-1,1.12l-.08-.62c-.15.06-.35.1-.35.13a3.26,3.26,0,0,0,.14.62ZM80.33,41c-.07.05-.1.07-.11.09a1.47,1.47,0,0,0-.1.22A4.47,4.47,0,0,1,77,43.89a4.17,4.17,0,0,1-2.3-.17A11.58,11.58,0,0,1,73,42.86l-.54-.26a1,1,0,0,0,0,.22,5.36,5.36,0,0,0,3.42,2.69A3.46,3.46,0,0,0,78,45.34a4,4,0,0,0,2.08-1.83A2.69,2.69,0,0,0,80.33,41ZM67.53,54.13c0,.18-.07.27,0,.34a5,5,0,0,0,.26.86,2.73,2.73,0,0,0,1.4,1.53A2.51,2.51,0,0,0,72,56.12,9.36,9.36,0,0,0,73.33,54c.16-.31,0-.42-.29-.47a2.53,2.53,0,0,0-.66-1.74c-.14.39-.23.71-.37,1a4.65,4.65,0,0,1-1.28,1.79A2.2,2.2,0,0,1,68,54.47,3,3,0,0,0,67.53,54.13Zm-13.29,24,.12-.19c.11-.17.3-.33.11-.54s-.46-.12-.65,0a8.16,8.16,0,0,0-1,.85,2.33,2.33,0,0,0-.72,2,3.14,3.14,0,0,0,1.46,2.23c.3.18.4.17.55-.16.47-1,.94-1.93,1.37-2.91a1,1,0,0,0-.61-1.39A2.54,2.54,0,0,0,54.24,78.12Zm31.09-22-.13-.06a1.5,1.5,0,0,0-.25.19c-.64.76-1.32,1.49-1.91,2.29a9.6,9.6,0,0,0-1.82,4.11c-.09.5,0,1-.48,1.4.35.5,0,1,0,1.48a1.81,1.81,0,0,0,.34-.4c.73-1.27,1.46-2.54,2.17-3.82A24.6,24.6,0,0,0,85,57.43,11.49,11.49,0,0,0,85.33,56.11Zm-29.65,13-.12,0c-.65,2-1.84,3.23-4.13,2.71a1.37,1.37,0,0,0,.48,1,2.69,2.69,0,0,0,2.22.74,3,3,0,0,0,1.19-.24c1.16-.58,1.48-1.7,1.75-2.87a1.18,1.18,0,0,1-1.16-1C55.89,69.29,55.76,69.19,55.68,69.09ZM53.8,60.56A1.94,1.94,0,0,0,52.27,59a3.43,3.43,0,0,0-2.67.89,2.23,2.23,0,0,0-.76,2.68c.2.4.37.45.7.17s.78-.64,1.18-.95A6.6,6.6,0,0,1,53.8,60.56ZM33.65,67.12a3.26,3.26,0,0,0,.64,1.69,1,1,0,0,0,1.2.28,3.22,3.22,0,0,0,.62-.42,5.45,5.45,0,0,0,1.46-2.18,7.88,7.88,0,0,0,.4-1.36,1.33,1.33,0,0,0-.24-1.22,1.3,1.3,0,0,1-.31-.72c0-.26-.07-.53-.1-.8s-.15-.32-.4-.24a1,1,0,0,0,0,.25,5.15,5.15,0,0,1,0,2.07c0,.4-.18.57-.58.53a6.74,6.74,0,0,1-.89,2.45c-.16.3-.37.39-.66.25S34.09,67.34,33.65,67.12Zm36.69,9.52v0a9.23,9.23,0,0,0,.94-.14,3.12,3.12,0,0,0,1.59-.79,1.35,1.35,0,0,0-.31-2.18c-.15-.09-.3-.18-.45,0a1.6,1.6,0,0,1-1.2.55,5.63,5.63,0,0,0-1.42.32,1,1,0,0,0-.58.62,2.05,2.05,0,0,0,.2,1.23c.12.21.58.23.9.32A1.2,1.2,0,0,0,70.34,76.64Zm-35.81,5a2.73,2.73,0,0,0,.1.38c.37.93.72,1.88,1.13,2.79A4.68,4.68,0,0,0,36.51,86a.61.61,0,0,0,1,.07.66.66,0,0,0,0-.87A1.45,1.45,0,0,1,37,84c0-.06,0-.12-.05-.18a6.46,6.46,0,0,0-1.47-2.66c-.15-.17-.28-.36-.56-.22A.63.63,0,0,0,34.53,81.65ZM67.16,60c0-.45-.06-.87-.06-1.29a.72.72,0,0,0-.34-.63,1.18,1.18,0,0,0-1.61.17,2.22,2.22,0,0,0-.58,1.87c0,.66.15.82,1,1.13a.92.92,0,0,0,1.12-.36c.17-.2.28-.46.63-.33.06,0,.18-.13.34-.25Zm1.43-5.84s.08-.06.09-.1a1.81,1.81,0,0,1,1.46-1.61c.37-.11.73-.25,1.13-.38,0-.13-.09-.2-.11-.27a1.65,1.65,0,0,0-2.49-.94,2,2,0,0,0-1,1.22A1.48,1.48,0,0,0,68.59,54.19Zm20.1,19.28a1.17,1.17,0,0,0-.26-.1,3.1,3.1,0,0,0-1.54.19,4.33,4.33,0,0,0-1.72,1.2.57.57,0,0,0-.07.66,3.09,3.09,0,0,0,1.09,1.15c.08.07.33,0,.45-.07a5.43,5.43,0,0,0,.69-.58l1.53-1.37,0-.14H87.33l0-.14ZM69.08,36.37c.21-.4.41-.79.62-1.17a.35.35,0,0,0-.11-.5.38.38,0,0,0-.55.08A4.1,4.1,0,0,1,66.24,36a1.78,1.78,0,0,1-1.56-.54,2.27,2.27,0,0,1-.27-.54c-.17.41-.19.64.06,1a3,3,0,0,0,2,1.3,2.81,2.81,0,0,0,2.15-.5s.08,0,.13,0a1.24,1.24,0,0,1-.49.52,4.25,4.25,0,0,1-.78.24,1.71,1.71,0,0,0,1.38-.29A.51.51,0,0,0,69.08,36.37Zm-.53,40.32a2.49,2.49,0,0,0,2.94,1.84,3,3,0,0,0,2.41-3,7,7,0,0,1-2.4,1.64A4.07,4.07,0,0,1,68.55,76.69Zm29.31-14.3.08.11c.11-.14.28-.27.32-.44A3.9,3.9,0,0,0,98,59.52a1.17,1.17,0,0,0-.38-.47,1,1,0,0,0-1-.08.68.68,0,0,0-.35.68,9.44,9.44,0,0,0,.17,1.6,3.9,3.9,0,0,0,.46,1c.09.16.21.18.4.13A1.62,1.62,0,0,1,97.86,62.39ZM41.74,70.55l-.07-.08s0-.13.08-.16a1.75,1.75,0,0,0,.73-1.9c0-.14,0-.28,0-.42a1.51,1.51,0,0,0-.55-1.1c-.18-.14-.32-.14-.44,0a3.78,3.78,0,0,0-.66,3.57.73.73,0,0,0,.71.51.71.71,0,0,0,.64-.69Zm24.44,9.79c0-.06-.06-.18,0-.25.15-.24,0-.41-.09-.6a1.2,1.2,0,0,0-1.25-.5,2.1,2.1,0,0,0-1.65.87c-.54.71-.26,1.41.06,2.12.06,0,.1,0,.11-.07.29-.52.57-1,1.3-1,.07,0,.14,0,.22-.08Zm-.11-44.91c.23-.11.66-.31,1.09-.47a1.31,1.31,0,0,0,.9-.9c.15-.53,0-.88-.53-.86a4.37,4.37,0,0,0-2.2.62.9.9,0,0,0-.43,1C65,35.22,65.35,35.43,66.07,35.43ZM77.88,84.19l0,.11.45.07A3.06,3.06,0,0,0,80,84a3.51,3.51,0,0,0,1.85-1.67.72.72,0,0,0-.28-1.07ZM36.3,64.28c0-.41-.1-.71-.12-1s0-.43-.27-.5a.42.42,0,0,0-.53.2c-.29.5-.59,1-.84,1.51a3.51,3.51,0,0,0-.29,1,.44.44,0,0,0,.57.5A2,2,0,0,0,36.3,64.28ZM64,93.36a3,3,0,0,1,.28.31,2,2,0,0,0,1,.84,2,2,0,0,0,1.94-.16,1,1,0,0,0,.38-1.29,2.44,2.44,0,0,1-1.9.9c-.86,0-1.26-.64-1.66-1.39l-.05.43c-.15-.11-.26-.2-.38-.27s-.23-.12-.38-.2l-.11.46-.41,0A1.55,1.55,0,0,0,63.58,94c.32.15.41.07.39-.3A3.34,3.34,0,0,1,64,93.36Zm12.64-23v.77a.55.55,0,0,0,.67.49,1,1,0,0,0,.68-.9.42.42,0,0,1,.14-.26A1,1,0,0,0,78,68.91c-.06,0-.13-.07-.17,0a3.25,3.25,0,0,0-.7.26A1.15,1.15,0,0,0,76.6,70.39Zm-5.44-6.21a.94.94,0,0,0,.46.92,1,1,0,0,0,.95,0,1.24,1.24,0,0,0,.58-1.43c-.06-.32-.16-.6-.51-.65C72.06,62.89,71,63.38,71.16,64.18Zm1.91,28.11c.49,0,.57-.07.62-.49a.71.71,0,0,1,0-.22c.21-.42.21-.44-.21-.57l-.26-.1c-.47-.16-.93-.33-1.4-.45-.24-.07-.56-.06-.65.23a.84.84,0,0,0,.07.7A3.87,3.87,0,0,0,73.07,92.29Zm-12-56.08a4.72,4.72,0,0,0-.58-.36,2.35,2.35,0,0,0-2.42,1,.76.76,0,0,0,0,.61c.11.21.36.15.56.07.6-.26,1.21-.52,1.8-.8A4.22,4.22,0,0,0,61.08,36.21Zm8.63,10.62c0,.19,0,.35,0,.51,0,.63.29.95.79,1a.73.73,0,0,0,.87-.7,1.74,1.74,0,0,0-.3-1,.88.88,0,0,0-1.27-.36c-.08,0-.2,0-.3.07a1.23,1.23,0,0,0-.25.14,1.31,1.31,0,0,0,.21.2A.54.54,0,0,0,69.71,46.83ZM78.4,35c-.42,0-.69.34-.5.63a2.54,2.54,0,0,0,1.73,1.2.73.73,0,0,0,.76-1,.72.72,0,0,0-1-.26c-.07,0-.26,0-.27-.09C79.06,35,78.63,35.15,78.4,35ZM65.15,91.62c-.17.11-.46.18-.53.35a.88.88,0,0,0,.13.9.81.81,0,0,0,.75.41.69.69,0,0,1,.57.11c.22.17.59,0,.73-.25a.48.48,0,0,0-.19-.71.42.42,0,0,1-.15-.11C66.22,91.78,65.65,91.86,65.15,91.62ZM35.28,58.48l.07,0c0,.14,0,.28,0,.42,0,.32.23.45.49.51s.42-.16.51-.39a3.41,3.41,0,0,0,.1-.46q.06-.32.15-.63c.13-.41.29-.8.41-1.21,0-.11-.06-.26-.09-.39-.16.05-.38.05-.46.15-.22.31-.24.78-.74.85,0,0,0,0,0,0C35.57,57.76,35.42,58.12,35.28,58.48ZM56.72,45.29c-2.29.2-5.3,2.59-6.33,3.92A49.25,49.25,0,0,1,56.72,45.29Zm7.76,4.25a.83.83,0,0,0-.13.12,9.37,9.37,0,0,1-3.09,3.14,3,3,0,0,0-.47.47A1.13,1.13,0,0,0,62,53.05a6.51,6.51,0,0,0,2.07-2.17A1.82,1.82,0,0,0,64.48,49.54ZM97.63,63.73a2.74,2.74,0,0,0,2-2.88c0-.28-.14-.55-.18-.83s-.45-.34-.45-.73c0-.17-.28-.46-.7-.45A4,4,0,0,1,99,61.42,3.88,3.88,0,0,1,97.63,63.73Zm-28.09,34,0-.12a2.68,2.68,0,0,0-.49,0c-1.09.12-2.17.24-3.25.4-.19,0-.48.22-.49.35,0,.31.28.31.53.33a6.82,6.82,0,0,0,2.33-.34A8.2,8.2,0,0,0,69.54,97.74ZM87.15,70.26c-1.14-.12-2.19-.17-3.23-.36s-2-.5-3.06-.76C81.71,70,86.24,71.15,87.15,70.26ZM58.37,63.78a13.57,13.57,0,0,0-.57-1.42c-.2-.39-.52-.34-.75.06A2.51,2.51,0,0,0,56.87,64c0,.29.53.55.88.51A.77.77,0,0,0,58.37,63.78ZM94.86,46.65c-.07.07-.11.09-.11.12s0,.22,0,.33a3.6,3.6,0,0,1-1.79,3c-.31.2-.6.41-.9.61l.07.1c1.14,0,1.79-.87,2.47-1.66a.71.71,0,0,0,.84-.09c0-.37-.38-.28-.62-.41A2.18,2.18,0,0,0,94.86,46.65ZM48.78,95.89l-.06.11a3.57,3.57,0,0,0,.49.38,8.87,8.87,0,0,0,2.77,1,1.31,1.31,0,0,0,1.38-.25,1.32,1.32,0,0,0-1.09-.39,8.15,8.15,0,0,1-2.34-.5C49.55,96.12,49.16,96,48.78,95.89Zm44.29-27a5.35,5.35,0,0,0,1.86-5.75C94.85,64.93,94.72,65.36,93.07,68.87ZM60.79,57.31l.09,0c-.16-.33-.3-.67-.47-1s-.32-.34-.56-.14-.55.37-.39.77a.42.42,0,0,1,0,.22c-.16.43.12.68.39.92s.37.29.59.14a.85.85,0,0,0,.37-.82ZM55.11,69.79a.8.8,0,0,0-.7-.44,6,6,0,0,0-1.11.19c-.61.18-.61.2-.58.81l-.58.12a3.75,3.75,0,0,0,.12.43,2.3,2.3,0,0,0,.21.33,1.57,1.57,0,0,0,.3-.2,3,3,0,0,1,1.87-1.1C54.78,69.9,54.92,69.85,55.11,69.79ZM86.35,36.18c.3,0,.53-.19.47-.47a1,1,0,0,0-.36-.5c-.53-.4-1.21-.28-1.82-.45a.33.33,0,0,0-.28.18.37.37,0,0,0,.07.33A3.69,3.69,0,0,0,86.35,36.18ZM87,80.08c.09.28.14.44.2.6a1,1,0,0,0,1.25.72A3.5,3.5,0,0,0,90,80.35s0,0,0,0A5.19,5.19,0,0,1,87,80.08Zm8.63-3.83a1,1,0,0,0-.69-.73c-.36-.15-.6-.13-.8.17a.89.89,0,0,0,0,1,.79.79,0,0,0,1.48-.46Zm-9.4-23.92c.22-.18.32-.33.46-.36s.4-.13.44-.37A.52.52,0,0,0,86.9,51c-.38-.23-.76-.46-1.14-.67a1.6,1.6,0,0,0-.37-.12,1.18,1.18,0,0,0-.1.39.74.74,0,0,0,.13.44c.25.28.53.53.8.79ZM76.06,32.67l0-.12c-.71-.75-3.18-1-3.82-.31.46.11,1-.08,1.24.43a2.9,2.9,0,0,1,.7-.16c.42,0,.84.11,1.26.15C75.66,32.68,75.86,32.67,76.06,32.67ZM53.44,91.4a2.61,2.61,0,0,0-.61.45.55.55,0,0,0,.11.76,1,1,0,0,0,1.26.18.56.56,0,0,0,0-1A3.85,3.85,0,0,0,53.44,91.4ZM64.13,60.33a1.59,1.59,0,0,0-.12.35,1.76,1.76,0,0,0,1.21,1.66,1.15,1.15,0,0,0,1.26-.26,1.87,1.87,0,0,0,.23-.47,2.55,2.55,0,0,0-.48,0c-1.07.19-1.5,0-1.91-.78C64.26,60.71,64.22,60.58,64.13,60.33ZM32.46,73.66l-.15,0s-.06.07-.06.11a5.24,5.24,0,0,0,.16,1.93c.06.21.06.44.11.65.1.41.19.83.32,1.22,0,.13.23.21.41.36a1.86,1.86,0,0,0-.09-1.14,7.64,7.64,0,0,1-.44-1.64A11.64,11.64,0,0,0,32.46,73.66Zm69.68,3c.22,0,.35,0,.4-.06a3.38,3.38,0,0,0,.59-.67,9.9,9.9,0,0,0,1.05-2.82.61.61,0,0,0-.12-.75A14.66,14.66,0,0,1,102.14,76.68ZM49.86,40.06a3.55,3.55,0,0,0,1.56-.9c.09-.09.18-.35.15-.37s-.38-.28-.51-.23a13.37,13.37,0,0,0-1.41.72c-.16.09-.33.27-.19.48A1.68,1.68,0,0,0,49.86,40.06ZM34.46,71.29h0a5.48,5.48,0,0,0,0-.81c0-.25-.27-.34-.39-.15a2.46,2.46,0,0,0-.67,1.57c0,.35.19.55.49.56a.58.58,0,0,0,.59-.56C34.47,71.7,34.46,71.49,34.46,71.29ZM60.85,55.47l0,.05a9.61,9.61,0,0,1,.51,1.63,12.18,12.18,0,0,1,0,1.8.84.84,0,0,0,.64-.75A2.57,2.57,0,0,0,61.38,56C61.22,55.83,61,55.65,60.85,55.47ZM77.21,36c-.06.45.24.55.4.74a2.43,2.43,0,0,0,2.21,1,.86.86,0,0,0,.73-.52A4.1,4.1,0,0,1,77.21,36ZM73.83,59.43c0-.36-.09-.71-.13-1.07s-.08-.47-.33-.43a.76.76,0,0,0-.47.37,1.69,1.69,0,0,0,0,1.25.46.46,0,0,0,.92-.12Zm9.4-18.87c.46.07.55-.33.69-.56a2.5,2.5,0,0,1,1.6-1.21l.4-.09A2,2,0,0,0,83.23,40.56ZM52.31,48.4l.16-.08a14.44,14.44,0,0,1,2.64-1.24c.17-.06.29-.26.51-.47a1,1,0,0,0,1-.25,3.59,3.59,0,0,0-2.22.51A6.72,6.72,0,0,0,52.31,48.4Zm-10,13.94a1,1,0,0,0,.31,1.09,1.1,1.1,0,0,0,1.2.17,1.35,1.35,0,0,0,.78-1.3l-.75.5C43.15,63.25,42.71,63.15,42.33,62.34ZM49.52,87.8a19.63,19.63,0,0,1,.14,2.34,18.61,18.61,0,0,1-.39,2.29C50.15,91.51,50.27,88.46,49.52,87.8Zm.73-32.26a14.79,14.79,0,0,1-3.32-2.27C47.47,54.59,49.19,55.72,50.25,55.54ZM79.56,93.26c0,.37.28.58.55.38a1.72,1.72,0,0,0,.83-1,.44.44,0,0,0-.51-.54A1.39,1.39,0,0,0,79.56,93.26ZM53.5,38.77c-.18.08-.32.12-.44.18-.37.17-.44.46-.17.76a1.27,1.27,0,0,0,1,.48c.15,0,.29-.12.44-.19a3,3,0,0,0-.23-.48c-.07-.11-.2-.18-.29-.28A5.2,5.2,0,0,1,53.5,38.77Zm3.19,25.78a.62.62,0,0,0,.08.87c.45.47,1,.3,1.56.32.05,0,.13-.15.17-.24s.13-.41.2-.62,0-.22.11-.42l-1.13.69a.48.48,0,0,1-.71-.1A3.3,3.3,0,0,1,56.69,64.55ZM50.9,75.76c.79-.1,1.54-.18,2.28-.29a.31.31,0,0,0,.17-.24.42.42,0,0,0-.21-.25A1.89,1.89,0,0,0,50.9,75.76ZM34.76,77.2c.54-.31.68-.65.49-1.12,0-.12-.17-.26-.27-.27a.44.44,0,0,0-.35.18,1.87,1.87,0,0,0,.54,2.29s.15,0,.3,0Zm25.68-40a3.22,3.22,0,0,0-.54.1c-.27.12-.52.29-.79.41-.76.34-1.51.43-1.67-.64a.7.7,0,0,0,.36.93A1.81,1.81,0,0,0,60.44,37.19ZM44.14,61.26c0-.5-.35-.76-.73-.53a1,1,0,0,0-.54.8.57.57,0,0,0,.33.59.52.52,0,0,0,.64-.18A3.19,3.19,0,0,0,44.14,61.26Zm-6.2-3h0a1.2,1.2,0,0,0,0,.33c.05.24.17.51.43.48s.3-.27.44-.42a.28.28,0,0,0,0-.18,8,8,0,0,0-.17-1,.41.41,0,0,0-.32-.27c-.11,0-.26.17-.3.3A4.6,4.6,0,0,0,37.94,58.24ZM87,85.83c.23-.6.45-1.16.65-1.72a.35.35,0,0,0-.1-.29.33.33,0,0,0-.29,0,3.22,3.22,0,0,0-.65.84A.89.89,0,0,0,87,85.83ZM42.73,56.39a1.79,1.79,0,0,0-1.06,1.47.48.48,0,0,0,.18.38.43.43,0,0,0,.39-.12A2.08,2.08,0,0,0,42.73,56.39ZM52.62,86.7c.85,1.59,2.88,2.19,3.66,1.61-.64-.14-1.3-.26-2-.45A4.49,4.49,0,0,1,52.62,86.7ZM95,81.22a4.21,4.21,0,0,0,1.58-1.42,3.24,3.24,0,0,0,.37-.8c0-.07,0-.23,0-.25a.35.35,0,0,0-.3,0,.74.74,0,0,0-.23.29c-.13.25-.22.52-.37.76C95.69,80.26,95.37,80.69,95,81.22ZM91.44,44.55l-.11-.11a1.51,1.51,0,0,0-.35.2l-1.3,1.08c-.18.15-.31.32-.12.51s.38.09.55-.07.44-.41.63-.64S91.21,44.88,91.44,44.55Zm2.4,20.94a6.53,6.53,0,0,1-2.65,3.77C92.72,68.73,94.27,66.28,93.84,65.49ZM35.38,79.6c1.24-.27,1.46-2.24.37-3.33l.53,1.23c-.1.25-.19.43-.26.63-.13.35-.24.7-.38,1.05A2.65,2.65,0,0,1,35.38,79.6ZM47,76.09c.18-.14.32-.25.46-.38a.71.71,0,0,0,.1-.75c-.07-.28-.31-.27-.54-.26a.45.45,0,0,0-.5.49A1,1,0,0,0,47,76.09Zm48.72-3.91c-.06-.18-.07-.4-.17-.47a1.57,1.57,0,0,1-.46-.57,3.87,3.87,0,0,0-.43-.57,1,1,0,0,0,0,1.28A.88.88,0,0,0,95.75,72.18ZM62.1,73.65c-.85-.21-1.3.2-1.25,1a.44.44,0,0,0,.4.45c.2,0,.44-.24.39-.48A.84.84,0,0,1,62.1,73.65ZM83.67,91.82a2,2,0,0,0,1.59-1.13,1.14,1.14,0,0,0,.06-1.1c-.28.45-.46.83-.71,1.16S84,91.41,83.67,91.82ZM54.05,82.91l.11.07c.56-.13,1.33-1.61,1.6-3.09ZM43.62,45.41c0-.24-.2-.4-.41-.29a1.45,1.45,0,0,0-.77.91.33.33,0,0,0,.38.44A1.75,1.75,0,0,0,43.62,45.41ZM35.86,85.54l-.09.09A2.32,2.32,0,0,0,37,87a.66.66,0,0,0,.78-.11.7.7,0,0,0,.19-.85.91.91,0,0,1-1.66.1ZM48.28,67.41a1.19,1.19,0,0,0-.53,1,1.1,1.1,0,0,1-.36.84s0,.12-.08.2A1.53,1.53,0,0,0,48.28,67.41Zm33.48,6.16c0-.45-.35-.61-.57-.83,0,0-.27,0-.35.11a.66.66,0,0,0,.17,1,.62.62,0,0,0,.46.13C81.59,73.9,81.67,73.7,81.76,73.57ZM43.51,69.42c.42-.07.32-.3.23-.54a3.84,3.84,0,0,1-.11-.46c-.09-.44-.18-.89-.26-1.33a6.63,6.63,0,0,0,0,1.18c0,.6.06,1.2.1,1.8a.5.5,0,0,0,.45.53C44.07,70.13,43.79,69.83,43.51,69.42Zm22.86,17.9a.36.36,0,0,0-.26.48.76.76,0,0,0,.46.61.49.49,0,0,0,.65-.19c.15-.28-.08-.41-.24-.53A6.18,6.18,0,0,0,66.37,87.32ZM62.79,38.67a1,1,0,0,0-1.15-.25c-.15.09-.23.29-.34.45.19.09.4.28.56.24A3.86,3.86,0,0,0,62.79,38.67Zm15.66,2.66c-1.1.23-2,1-3,1.33A5.67,5.67,0,0,0,78.45,41.33Zm-35.3,3.38a.57.57,0,0,1,.76.23c.29.37.07.72-.18,1a1,1,0,0,0,.55-.63.71.71,0,0,0-.18-.94A.78.78,0,0,0,43.15,44.71ZM77,37.05c.47,1,1.12,1.4,1.79,1.09-.22-.14-.39-.26-.57-.36s-.35-.11-.4-.22C77.68,37.21,77.35,37.18,77,37.05ZM59.36,90.27l-.13,0c0,.11-.08.25,0,.31a4.71,4.71,0,0,0,.66.68.48.48,0,0,0,.64-.21c.08-.17.07-.37-.15-.34A1.14,1.14,0,0,1,59.36,90.27Zm6.17-57.46c.25-.46-.19-1.17-.78-1.27C64.57,32,64.8,32.4,65.53,32.81ZM93.43,56a5.85,5.85,0,0,0,.85-.76.87.87,0,0,0,.07-1,1.92,1.92,0,0,1-.85,1.33C93.35,55.62,93.23,55.72,93.43,56ZM87.5,38.78a1.34,1.34,0,0,0-1.44-.8C86.87,38.72,87.1,38.86,87.5,38.78ZM74,68.52c.12.38.22.72.34,1a.25.25,0,0,0,.23.1.43.43,0,0,0,.21-.23C74.91,69.1,74.48,68.57,74,68.52Zm-34.42-21a.49.49,0,0,0,.49.58.56.56,0,0,0,.48-.17c.11-.14.3-.35,0-.61l-.45.4Zm-2.83,5.8A1.42,1.42,0,0,0,37.21,52C36.77,52.49,36.58,53.05,36.77,53.33Zm45.92-1.15c.11.28.28.46.57.4.12,0,.3-.16.3-.25a.56.56,0,0,0-.22-.37C83.06,51.79,82.89,52,82.69,52.18ZM53.33,36.85v-.21a5,5,0,0,0-.77-.17c-.09,0-.19.15-.29.24.1.08.19.25.29.25A5,5,0,0,0,53.33,36.85Zm16.23,3.58c.14.28.33.29.53.12s.22-.57.07-.68a.34.34,0,0,0-.34,0A2.8,2.8,0,0,0,69.56,40.43ZM62.28,79.2a7.29,7.29,0,0,0,.67-.56.33.33,0,0,0,0-.32.45.45,0,0,0-.36,0C62.31,78.48,62.23,78.76,62.28,79.2ZM39.37,69.44a3.47,3.47,0,0,0-.14,2.23h.14ZM66.52,86l-.93-.29c.09.24.12.48.25.59a.66.66,0,0,0,.52,0C66.45,86.27,66.48,86.07,66.52,86ZM85,36.43c.29.29.22.77.79.91l-.43-1.22ZM47.82,58.33h0c.07,0,.15,0,.19,0a2.89,2.89,0,0,0,.32-.29,1.27,1.27,0,0,0-.38-.17.77.77,0,0,0-.42.08c-.06,0-.11.13-.12.21a.23.23,0,0,0,.13.16A1.33,1.33,0,0,0,47.82,58.33Zm3,18.14c0,.34.19.63.42.59a.39.39,0,0,0,.23-.24C51.55,76.58,51.24,76.42,50.87,76.47Zm-18.63-13c.29.31.57.42.69.26a.38.38,0,0,0,0-.36C32.78,63.18,32.56,63.22,32.24,63.51ZM76.13,49.29a2.84,2.84,0,0,0-.71,0c-.17,0-.16.21,0,.34S76,49.74,76.13,49.29ZM66.53,97l0,.12.86-.08a3.5,3.5,0,0,0-.21-.45C67,96.71,66.68,96.77,66.53,97Zm30-18.46.3-.38-.63-.37C96,78.23,96,78.23,96.49,78.57ZM60.34,64.29c.3-.21.11-.45,0-.66s-.17-.15-.21-.12-.19.16-.18.23C60,64,60,64.21,60.34,64.29ZM71,48.88c.71,0,1-.22,1-.76Zm23.34,8,.2-.41c.07-.15.12-.34-.11-.36s-.29.14-.32.25S94,56.8,94.31,56.9ZM65.22,55.07c-.11-.09-.2-.21-.27-.2a1.49,1.49,0,0,0-.51.14.38.38,0,0,0,0,.23,1.5,1.5,0,0,0,.47,0C65,55.27,65.11,55.16,65.22,55.07ZM84.1,34.78c.22-.18.34-.32.21-.55s-.32-.19-.6-.09ZM70.3,52.68A2,2,0,0,0,69,53.75Zm27,.28c-.41.3-.41.3,0,1A1.3,1.3,0,0,0,97.33,53Zm-6.77-2.45c-.6,0-.8.15-.69.57C90,50.8,90.56,51.05,90.56,50.51ZM73.32,54.63l-.66,1.1A1,1,0,0,0,73.32,54.63Zm-39.7,3.28c-.28.17-.32.38-.12.6,0,.06.28.06.31,0C34,58.29,33.91,58.08,33.62,57.91Zm15,15.22h.15c0-.13.14-.27.11-.37a.4.4,0,0,0-.53-.35Zm-13,4.77a.76.76,0,0,0-.27-.87C35.14,77.37,35.15,77.39,35.62,77.9Zm5.21-29.42a1.05,1.05,0,0,1,.43.07c.08,0,.17,0,.26,0v-.11L40.83,48ZM65.3,42.6a4.63,4.63,0,0,0,.16.46.23.23,0,0,0,.2.07s.13-.09.12-.12a1.14,1.14,0,0,0-.17-.37S65.43,42.62,65.3,42.6Zm7.25,13.48L72.47,56l-.93.84A2.16,2.16,0,0,0,72.55,56.08ZM59,87.25c.15-.26.1-.42-.12-.5-.06,0-.21,0-.22.11C58.61,87.11,58.81,87.16,59,87.25ZM101.35,56.7c.14-.24.05-.39-.13-.47a.29.29,0,0,0-.26.11C100.91,56.64,101.17,56.61,101.35,56.7ZM98.46,77.78l0-.51c-.11,0-.28,0-.32.07S98.15,77.68,98.46,77.78Zm-27.67-46,.22-.4c-.1,0-.26-.14-.31-.1S70.55,31.53,70.79,31.74ZM43.84,77.11c.24.48.25.48.54,0ZM71,46.19l.06-.1c-.16-.31-.44-.32-.83-.28Zm13.13-.31c-.1.16-.22.26-.2.32s.14.19.21.28c.07-.08.18-.16.18-.23S84.26,46.05,84.16,45.88Zm12,17.18a2.1,2.1,0,0,0-.42-.26s-.16.16-.15.17a1.22,1.22,0,0,0,.3.26S96,63.15,96.18,63.06Z"/><path d="M31.23,31.7c-.1-.44-.2-.88-.29-1.33-.17-.83-.35-1.66-.51-2.5a.66.66,0,0,0-.53-.58l-3.76-1c-.26-.07-.52-.19-.88-.32.62-.33,1.15-.59,1.67-.88.82-.44,1.63-.9,2.44-1.34a3.49,3.49,0,0,1,.74-.33c.31-.09.35-.29.35-.57,0-1.44,0-2.87,0-4.3v-.51l.1,0c.27.3.54.59.79.89.76.91,1.5,1.83,2.25,2.74a.75.75,0,0,0,.88.17,13.35,13.35,0,0,1,2.4-.52,9.8,9.8,0,0,0,1-.22,1.93,1.93,0,0,0,.47-.34l.22.29-.31.21c-.09.06-.22.1-.28.18-.64,1-1.26,2-1.89,3.05a.64.64,0,0,0,0,.68c.42.82.83,1.65,1.24,2.48.12.24.23.47.38.76a4.76,4.76,0,0,1-.66-.11c-1.11-.31-2.21-.63-3.31-1a.34.34,0,0,0-.46.22c-.42.93-.82,1.87-1.24,2.81-.2.46-.42.91-.63,1.36Z"/><path d="M119,91.57c.37-.2.73-.41,1.11-.59.84-.41,1.68-.79,2.51-1.21a.68.68,0,0,0,.32-.42c.19-1,.36-2,.53-3,.12-.74.23-1.5.35-2.24a3.38,3.38,0,0,1,.2-.49l2.47,3.11c.46.58.93,1.15,1.38,1.74.15.21.29.19.49.09L131.77,87c0,.08,0,.14,0,.18-.62,1.12-1.25,2.23-1.85,3.36a.76.76,0,0,0,0,.61c.6,1.14,1.23,2.27,1.89,3.47-.22-.08-.4-.11-.55-.18l-3.63-1.84c-.4-.21-.46-.22-.75.12l-3.11,3.58c-.07.08-.16.14-.31.29a3.73,3.73,0,0,1-.08-.56c0-1.11-.06-2.22-.09-3.33,0-.16,0-.31,0-.55L119,91.67Z"/><path d="M116.16,40.82l1.19.24,2.19.39c.52.09,1,.18,1.54.3.24,0,.34,0,.39-.27.14-.59.3-1.16.45-1.74s.3-1.21.48-1.9c.51.84.43,1.86,1.07,2.6-.34.32.16.61.11,1a19.86,19.86,0,0,0,2.53-2.1c.83-.7,1.62-1.44,2.49-2.13a5.68,5.68,0,0,1-.7,1.66c-.27.57-.56,1.13-.84,1.69s-.54,1.13-.85,1.76l3.73,1.35,0,.11-3.79,1.07c.35,1.13.68,2.21,1,3.41a2.34,2.34,0,0,1-.48-.21c-1-.79-2.07-1.59-3.1-2.4-.34-.26-.39-.25-.73,0l-3.34,2.68c0-.2,0-.33,0-.46,0-1.17,0-2.35.1-3.52a.88.88,0,0,0-.37-.85c-1-.75-2-1.55-2.91-2.34a1.81,1.81,0,0,1-.18-.21Z"/><path d="M6.72,77.52c.27-.21.51-.37.72-.56.73-.67,1.45-1.37,2.19-2a.78.78,0,0,0,.29-1,5,5,0,0,1-.13-.88c-.18-1-.37-2-.56-3,0-.09,0-.18,0-.37a2.73,2.73,0,0,1,.41.25c.37.34.74.69,1.09,1,.67.67,1.35,1.32,2,2a.63.63,0,0,0,.67.2l3.33-.51s.06,0,.15,0c-.16.23-.3.45-.46.65-.43.54-.84,1.11-1.32,1.61a1.34,1.34,0,0,0-.31,1.34c.16.7.35,1.38.5,2.08.09.4.14.82.22,1.36l-2.41-1.05c-.51,1.43-.7,2.94-1.23,4.42a5.77,5.77,0,0,1-.29-.55c-.45-1.06-.94-2.11-1.32-3.19a1.42,1.42,0,0,0-1.17-1,14.43,14.43,0,0,1-1.9-.6A2.72,2.72,0,0,1,6.72,77.52Z"/><path d="M69.58,21.88a3.07,3.07,0,0,1,0-.41c.07-.93.16-1.86.24-2.79,0-.36.11-.72.12-1.09a.55.55,0,0,0-.23-.36l-2.62-1.78a4.52,4.52,0,0,1-.42-.35c.52-.11,1-.21,1.37-.28.64-.1,1.29-.18,1.93-.27.26,0,.6,0,.76-.13s.1-.47.13-.72c.08-.82.16-1.64.25-2.45.06-.53.14-1.06.21-1.58l.1,0,.87,1.49c.39.67.78,1.33,1.15,2a.4.4,0,0,0,.41.25l2-.2L77.68,13l-.93,1.54c-.36.58-.69,1.17-1.07,1.73a.36.36,0,0,0,0,.46c.47.79.93,1.58,1.39,2.37a4.79,4.79,0,0,1,.47,1c-.38-.13-.76-.25-1.13-.4-1-.41-2-.83-3-1.26a.45.45,0,0,0-.58.12c-1,1.05-2,2.08-3,3.12Z"/><path d="M110.56,17.26h-3l0-.11,3.19-1.8c-.62-1-1.21-2-1.85-3.09l3.74,1,.73-3.26c.69.82,1.32,1.5,1.86,2.25a1.68,1.68,0,0,0,1.68.85,19.77,19.77,0,0,1,2.32,0,2.16,2.16,0,0,1-.25.35l-2.69,2.33c-.53.45-.55.56-.34,1.21.29,1,.54,1.91.81,2.87,0,0,0,.09,0,.21L114,17l-2.71,3.23Z"/><path d="M93.45,126.91l-3.63-2.48c-.68,1.56-1,3.15-1.67,4.65H88c-.05-.36-.09-.73-.15-1.09-.15-.85-.3-1.71-.44-2.57-.06-.35-.06-.73-.14-1.08a1.53,1.53,0,0,0-.36-.69c-1.06-1.08-2.15-2.13-3.22-3.2.19-.29.35-.38.61-.16a.66.66,0,0,0,.34.15l3.43.41.16,0v-4.43l.15,0,2.2,4.52,3.61-1.27.06.06-1.21,1.86c-.26.41-.51.83-.79,1.24a.67.67,0,0,0-.05.71c.41,1,.81,2,1.21,3a3.58,3.58,0,0,1,.09.35Z"/><path d="M55.43,127.9v2.66l-.08,0-1.14-1.93-2.6,2.52-.11-.06c.14-1,.47-1.93.71-3-1.16-.13-2.31,0-3.44-.09l0-.12c.64-.41,1.3-.8,1.93-1.23s1-.35.19-1.1c-.16-.15-.27-.36-.44-.49a3.26,3.26,0,0,0-.53-.26,1.94,1.94,0,0,1-.29-.21c.11-.09.22-.24.34-.24a2.76,2.76,0,0,1,.69.11l2.13.47c.28.07.45,0,.58-.33.39-.88.82-1.74,1.23-2.61a.39.39,0,0,1,.26-.18v3.19c1.65-.2,3.18-.68,4.75-.94l0,.13-2.94,1.82,2.2,2.6,0,.07Z"/><path d="M123.69,123.08c0,.16,0,.33,0,.5,0,.89,0,1.78,0,2.67a.72.72,0,0,0,.47.77c1,.49,2,1,3,1.53a3.39,3.39,0,0,1,.35.27l-1.92.54c-.48.13-1,.24-1.46.38a.5.5,0,0,0-.3.3c-.24,1-.44,1.93-.66,2.93-.06-.05-.13-.08-.16-.14-.21-.42-.41-.83-.6-1.26s-.47-1.1-.71-1.64c-.1-.24-.29-.2-.48-.14l-2.31.69a1.73,1.73,0,0,1-.4,0c.16-.36.29-.67.44-1,.23-.46.45-.91.7-1.35a.43.43,0,0,0,0-.51c-.46-.74-.91-1.48-1.36-2.22,0-.05,0-.11-.11-.26.45.07.84.12,1.21.2.56.11,1.1.27,1.66.38a.61.61,0,0,0,.44-.19c.57-.67,1.12-1.36,1.69-2l.42-.49Z"/><path d="M17.6,121.33a2.36,2.36,0,0,1,.38,0c.76.15,1.52.3,2.27.48.19,0,.29,0,.39-.15l1.81-2.82c.07-.09.16-.17.28-.3.32.79.62,1.51.91,2.24.12.29.21.6.34.88a.52.52,0,0,0,.28.22c.76.31,1.54.61,2.41,1l-1.12.51c-.48.2-1,.41-1.45.57a.46.46,0,0,0-.35.53V127l-.1.05c-.19-.19-.39-.37-.57-.58-.4-.47-.78-1-1.18-1.42s-.38-.45-.92-.24l-2.85,1.13a2.87,2.87,0,0,1-.53.11c.34-.79.64-1.53,1-2.25a.63.63,0,0,0,0-.66C18.22,122.53,17.93,121.94,17.6,121.33Z"/><path d="M115,110.43c-.29-.44-.54-.84-.82-1.23s-.59-.55-1.22-.29a13.21,13.21,0,0,1-2,.62l1.59-2.25L111,105.69l0-.07,2.15.33,1.39-1.62h.13c.1.42.21.84.27,1.26s.1.43.48.34c.55-.14,1.1-.26,1.66-.37a1.46,1.46,0,0,1,.36,0l.06.1-.81.68-.84.73,1.61.82V108a3.4,3.4,0,0,1-.46.07h-1.33c-.32,0-.46.12-.45.45a5.37,5.37,0,0,1-.11.7c0,.3-.23.59.07.88C115.29,110.22,115.21,110.3,115,110.43Z"/><path d="M24,98.53c.37.44.77.86,1.11,1.33a.86.86,0,0,0,.88.4c.43,0,.88,0,1.32,0l0,.14c-.5.44-1,.89-1.51,1.31s-.53.55-.31,1.19c.16.47.29,1,.47,1.54a1.74,1.74,0,0,1-.31-.23l-1.16-1.3c-.24-.27-.32-.27-.55,0-.39.47-.77,1-1.16,1.43l-.16.12a3.57,3.57,0,0,1-.17-.44c0-.11,0-.22,0-.33-.19-.94-.19-.94-1.16-.94h-.71l-.05-.1c.12-.08.22-.17.34-.24.39-.22.77-.43,1.17-.63.23-.13.22-.28.1-.47-.23-.39-.48-.78-.71-1.17a1.6,1.6,0,0,1-.11-.27,1.31,1.31,0,0,1,.39,0q.66.18,1.32.39c.35.11.43.08.52-.31s.2-.91.3-1.37Z"/><path d="M26.05,45.2c-.05.55-.85.77-.51,1.43l-.44.23,1,1.4,0,.08-2-.59c.06.37.12.66.14,1s0,.56,0,1l-1.32-1.46c-.61.32-.78.59-.7,1l-.67.36a.81.81,0,0,1-.09-.24c0-.5-.09-1-.1-1.51a.58.58,0,0,0-.39-.59c-.21-.1-.42-.21-.62-.33s-.11-.14-.18-.24l1-.37a.68.68,0,0,0,.5-.51,8.29,8.29,0,0,1,.44-1.09l.46-1.12c.12.18.22.29.29.42.23.43.44.87.67,1.29s.26.39.68.28,1.07-.27,1.6-.39A1,1,0,0,1,26.05,45.2Z"/><path d="M12.28,17.36a7.85,7.85,0,0,1,0-.84c.1-1.15.11-1.15-.95-1.6L11,14.79l.7-.25c.19-.07.36-.16.55-.21a1.52,1.52,0,0,1,.37,0c.24-1.08.49-2.15.74-3.22a1.34,1.34,0,0,1,.11-.25l1,2.8,2.87-.32.07.13a1.6,1.6,0,0,1-.25.27c-.43.37-.87.74-1.32,1.08a.58.58,0,0,0-.25.52c0,.6-.08,1.2-.13,1.8a2.42,2.42,0,0,1-.12.35l-1.59-1.76-1.41,1.66Z"/><path d="M123,72.51c.12-.47.18-.84.3-1.2s.09-.47-.19-.64a7,7,0,0,1-.6-.48l0-.13c.31,0,.61,0,.92,0a.5.5,0,0,0,.57-.36c.28-.69.59-1.36.9-2a1.59,1.59,0,0,1,.18-.27l.1.06.12,1.25c.09,1.06.17,1.14,1.24,1.24a13.34,13.34,0,0,1,1.45.21c-.26.16-.53.33-.8.47-1.17.63-1.18.65-1.42,1.92a5.32,5.32,0,0,1-.2.63c-.22-.36-.38-.61-.55-.87s-.34-.49-.53-.77C124,71.68,123.66,72.28,123,72.51Z"/><path d="M80.57,133.76a9.37,9.37,0,0,1-1.25.46.84.84,0,0,0-.73.84,8.11,8.11,0,0,1-.33,1.17c-.27-.24-.51-.42-.72-.64a.62.62,0,0,0-.55-.22c-.37,0-.75.06-1.13.09h-.67l1.38-1.32c-.24-.18-.45-.32-.64-.48s-.15-.27.07-.34a5,5,0,0,1,.91-.26c.5,0,.64-.39.77-.77.08-.22.18-.43.27-.64h.12c.11.29.25.58.34.88a1.12,1.12,0,0,0,.92.78c.41.1.81.23,1.22.34Z"/><path d="M96.2,20.7a2.09,2.09,0,0,1-.4.19A1.34,1.34,0,0,0,94.62,22a3.61,3.61,0,0,1-.31.79c0,.07-.15.1-.23.16l-.44-1.75-1,.41c.1-.54.15-1,.26-1.43a.7.7,0,0,0-.19-.69l-.56-.67,0-.11a5.42,5.42,0,0,1,.81.07,1,1,0,0,0,1.1-.31c.32-.36.7-.67,1.15-1.1,0,.38,0,.66-.08.92s-.16.59-.18.88a.67.67,0,0,0,.19.44C95.47,20,95.82,20.31,96.2,20.7Z"/><path d="M56.85,21.87l.71.21c.18.06.35.13.54.18s.33,0,.43-.22a13.07,13.07,0,0,1,.58-1.19.63.63,0,0,1,.29-.3v1.78l2-.16,0,.09c-.39.4-.8.79-1.17,1.21a1.94,1.94,0,0,0-.4.73,8.21,8.21,0,0,0-.18,1.21c0,.23,0,.44-.26.6l-.7-2-1.61,1.09-.09,0A10.51,10.51,0,0,1,57.46,24a.83.83,0,0,0-.05-1,9,9,0,0,1-.63-1Z"/><path d="M16.32,7.63c-.29-.13-.52-.21-.73-.33a1.15,1.15,0,0,1-.44-.37c-.09-.22.1-.36.28-.49.58-.42,1.21-.26,1.37.37C16.9,7.21,16.81,7.35,16.32,7.63Z"/><path d="M119.23,115.28a4,4,0,0,1,.28-.68.36.36,0,0,1,.33-.11,6.58,6.58,0,0,1,.77.53c.06,0,.13.13.12.19,0,.35-.06.7-.1,1.09l-.59-.13c-.09-.37.21-.25.41-.29C120.3,115.12,119.66,115.45,119.23,115.28Z"/><path d="M36.18,42l.51.23a1,1,0,0,0-.23.11c-.08.07-.21.17-.2.24a.37.37,0,0,0,.22.25,4.21,4.21,0,0,0,.62,0c.25,0,.33.16.23.39s-.19.36-.29.54C36.19,43.63,35.49,43,36.18,42Z"/><path d="M39.66,1.34c.36.22.46.56.32,1.21a2.22,2.22,0,0,1-1.26-.37c-.19-.11-.22-.47-.34-.75.51-.14.67.31,1.06.39Z"/><path d="M40.34,26.39a2.35,2.35,0,0,1,.16-.49.3.3,0,0,1,.52-.09,1.75,1.75,0,0,1,.35.37.41.41,0,0,1,0,.56,1.64,1.64,0,0,0-.21.25c-.2.26-.47.25-.61,0A3.19,3.19,0,0,1,40.34,26.39Z"/><path d="M115.79,131a.93.93,0,0,1,.37,1.28c-.17.29-.37.32-.61.1a1.13,1.13,0,0,1-.29-.37.53.53,0,0,1,0-.43A4.78,4.78,0,0,1,115.79,131Z"/><path d="M42.4,3.76l-.22.36a.58.58,0,0,0,.19.1c.18,0,.33.1.23.31a.28.28,0,0,1-.43.13,1.13,1.13,0,0,1-.29-.24l-.79-1C41.59,3.17,42,3.26,42.4,3.76Z"/><path d="M36.51,131.74c-.45,0-.53-.12-.38-.43a1.08,1.08,0,0,1,.33-.45.65.65,0,0,1,.52-.08.54.54,0,0,1,.33.41.69.69,0,0,1-.35.43A1.16,1.16,0,0,1,36.51,131.74Z"/><path d="M1.65,33.79l.88-.31c.29-.11.47,0,.5.3s0,.52,0,.9Z"/><path d="M120.59,26.66a3.69,3.69,0,0,1-.4.68.47.47,0,0,1-.82-.18.44.44,0,0,1,.09-.33A1.05,1.05,0,0,1,120.59,26.66Z"/><path d="M91.77,1.43a1.88,1.88,0,0,1-1.17.88c-.06,0-.24-.07-.25-.13a.54.54,0,0,1,.06-.38A1.28,1.28,0,0,1,91.77,1.43Z"/><path d="M131.14,111.6c.43,0,.84-.17,1.15.22.17.21.14.37-.12.46A.77.77,0,0,1,131.14,111.6Z"/><path d="M20.13,15.16l1.07-.88c.3.32.29.51,0,.78A.77.77,0,0,1,20.13,15.16Z"/><path d="M41.08,43.4c-.24-.41-.51-.8-.13-1.25.09-.11.06-.32.09-.5s.32-.06.4.1,0,.25,0,.37a3.34,3.34,0,0,0-.18.5C41.15,42.88,41.12,43.14,41.08,43.4Z"/><path d="M8.92,130.26c0-.37,0-.73,0-1.08,0-.1.16-.21.27-.25s.21.14.22.22a3.12,3.12,0,0,1,0,.75A.39.39,0,0,1,8.92,130.26Z"/><path d="M0,60.77c.22-.49.63-.67,1-.49.09,0,.21.23.18.28s-.22.36-.34.37A2.83,2.83,0,0,1,0,60.77Z"/><path d="M115.58,116.74c-.5-.12-.58-.29-.26-.6s.11-.51.14-.76,0-.49.34-.59a4.11,4.11,0,0,1,0,1.17A4.23,4.23,0,0,0,115.58,116.74Z"/><path d="M12.22,93.32c.38.2.46.41.58,1.47C12.23,94.67,12,94.09,12.22,93.32Z"/><path d="M108.89,18.77l.49-.67c.09.07.15.09.18.14.16.22.41.44.21.73S109.24,19.06,108.89,18.77Z"/><path d="M10.23,7.75l-.93.34A.25.25,0,0,1,9.07,8a.37.37,0,0,1,0-.31C9.22,7.26,9.78,7.25,10.23,7.75Z"/><path d="M47.15,140.22c-.12-.22-.24-.39-.32-.57s0-.42.25-.41a.88.88,0,0,1,.55.17c.17.19,0,.37-.18.52S47.26,140.12,47.15,140.22Z"/><path d="M16.25,81.84a1,1,0,0,1-.93.83c-.25,0-.38-.29-.36-.7a1.4,1.4,0,0,1,.18.13l.17.17Z"/><path d="M110.39,125.81a.83.83,0,0,1,.74.36c.13.2.06.43-.17.42a1,1,0,0,1-.59-.21A.37.37,0,0,1,110.39,125.81Z"/><path d="M131.87,124c-.2,0-.49,0-.55,0a.8.8,0,0,1-.08-.61c0-.22.25-.34.54-.3Z"/><path d="M141.61,76.42,141.4,76l-1,.4a.89.89,0,0,1,1-.75C141.66,75.73,141.74,75.94,141.61,76.42Z"/><path d="M16.39,94.42l-1.51.08-.15-.26c.06-.06.1-.11.13-.11.52.05,1.09-.21,1.57.14Z"/><path d="M46.26,32.48a1.8,1.8,0,0,1-.48-.15.93.93,0,0,1-.26-.4c0-.05.08-.21.12-.21s.42,0,.53.1a1.57,1.57,0,0,1,.23.56Z"/><path d="M114.47,98.94l.54-.36a.55.55,0,0,1-.12,1,.3.3,0,0,1-.27-.11A2.13,2.13,0,0,1,114.47,98.94Z"/><path d="M90.84,14.28c-.21.52-.29.58-.79.57-.11-.2-.16-.42,0-.58A.52.52,0,0,1,90.84,14.28Z"/><path d="M137.12,5c.49-.11.74.15,1.09.54l-.38.34C137.5,5.63,137.18,5.47,137.12,5Z"/><path d="M25,35.21l-.24-.86.51-.16c.17.3.29.58.09.86C25.28,35.15,25.1,35.16,25,35.21Z"/><path d="M56,136.66l.86-.27-.2,1c-.36,0-.49-.31-.68-.52Z"/><path d="M141.61,52.08c-.44.42-.87.42-1.16,0A.82.82,0,0,1,141.61,52.08Z"/><path d="M15,9.86c.39,0,.65.18.65.39s-.09.39-.3.31a2.88,2.88,0,0,1-.65-.42Z"/><path d="M11.9,87.64a.9.9,0,0,0-.41-1.07c.2-.09.33-.19.45-.17a.43.43,0,0,1,.27.24A.71.71,0,0,1,11.9,87.64Z"/><path d="M15,106.2A.94.94,0,0,1,16,106c.09,0,.21.14.21.21a.31.31,0,0,1-.2.23A.84.84,0,0,1,15,106.2Z"/><path d="M12.58,4.85c-.31.13-.56.25-.82.33-.07,0-.2-.07-.25-.15s0-.18.09-.24C12,4.43,12.29,4.43,12.58,4.85Z"/><path d="M140.27,63.91l1.54-.14,0,.37c-.55-.15-1.09.29-1.59-.1Z"/><path d="M10.71,84.05c-.25.29-.53.12-.82,0-.05-.24-.1-.46.17-.57S10.52,83.59,10.71,84.05Z"/><path d="M120.68,34.09a5,5,0,0,1,.65.29c.14.07.27.23.11.37s-.32.17-.39.12S120.55,34.57,120.68,34.09Z"/><path d="M99.87,21.93l.18-.94c.3.05.6.14.58.48S100.18,21.71,99.87,21.93Z"/><path d="M61.29,11.17c-.46-.1-.7-.46-.62-.76a.5.5,0,0,1,.21-.22.22.22,0,0,1,.19.1C61.16,10.58,61.22,10.88,61.29,11.17Z"/><path d="M14.31,97.14l.61.66c-.09.08-.18.21-.28.23-.25,0-.59-.28-.56-.47A1.84,1.84,0,0,1,14.31,97.14Z"/><path d="M17.35.82C17.2.63,16.77.66,17,.26A.54.54,0,0,1,17.61,0C17.78.17,17.72.35,17.35.82Z"/><path d="M35.39,123.32c.65.35.73.51.46.86C35.12,123.86,35.08,123.79,35.39,123.32Z"/><path d="M142.56,60.8a.61.61,0,0,1-.25.14c-.21,0-.62-.28-.58-.44a.44.44,0,0,1,.27-.25A.57.57,0,0,1,142.56,60.8Z"/><path d="M46.67,137.62a3.3,3.3,0,0,1,.34.49.35.35,0,0,1,0,.33.39.39,0,0,1-.33.1.38.38,0,0,1-.19-.26,3.47,3.47,0,0,1,0-.56Z"/><path d="M110,20.63a2.5,2.5,0,0,1-.39-.53.27.27,0,0,1,.21-.4c.21,0,.31.11.32.31s0,.37,0,.55Z"/><path d="M121,70.38c0,.11-.09.25-.13.25a.31.31,0,0,1-.26-.11,1.33,1.33,0,0,1-.25-.45.3.3,0,0,1,.11-.26c.06,0,.22,0,.27.08A3.29,3.29,0,0,1,121,70.38Z"/><path d="M41.44,24.93a.84.84,0,0,1,.58.73c0,.1-.12.22-.19.33-.07-.08-.18-.16-.2-.25C41.55,25.47,41.5,25.2,41.44,24.93Z"/><path d="M57.24,13.14a3,3,0,0,1,.67.07c.06,0,.1.32,0,.37a1.82,1.82,0,0,1-.52.23Z"/><path d="M113.15,32.05a.69.69,0,0,1,.76-.59C113.86,32,113.66,32.16,113.15,32.05Z"/><path d="M85.32,110.88c-.1-.21,0-.35.21-.45a.69.69,0,0,1,.72,0,.15.15,0,0,1,0,.17.32.32,0,0,1-.18.12C85.86,110.8,85.62,110.83,85.32,110.88Z"/><path d="M72.69,5.28l-.43-.49c.13-.09.24-.23.38-.26s.35.14.35.34S72.84,5.08,72.69,5.28Z"/><path d="M1.57,47.82c-.2.14-.37.23-.48-.11a4.11,4.11,0,0,0-.26-.51l.49-.07Z"/><path d="M16.9,1a2.15,2.15,0,0,1,.24.48.41.41,0,0,1-.23.33c-.26,0-.33-.21-.32-.41s.11-.26.17-.39Z"/><path d="M45.63,18.66c.22-.44.48-.53.68-.26a.36.36,0,0,1,0,.33.38.38,0,0,1-.3.12A1.75,1.75,0,0,1,45.63,18.66Z"/><path d="M115.11,133.35a1,1,0,0,1-.49-.7c0-.09.1-.19.15-.29.09.06.21.11.24.18.09.25.14.51.21.76Z"/><path d="M14.26,90.43c-.43-.08-.54-.28-.49-.85C14.17,89.63,14.28,89.82,14.26,90.43Z"/><path d="M108.38,2.67c.43.17.48.4.24.9C108.26,3.42,108.24,3.33,108.38,2.67Z"/><path d="M22.74,133c-.14-.21-.29-.33-.27-.42s.18-.25.28-.37c.1.1.28.2.28.3S22.89,132.74,22.74,133Z"/><path d="M112.92,43.21c.51-.1.58,0,.75.51C113.24,43.8,113.24,43.8,112.92,43.21Z"/><path d="M111,139.56c-.09.36-.37.51-.6.36a.33.33,0,0,1-.13-.28c0-.07.15-.16.24-.16A2.78,2.78,0,0,1,111,139.56Z"/><path d="M23.67,8.34a2.46,2.46,0,0,1-.16.48.43.43,0,0,1-.32-.08c-.08-.08-.15-.32-.11-.34a1.71,1.71,0,0,1,.46-.19Z"/><path d="M34,116.54a1.92,1.92,0,0,0-.49,0c-.21.06-.33,0-.31-.21a.4.4,0,0,1,.28-.27C33.71,116.05,33.88,116.23,34,116.54Z"/><path d="M20.8,50c-.32-.09-.61-.16-.89-.26-.09,0-.14-.17-.23-.29C20.25,49.44,20.7,49.67,20.8,50Z"/><path d="M20.27,12c.52-.1.63,0,.68.61A.88.88,0,0,1,20.27,12Z"/><path d="M134.33,25.78a2.05,2.05,0,0,1-.49.25c-.05,0-.21-.18-.19-.23a1.39,1.39,0,0,1,.28-.37Z"/><path d="M1.25,107.86c-.28,0-.5-.07-.51-.36,0-.07.26-.22.36-.19C1.38,107.4,1.33,107.63,1.25,107.86Z"/><path d="M47.92,137.76a1.16,1.16,0,0,1-.41-.07c-.1-.05-.15-.19-.22-.29.12-.06.24-.17.35-.15S48,137.42,47.92,137.76Z"/><path d="M43.64,115.11c-.5,0-.59-.12-.62-.57C43.44,114.54,43.58,114.66,43.64,115.11Z"/><path d="M29.46,13.28a2.53,2.53,0,0,1-.5,0c-.08,0-.21-.15-.19-.19a.38.38,0,0,1,.2-.23C29.27,12.74,29.4,12.87,29.46,13.28Z"/><path d="M118.53,7.1c.26,0,.42,0,.52.05a.5.5,0,0,1,.17.31c0,.07-.1.21-.15.21a.5.5,0,0,1-.26-.15A3.29,3.29,0,0,1,118.53,7.1Z"/><path d="M106.33,115.56v.73c-.34,0-.36-.21-.39-.41S106,115.53,106.33,115.56Z"/><path d="M17.38,64.32a2.67,2.67,0,0,1,.48.15s0,.24,0,.27-.31.14-.37.08-.12-.26-.18-.39Z"/><path d="M79.77,114.87c.35,0,.42.29.52.55C79.81,115.49,79.66,115.33,79.77,114.87Z"/><path d="M108.7,20.58c.23,0,.49-.17.61.15,0,.07-.11.29-.19.3C108.82,21.08,108.72,20.87,108.7,20.58Z"/><path d="M10.81,123.87l-.24-.21-.21-.24a1.33,1.33,0,0,1,.47-.08c.07,0,.13.21.16.33S10.89,123.78,10.81,123.87Z"/><path d="M3,48.75c.29-.49.5-.56,1-.33Z"/><path d="M136.65,94.09a1.4,1.4,0,0,1,0-.41c0-.1.18-.16.28-.23.05.09.15.21.13.29a2.09,2.09,0,0,1-.25.43Z"/><path d="M19.85,64.14c.22.26.23.47,0,.66-.05,0-.26,0-.28,0C19.46,64.49,19.66,64.34,19.85,64.14Z"/><path d="M111.67,34.73c.31-.48.45-.48,1,0Z"/><path d="M24.53,58.77c-.11-.14-.26-.26-.3-.41s.14-.23.22-.34l.13,0,.08.64Z"/><path d="M107.06,33.46c0,.32-.17.44-.4.4-.08,0-.22-.2-.19-.26C106.58,33.3,106.81,33.45,107.06,33.46Z"/><path d="M128.91,5.6c.3.19.24.38,0,.55a.28.28,0,0,1-.27,0A.36.36,0,0,1,128.91,5.6Z"/><path d="M10.85,33c0-.28,0-.52.35-.5.06,0,.17.18.16.27C11.34,33.08,11.11,33,10.85,33Z"/><path d="M40.81,72.67l.46.56-.1.1a3.87,3.87,0,0,1-.88-.88s.13-.11.2-.17Z"/><path d="M89.85,100.22c.24,0,.49-.07.72-.12s.41,0,.37.3a2.53,2.53,0,0,1-.24.78,1.59,1.59,0,0,1-1.24.51l.24-.34s-.09,0-.11-.06-.38-.27-.42-.44.2-.29.33-.43a3.24,3.24,0,0,1,.34-.29Z"/><path d="M99.48,47.35a8.1,8.1,0,0,1-.82-1.57c-.31-.5-.53-1.06-.83-1.58s-.62-1-1-1.54C98,43.25,99.91,46.6,99.48,47.35Z"/><path d="M59.77,103.56a1.31,1.31,0,0,1,.28,0,4.34,4.34,0,0,0,3.05-.51l2-.91s.06,0,.09,0a4.12,4.12,0,0,1-1.63,1.15C62,104,60.75,104.08,59.77,103.56Z"/><path d="M82.09,101.87c.29.16.26.38.1.62s-.24.44-.39.72h.46c-.17.27-.33.55-.49.82a.25.25,0,0,1-.43,0,.69.69,0,0,1-.2-.74,3,3,0,0,1,.34-.73A6.83,6.83,0,0,1,82.09,101.87Z"/><path d="M82.27,97.6c.37-.22.74-.42,1.1-.64.17-.1.33-.23.52-.32a1.66,1.66,0,0,1,.44-.06c-.19.77-.54,1.26-1.28,1.37A.64.64,0,0,1,82.27,97.6Z"/><path d="M101.61,84.06c0-.73.79-.92,1-1.47a.7.7,0,0,1,.22.86A1.14,1.14,0,0,1,101.61,84.06Z"/><path d="M94.29,94.44a6.48,6.48,0,0,0,3.38-1.77C97.48,93.66,95.47,94.83,94.29,94.44Z"/><path d="M42,94.2c.21.1.43.2.63.31l1.27.73a2.61,2.61,0,0,1,.24.23c-.11.07-.24.21-.33.19a2.88,2.88,0,0,1-.73-.3,3.7,3.7,0,0,1-1.15-1Z"/><path d="M103.33,61.72a2.42,2.42,0,0,1,.16.5c0,.49,0,1,0,1.47,0,.22-.06.41-.39.42a8.93,8.93,0,0,1,.07-2.37Z"/><path d="M103.15,57.57s.09-.21.13-.2a.33.33,0,0,1,.28.16,10.33,10.33,0,0,1,.33,1.12c0,.17,0,.3-.25.33s-.28-.09-.3-.27Z"/><path d="M88,95.25c.34,0,.67,0,1,0a.26.26,0,0,1,.13.49c-.32.23-.63.08-.93-.07S87.92,95.45,88,95.25Z"/><path d="M69.76,103.75c-.28.39-.56.5-.89.35s-.68-.11-.71-.61Z"/><path d="M67.77,106.76c.14.23.3.46.43.7a.27.27,0,0,1-.17.41c-.2.06-.36,0-.37-.23s0-.57,0-.86Z"/><path d="M105.45,63c0-.41.19-.73.37-.72s.26.18.26.38-.2.59-.39.56S105.48,63,105.45,63Z"/><path d="M102.45,90.56l-.51-.18c0-.28-.21-.56.08-.85C102.37,89.77,102.35,90.14,102.45,90.56Z"/><path d="M107.79,73.78a2,2,0,0,1,1.32.06l-.09.29-1.26-.24Z"/><path d="M38.51,90.9c.31,0,.49.17.43.47,0,.08-.24.21-.29.18C38.38,91.4,38.41,91.16,38.51,90.9Z"/><path d="M62.32,106.49l-.29-.7a.3.3,0,0,1,.49.14C62.63,106.14,62.64,106.4,62.32,106.49Z"/><path d="M78.27,78.73c-.14-.2-.38-.38-.36-.53,0-.31.35-.4.63-.46C78.79,78.13,78.76,78.29,78.27,78.73Z"/><path d="M80.83,56.87c-.56.37.31.67,0,1-.35-.13-.51-.38-.52-.9Z"/><path d="M70.56,55.21c.2.27.19.49,0,.64a.31.31,0,0,1-.3-.07C70.14,55.51,70.3,55.35,70.56,55.21Z"/></svg>