<svg xmlns="http://www.w3.org/2000/svg" viewBox="0 0 120.03 125.99"><title>graphic14</title><path d="M12.32,34.5a33.44,33.44,0,0,0,3.14-1.41c-3.7,12.34-5.88,25.26-7.7,37.4C7.1,75,6.47,79.33,6.14,83.79c-.06.82-.16,1.66-.26,2.49a23.2,23.2,0,0,0,0,8.1c.68,3,2.77,4.93,5.33,4.93a6.12,6.12,0,0,0,3.58-1.26C18,95.8,18,92,18.05,89.22c0-.57,0-1.12.05-1.64.29-4.17.78-8.54,1.5-13.38l.22-1.5c2.41-16.18,4.9-32.91,12.34-47.35l.66-1.28c2.55-4.85,6-11.5,3.85-17.63a5.68,5.68,0,0,0-5.43-3.77,6.35,6.35,0,0,0-3.16.87,14.9,14.9,0,0,0-4,4,18.76,18.76,0,0,1-1.57,1.88,99.68,99.68,0,0,1-9.67,8.82c-1.55,1.19-3.22,2.29-4.65,3.23-.22.15-.54.32-.9.52A21.68,21.68,0,0,0,5,23.38c-.31.24-.66.47-1,.7C2.23,25.3-.78,27.33.18,31.36c.32,1.31,1.41,3.58,5.19,4A14.11,14.11,0,0,0,12.32,34.5Z"/><path d="M29.62,69.06A16.85,16.85,0,0,0,40.25,77.8a13.79,13.79,0,0,0,4,.61c13.07,0,22.47-18.37,25-25.44,1-2.77,1.8-5.41,2.46-7.95,0,.66.11,1.31.2,2a20.29,20.29,0,0,0,6.78,13.12,19.08,19.08,0,0,0,9.54,3.94,34,34,0,0,0,4.28.27,21.27,21.27,0,0,0,6.75-.93,23.37,23.37,0,0,0,4.7-2.21c6.77-4.17,10.59-11,12.6-16,4.8-11.94,5.6-29.22-4-38.94a18.89,18.89,0,0,0-8.29-4.92c-.6-.17-1.21-.29-1.83-.41l-.66-.13a7.32,7.32,0,0,1-.76-.23c-.33-.11-.67-.22-1-.31A6.36,6.36,0,0,0,98.49,0h0a13.23,13.23,0,0,0-3.93.78,14.88,14.88,0,0,1-1.77.48A62.24,62.24,0,0,0,83,4.17c-1.84.67-3.59,1.3-5.38,1.83-4.71,1.39-8.56,1.45-14.1.14L63.14,6a7.45,7.45,0,0,0-4.06-.12,5,5,0,0,0-3.23,1.85l-.28.45-.1.2-.27.14C44.87,14.2,36.27,25.29,31,39.77,28.94,45.32,24.76,59.3,29.62,69.06Zm10-14.52c.82-9.61,5.34-20,12.43-28.39,2.81-3.34,4.8-5,5.93-5,.45,0,1.24.79,2,3,1.48,4.27,1.66,9.33.53,15a45.23,45.23,0,0,1-1.68,6.13c-1.72,4.94-3.77,10.09-7.16,14.23a12.28,12.28,0,0,1-5.24,3.66c-2.26.81-3.91.66-5-.58C40,61.1,39.31,58,39.61,54.54Zm46.7-24.26A34.56,34.56,0,0,1,90.8,21l.28-.41c1.11-1.65,3.68-5.51,5.25-6.18l1.58-.66h0A7.48,7.48,0,0,1,104,16.4c3.34,4,3.36,11.77,2.35,17.21-1.73,9.42-6,15.16-13,17.52-2.79.93-4.72.61-6.09-1.22C84.13,45.71,84.71,35.63,86.31,30.28ZM73.37,25.75a35.47,35.47,0,0,0-.87-4.5,10.07,10.07,0,0,0-.36-1.05,11.41,11.41,0,0,1,1.5-.2,16.08,16.08,0,0,0,1.75-.22c.58-.11,1.13-.24,1.63-.37a37.19,37.19,0,0,0-3.41,9C73.56,27.53,73.49,26.63,73.37,25.75Z"/><path d="M96,70.84l-3.31.51A288.83,288.83,0,0,0,41.54,83.43c-4.25,1.45-8.82,3.14-14,5.14-.39.15-.78.27-1.17.39-1.78.55-5.49,1.69-5,6.19.32,2.94,2.37,5,5,5h.26a8.36,8.36,0,0,0,2.75-.78c.32-.13.63-.27.91-.35,1.43-.38,2.94-.85,4.76-1.48C51.63,91.82,68.3,86.63,84.56,82.13l5.15-1.41c2.7-.74,5.41-1.47,8.1-2.23a3.79,3.79,0,0,0,2.82-4.2A4,4,0,0,0,96,70.84Z"/><path d="M114.87,80.57l-8.27,1.78c-16.2,3.48-33,7.08-49.14,12-10.31,3.12-20.22,6.87-31.17,11.1a120.32,120.32,0,0,0-15,7.31c-.35.2-.78.4-1.24.61-2,.94-4.74,2.23-5.62,4.77-1.06,3,.89,6.09,3.38,7.27a5.79,5.79,0,0,0,2.49.6,6.59,6.59,0,0,0,3.06-.86c.77-.41,1.58-.77,2.39-1.13s1.52-.68,2.25-1c21.33-10.67,44.44-18.31,64.41-24.63,6.25-2,13-4,20.63-6.08l1.22-.34c4.21-1.17,8.43-2.33,12.64-3.52A3.89,3.89,0,0,0,119.73,84,4,4,0,0,0,114.87,80.57Z"/></svg>