<svg xmlns="http://www.w3.org/2000/svg" viewBox="0 0 121.24 136.99"><title>graphic3</title><path d="M11.07,36.88c1.63-2.06,3.07-4.09,5.46-5.06,0,0,.07-.08.16-.21l-.82-.37,1.86-.75L16.41,30l0-.14c2.06-.21,2.72-2,3.87-3.28L18.69,26l2.19-1-.73-.44a6,6,0,0,0,1.1-.52,1.26,1.26,0,0,0,.47-.71,14,14,0,0,0-.08-5.16c-.28-1.75-.67-3.47-1-5.2a6.68,6.68,0,0,0-.31-.86l-.78.74a15,15,0,0,1,0-2.09,3.37,3.37,0,0,1,3.35-3.31c.48-.06,1-.14,1.44-.22s.49.06.54.46a5.76,5.76,0,0,0,.44,1.84,1.56,1.56,0,0,0,1,.7c.47.07.74-.39.82-.84.11-.62.19-1.26.24-1.89.07-1.05,0-2.1.19-3.14a2.55,2.55,0,0,1,2.35-2.42,1,1,0,0,0,.49-.35A4.2,4.2,0,0,1,32.55,0a1.94,1.94,0,0,1,1.3.26,5.76,5.76,0,0,1,2.35,4c.24,1.63.47,3.27.8,4.88a8.57,8.57,0,0,0,3,4.42C41.49,15,43,16.51,44.4,18a7.7,7.7,0,0,1,1.82,5.21,6.17,6.17,0,0,0,1,3.64c.32.42.09.53-.32.54-.87,0-.88.05-.82.91a6.48,6.48,0,0,0,1,3.07c1,1.59,2,3.23,3.08,4.79a16.51,16.51,0,0,0,2.08,2.42c.77.77.79,1.68-.19,2.17a8.79,8.79,0,0,1-2.37.72,2.6,2.6,0,0,1-3.14-1.71.93.93,0,0,0-.06,1.5,3.15,3.15,0,0,0,2.64,1.35s.2.38.16.42a2.79,2.79,0,0,1-.54.3,3.21,3.21,0,0,0-.41.34l.39.25.22.11c0,.68-.61.66-1.1.82A2.85,2.85,0,0,0,49.66,47l-.21.52,4.19,2.2c-.3.47-.6.53-1.63.33a1.33,1.33,0,0,0,1,1.33,2.33,2.33,0,0,1,.56.34c-.17.17-.32.44-.54.5-.46.14-.48.38-.28.74a2.54,2.54,0,0,0,1.72,1.28c.18,0,.44.21.47.36s-.2.34-.37.58c.19.43.7.51,1.17.66a7.83,7.83,0,0,1,.79.34L56,57a3,3,0,0,0,2.42,1.31c-.14.2-.2.41-.33.47-.44.2-.32.43-.12.73,1,1.53,2,3.07,3,4.59a5.49,5.49,0,0,0,2.52,1.81,79.31,79.31,0,0,1,8.24,4.66,13.35,13.35,0,0,1,4,3.82,7.74,7.74,0,0,0,2.73,2.81,13.84,13.84,0,0,0,1.82.62,5.35,5.35,0,0,1-3.32-.35A5.22,5.22,0,0,0,80,79.9c1.23.4,2.5.64,3.9,1h-4c1.1,1.52,2.72,2,4.2,2.69l0,.19L81,83.33a2.5,2.5,0,0,0,.16.47c1.25,1.71,2.44,3.47,3.78,5.1a11.22,11.22,0,0,0,4.85,3.61,12.38,12.38,0,0,1,1.72.63H86.38l-.06.26c2.81,2,5.7,3.93,9.3,4.37v.14l-2,.2,0,.2c1.48,1.17,3.38,1.79,4.69,3.5l-2.32-.5-.06.12c1,1.11,2.06,2.24,3.13,3.33a14.06,14.06,0,0,1,3,4.36,1.82,1.82,0,0,1,0,.32l-1.27-1-.13.1c.2,1,1.21,1.81.88,3l-1.25-.71a17.59,17.59,0,0,1,.75,4.71l-.89-.56a7.86,7.86,0,0,1-.08,4.31c0,.17-.25.31-.37.47a1.53,1.53,0,0,0-.27.41c-.21.6-.4,1.21-.65,2,.8-.45,1.61-.72,2-1.48a11.44,11.44,0,0,0,1.33-6.86s0-.1.08-.21l1.09,1.76.21-.07c.76-1.52.31-3.11.22-4.72l.71,1,.17-.06-1.24-5.72.19-.09,1.21,1.94.14,0c-.24-1.69-.47-3.39-.71-5.09l.11,0,1,1.64.25-.12c-.27-.57-.51-1.15-.8-1.71s-.61-1.09-.91-1.63l.12-.12,1.59.73L103.84,99l.17-.16,1.14.59.1-.08c-.52-.77-1.1-1.52-1.56-2.33-.65-1.13-1.25-2.31-1.8-3.5a5.61,5.61,0,0,1-.22-1.38l.18-.06,1.22,1.66c-1.12-2.93-2.4-5.77-3.63-8.62l.2-.13,1.88,1.4.13-.13a14.82,14.82,0,0,1-.39-1.56,8.69,8.69,0,0,1,.66-5.45,8.73,8.73,0,0,0,.46-1.86l.71,1.78.2,0,1.1-5.41.46,1.37,1.06-2.32H106l.21,1.14c.13,0,.22,0,.23-.07A6.34,6.34,0,0,1,110.32,71c1.51-.5,3-1,4.52-1.52a9.29,9.29,0,0,0,1.09-.58l-.33.82h.7c-.42,1.65-.82,3.27-1.23,4.88l.14.11a12.56,12.56,0,0,1,3.47-2.16,22.24,22.24,0,0,0-3.82,6.23l2-2.11.18.13c-.63,1.81-2,3.36-2.08,5.36l.17.08.75-1.1c-.42,2.08-.91,4.13.49,6l.23,0,.75-1.73a13.29,13.29,0,0,0,1.17,4.34l.24,0,1-2.46c1,4.59,1.85,9.07.8,13.77l.77-.36c-.11.5-.18.88-.29,1.26-.17.63-.43,1.25,0,1.89,0,.07-.1.34-.21.44-.47.4-1,.76-1.45,1.17a5.82,5.82,0,0,0-.52.66l.1.19,2.33-.53L116.54,111l.15.17,1.56-.84a7.87,7.87,0,0,1-2,3.79c-.88,1.06-1.81,2.09-2.72,3.13l.09.13L115.6,116l.11.1a18.45,18.45,0,0,1-5.28,6.24l.11.21,2.19-.75c.09,0,.17-.12.26-.13s.33,0,.49,0c0,.18,0,.42-.1.51a17.49,17.49,0,0,1-2.54,2.2,28.08,28.08,0,0,1-3.49,1.56l-.37.17a5.11,5.11,0,0,0,3.08-.08,4.22,4.22,0,0,1-2.19,1.2c-.71.2-1.44.35-2.15.55a2.78,2.78,0,0,0-.6.34l0,.23,1.34-.06c-1.18.74-2.61.75-3.36,2l1.84-.45c-1.36,2.14-3.67,2.3-5.61,3.17a6.23,6.23,0,0,0,3.93-.17,4.39,4.39,0,0,1-2.38,1.2c-1.45.23-2.93.33-4.38.55a17.59,17.59,0,0,0-2.24.59c-.33.09-.64.26-1,.37a2,2,0,0,0-.85.6,3.86,3.86,0,0,1-1.49.69,3.18,3.18,0,0,1-1,.07L70.77,137q-7.06,0-14.12,0c-6.28,0-12.57-.06-18.85-.07-.5,0-.62-.17-.61-.64a8.58,8.58,0,0,1,1-4.3,3.56,3.56,0,0,1,1.89-1.56c.89-.35,1.74-.82,2.62-1.21a5.94,5.94,0,0,1,5,.14,65.13,65.13,0,0,0,6.61,2.52,20.46,20.46,0,0,0,4.37.61c1.06.07,1.46-.61,1-1.49-1.34-2.49-2.64-5-4-7.46a36.42,36.42,0,0,0-2.65-4,5.75,5.75,0,0,0-1.65-1.13.42.42,0,0,0-.41,0,.51.51,0,0,0-.07.46c.23.44.51.86.78,1.28a3.82,3.82,0,0,0,.34.4,2.65,2.65,0,0,1-2.88-1.25,15.65,15.65,0,0,1-.84-2.26,4.39,4.39,0,0,0-.27-.53,2.44,2.44,0,0,0-.41.56,3.68,3.68,0,0,0-.09.83,2.86,2.86,0,0,1-1.19-1.72c-.43-1.45-.83-2.9-1.25-4.36,0-.06-.07-.12-.25-.16v1.93h-.18a6.48,6.48,0,0,1-.6-4.17l-1.46-.44c.57-.25,1-.42,1.49-.65a5.28,5.28,0,0,0,2.32-3,.77.77,0,0,0,0-.45c-.18-.9-.34-1.8-.56-2.68a1.83,1.83,0,0,0-1.61-1.56c-1.22-.09-2.47,0-3.7,0-.3,0-.4.14-.33.45.41,1.82.76,3.67,2.22,5,0,0,0,.08,0,.28l-2.07-.62.83,2.6-.1.12-1.42-1.25.76,4.47-1.49-1.72-.18.09c-.21,1.39-.16,2.85-1,4.21a3.94,3.94,0,0,0-.31-.62c-.41-.58-.82-1.16-1.27-1.71-.2-.25-.4-.19-.56.13a38.12,38.12,0,0,0-3.44,8.37c-.28,1.13-.36,2.31-.56,3.45a6.17,6.17,0,0,1-1.38,3.52.94.94,0,0,0-.12.6c0,2.62,0,5.25,0,7.88,0,.48-.13.63-.62.62q-14.16,0-28.3,0c-.39,0-.6-.08-.73-.48a5.15,5.15,0,0,1-.4-2.9c.48-1.91,1.66-4,4.33-3.63a1,1,0,0,0,.72-.25,4.8,4.8,0,0,1,5.1-.93c.5.18.71.08.9-.41,1.31-3.42,2.68-6.82,4-10.25.78-2.09,1.45-4.22,2.14-6.34a4.41,4.41,0,0,0,.18-1.2c0-1.26,0-2.53,0-3.79a110.21,110.21,0,0,1,.87-13.59.71.71,0,0,0-.06-.19l-1.14.1c.73-.9,1.51-1.67,1.39-2.89l-1.86.81-.09-.11c1.34-1.55.7-3.38.81-5.16L15.21,87l-.15-.16a3.1,3.1,0,0,0,1.08-2.4l-.59.45A6.69,6.69,0,0,0,15,81.21l-.46,1.66c-.76-1.42-.76-3-1.5-4.41l-.17,0V80c-.7-.74-1.12-2.15-1.6-4.76l-.44,1.19a6,6,0,0,1-.72-4.51,9.26,9.26,0,0,1,2-4.14l-2.5-.63a6.11,6.11,0,0,0,2.25-3l-1.2.06.92-1.58H9.64a7.07,7.07,0,0,0,2.44-3.74l-.77-.11c.4-.52.94-.94.63-1.74a6.29,6.29,0,0,0-1.85,2.43,7,7,0,0,1,.4-3.77c.46-1.18,1-2.32,1.6-3.62l-1.54.9a6,6,0,0,1,.92-2.42c.45-.71,1-1.39,1.48-2.15l-.65.13a.91.91,0,0,1,0-.38c.47-.77.94-1.55,1.45-2.3a4.67,4.67,0,0,0,.57-2.07l-1.16.52.92-2-1.49.11,1.57-1.82-1.49-.07,1.42-1.84L14,38.51l-1.22.2c.74-.81,1.6-1.37,1.85-2.4Z"/></svg>