<svg xmlns="http://www.w3.org/2000/svg" viewBox="0 0 118.03 130.71"><title>graphic12</title><path d="M91.6,89.37c2.55-1.5,5.61-2.5,6.1-6.52-2.11.86-4,1.2-5.77.12l-1.15,1.72H89l-1.34-1.4a9.6,9.6,0,0,0,.5-1.93c.07-1.84,0-3.69,0-5.53a6.8,6.8,0,0,0-1.44-4.37c-1.45-1.78-1.84-3.88-2.42-5.93a14.83,14.83,0,0,0-2.25-5.43c-1.28-1.58-1.15-3.3-1-5.07,0-.4.4-.77.48-1.18a7.43,7.43,0,0,0,0-1.33l-2.89-4.27L74,47.49l-4.79,3.42a12.69,12.69,0,0,1-2.64,0c-.72-.16-1.37,1-2.1,0l-3.39,1.74c-.86,0-2-.08-3.06,0a6.84,6.84,0,0,1-4.79-1.15,4.42,4.42,0,0,0-2.83-.52,10.24,10.24,0,0,1-4.78-1.14,19.48,19.48,0,0,1-2.82-1.88,3.42,3.42,0,0,1-.64-.85,3.44,3.44,0,0,0-3.51,1.68A4.27,4.27,0,0,1,36,50.92a3.65,3.65,0,0,0-2.59,2.41v2.91l-1.71,1.38v5.76a46.91,46.91,0,0,1-2.77,3.84,5.07,5.07,0,0,0-.94,5c.6,1.83.17,3.59.4,5.36-1.11,1.33-.28,3.08-1,4.56a9.68,9.68,0,0,0-.6,3.61,26.31,26.31,0,0,0,0,3.87c.11,1.22-.29,2.44.46,3.69.55.91-.41,2.34.63,3.33-.19,2.19.78,4.06,1.85,6-4.1-.22-7.16-2.9-11.23-3.86-2.34-2.16-3.89-5.81-7.29-7C9.47,90.36,9.56,88.17,8.1,86.8a2.75,2.75,0,0,1-.75-1.61c-.31-2.94-2.25-5-3.84-7.65v-3.9L1.79,71.11c0-1.25-.09-2.55,0-3.82a4,4,0,0,0-.65-2.78,2.68,2.68,0,0,1-.47-2c.09-1,.74-2.27.36-3-.53-1-.27-1.95-.36-2.9s0-2.22,0-3.32c0-.7.17-1.38-.43-2.06a2.22,2.22,0,0,1-.08-1.85,8.67,8.67,0,0,0,0-5.67,8.85,8.85,0,0,1,1-6.16c.31-.61.65-1.21,1.1-2,0-1,0-2.32,0-3.6A7.73,7.73,0,0,1,4.82,26,19,19,0,0,0,7,23.83,9.26,9.26,0,0,0,8.41,21.4c1.43-3.83,3.09-5.2,6.28-6.41,1-.39,1.57-1.36,2.61-1.58,1.12-2.52,3.62-3.06,5.82-4,.71-.31,1.47-.48,2.44-.79a9.42,9.42,0,0,1,9-3.58A12.81,12.81,0,0,1,44.05,2.8c2-1.84,4.4-.94,6.65-1.21,4.22-2.16,6.35-2.11,11.14.09,2.75-1.42,5.28-.18,8.27,1.05a10.59,10.59,0,0,1,7.3,1.66H80a7.66,7.66,0,0,1,5.5,2.07,4.19,4.19,0,0,0,2.53,1.27,11.14,11.14,0,0,1,6,2.85A8,8,0,0,0,97,12.19a8.43,8.43,0,0,1,5,3.73,3,3,0,0,0,1.48,1.3,10.23,10.23,0,0,1,5,5,9.25,9.25,0,0,0,1.37,1.91c1.42,1.48,3,2.8,3.75,4.84v2.48L117,36.74c0,1.06,0,2.16,0,3.26.15,2.69.41,5.38.52,8.07a4.51,4.51,0,0,1-.41,2.6c-.35.64.19,1.84.46,2.74a7.74,7.74,0,0,1,.15,4.87c-.26,1.46-.88,2.85-.78,4.42.08,1.2-.47,2.43-.47,3.64,0,1.5-.49,3.09.52,4.48-.13,3.08-.92,5.89-3.32,8.07,0,.61,0,1.26,0,1.9a3.92,3.92,0,0,1-1.37,3.31,5.12,5.12,0,0,0-2,3.9,2.9,2.9,0,0,1-.74,1.6c-.86,1.14-1.82,2.2-2.72,3.31-.61.75-1.12,1.59-1.78,2.3-1,1-1.63,2.23-3.16,2.91s-2.76,2.11-4.33,2.93a7.63,7.63,0,0,1-3,1.27c-1.13,0-2,.73-3.09.65-.52,0-1,0-1.47,0C90.53,98.27,91.07,93.81,91.6,89.37ZM19.58,86a3.68,3.68,0,0,1,.47.78,5.51,5.51,0,0,1,.12,1.13C22,89,22,89,23.36,88.87c.15-1-.06-1.85-1.22-1.94a1.45,1.45,0,0,1-1.57-1.43c0-.06-.23-.1-.34-.14Z"/><path d="M42,94.11a41.06,41.06,0,0,1,4.31,0c2.82.32,5.37-.83,8-1.38a4,4,0,0,1,2.48,0,8.25,8.25,0,0,0,3.13,0c.61,0,1.42-.5,1.77-.25,1.58,1.11,3.48,1,5.19,1.47,2,.49,4.21.12,6.32.14a3.79,3.79,0,0,1,2,.46A3,3,0,0,1,76.59,96a10.36,10.36,0,0,1,1.1,3.7c.1,1.39.43,2.77.72,4.56L80.76,107l2.18-.76L84.3,108c-.08,1.55.3,3.53-.54,5.41-.21.47-.25,1.08-.58,1.41-1.36,1.37-2.55,2.88-3.89,4.25-2.26,2.31-5.08,4.06-6.73,7-.31.54-1.36.77-1.47,1.27-.17.82-.93.4-1.18.86a8,8,0,0,1-.78,1.33A14.34,14.34,0,0,1,68,130.66c-1.57,0-3.14.06-4.71,0-.76,0-1.71-.73-2.22-.45-1.58.85-3.2.32-4.78.45-.38,0-.78-.31-1.21-.5-2,1-4.22.31-6.41.58-4.61-4.61-9.27-9.2-13.82-13.88a16.76,16.76,0,0,1-2-3.29c-.17-.3-.32-.61-.55-1.06v-4.81l1.13-1.11,2.45.37c1.53-1.66,2.68-3.36,2.53-5.7A13.41,13.41,0,0,1,40,95.59,10.2,10.2,0,0,1,42,94.11Zm1.31,5.28a12.53,12.53,0,0,0,3.28,4.92,36.5,36.5,0,0,0,4.85,4.2,6.68,6.68,0,0,0,4.43.46,7.36,7.36,0,0,1,4.31,0,5.81,5.81,0,0,0,4.4-.47c2.26-1.47,4.54-2.88,6.1-5.29,1-1.49,1.87-2.75,1.23-4.84-.46-.11-1.24-.54-1.57-.31a12.4,12.4,0,0,1-4.4,1.38c-2.45.56-4.94.51-6.93-1.53a3,3,0,0,0-1.19-.52c-1.13.82-2,1.87-3,2.07a14,14,0,0,1-4.79-.1A47.25,47.25,0,0,1,45,98ZM51.57,116l2.34,2.1c2.44-1.33,4.66-.74,7,.29l1.63-1.75-.89-1.17C57.89,114.24,54.74,114.2,51.57,116Z"/><path d="M82.37,67c-2.48,0-4.72.47-6.62-.12-2.17-.68-4.35-.12-6.52-.87-1.94-.67-4.14.2-6.15.88a10.11,10.11,0,0,1-1.82.18c.85-.86,1.36-1.41,1.92-1.91a9.63,9.63,0,0,1,1.87-1.46,11.86,11.86,0,0,1,8.75-1.26,26.65,26.65,0,0,1,7,3A10.45,10.45,0,0,1,82.37,67Z"/><path d="M52.13,66.64c-2.63-.49-5.23-.13-7.8-.24a20.87,20.87,0,0,0-4.47.55c-1.39.24-2.81-.25-4.22.51-.71.38-1.78.07-2.56.07l-.73-.73a1.14,1.14,0,0,1,.17-.37,14.1,14.1,0,0,1,9.71-3.88,23,23,0,0,1,4.32.23,6.77,6.77,0,0,1,4.22,2.48A13.61,13.61,0,0,0,52.13,66.64Z"/></svg>