<svg xmlns="http://www.w3.org/2000/svg" viewBox="0 0 92.76 131.22"><title>graphic7</title><path d="M92.76,65.61A46.45,46.45,0,0,0,64.12,22.76,135.36,135.36,0,0,0,47.83,0,132.9,132.9,0,0,0,32.45,21.37,46.33,46.33,0,0,0,8.69,92.59a235.16,235.16,0,0,0-2.95,38.63s9.34-11.74,21-23.62a46.29,46.29,0,0,0,52.42-9.18c5.61,11.14,7.69,24.13,7.69,24.13a181,181,0,0,0-1.28-32.14A46,46,0,0,0,92.76,65.61ZM44.89,51.34,47.68,24.2l.37-3.57.37,3.61,2.79,27.1,9,2.25-8.12,4.07L54.37,68.5l-6.32-9-6.32,9L44,57.66l-8.13-4.07Zm-35,33.92A41.39,41.39,0,0,1,28.71,28.15C18.79,47.28,13.13,67.69,9.92,85.26ZM46.38,107a41.25,41.25,0,0,1-15.93-3.19c12.33-12,26.28-23,34.31-20.29,4.85,1.61,8.73,5.57,11.82,10.37A41.33,41.33,0,0,1,46.38,107ZM68.22,30.43A41.39,41.39,0,0,1,84.38,82.11,181.42,181.42,0,0,0,68.22,30.43Z"/></svg>