<svg xmlns="http://www.w3.org/2000/svg" viewBox="0 0 119.71 135.42"><title>graphic5</title><path d="M57.28,135.42q.34-8.74.69-17.49c.18-4.64.39-9.27.57-13.91A2.18,2.18,0,0,0,56,101.89c-1.93.16-3.86.44-5.79.67L28,105.24c-.12,0-.24,0-.45,0,.74-2.54,1.38-5.06,2.21-7.52A4.78,4.78,0,0,0,28,92c-9-7.6-18-15.26-27-22.9L0,68.14c.26-.16.45-.31.65-.41l5.5-2.68c1.26-.61,1.67-1.21,1.45-2.61a35.21,35.21,0,0,0-.86-3.76C5.39,53.47,4,48.26,2.65,43c-.06-.21-.09-.42-.17-.78l4.53,1,11.48,2.54c2.08.46,3.21-.23,3.78-2.29.64-2.36,1.28-4.72,2-7.24.27.3.47.5.65.72,4.12,4.82,8.22,9.65,12.36,14.45A6.73,6.73,0,0,0,39,52.93a1.92,1.92,0,0,0,3-1.45A9.32,9.32,0,0,0,42,48.32c-1.81-10.25-3.68-20.49-5.52-30.73a3.75,3.75,0,0,1,0-.48l.87.44c2.18,1.18,4.35,2.37,6.54,3.53a9.33,9.33,0,0,0,1.81.78,2.88,2.88,0,0,0,3.76-1.61c1.47-2.8,2.9-5.63,4.34-8.44L59.32.93l.5-.93c.24.44.43.78.61,1.14Q65.2,10.43,70,19.71c1.25,2.43,2.77,3,5.24,1.69s4.91-2.64,7.37-4c.19-.11.39-.19.71-.34-.43,2.38-.83,4.65-1.24,6.92-1.5,8.39-3,16.78-4.49,25.18a6.21,6.21,0,0,0,.1,2.5,1.83,1.83,0,0,0,2.69,1.35,5.47,5.47,0,0,0,1.84-1.39c4.21-4.87,8.37-9.77,12.55-14.66l.67-.76c.22.78.42,1.44.6,2.11.47,1.72.93,3.45,1.4,5.17.55,2,1.69,2.71,3.72,2.26l14.78-3.26,1.27-.26c-.11.51-.2.94-.31,1.37-1.55,6-3.13,11.94-4.65,17.92-.55,2.17-.21,2.75,1.77,3.71s3.76,1.85,5.74,2.83l-1.08.94Q105,80.58,91.44,92.12a4.54,4.54,0,0,0-1.59,5.34c.8,2.54,1.5,5.1,2.29,7.81l-3.5-.39-24.18-2.94q-.37,0-.75-.06a2.2,2.2,0,0,0-2.47,2.4q.21,9.07.43,18.16.16,6.5.32,13Z"/></svg>