<svg xmlns="http://www.w3.org/2000/svg" viewBox="0 0 135.72 110.62"><title>graphic10</title><path d="M20,53.64a24.54,24.54,0,0,0-7-4c-2.06-.77-4.21-1.31-6.25-2.11-2.87-1.13-5.25-2.88-6.29-6a7.65,7.65,0,0,1,5.39-10,7.74,7.74,0,0,1,5.51,1c.53.27,1,.6,1.59,1a4.09,4.09,0,0,0,.12-.56,7.54,7.54,0,0,1,6.7-7.21c4.7-.71,8.14,2.72,8.84,6.81.62,3.68-.33,7.1-1.78,10.42a46.21,46.21,0,0,1-6.45,10.29A4.58,4.58,0,0,1,20,53.64Z"/><path d="M58.74,81.87a30.32,30.32,0,0,1,0-4.06c.52-3.58,4.25-6.13,8.14-5.44a7.65,7.65,0,0,1,6.54,6.38A18.69,18.69,0,0,1,73.76,84a30.64,30.64,0,0,0,.47,9c.21.94.57,1.84.9,2.86-.83.27-1.65.56-2.49.79a38.67,38.67,0,0,1-13.47,1.66c-3.5-.26-6.81-1.15-9.26-3.91C45.58,89.52,48.77,83,53.53,81.61a8,8,0,0,1,4.46,0Z"/><path d="M28.88,27.15a20.05,20.05,0,0,0-5.25-5.87c-1.26-1-2.62-1.85-4-2.73a11.85,11.85,0,0,1-5.2-6.17A7.45,7.45,0,0,1,20,2.74c2.69-.51,4.83.63,6.69,2.43a7.63,7.63,0,0,1,.53.66,24.83,24.83,0,0,1,1.35-2.59A7.24,7.24,0,0,1,36.29.13a7.32,7.32,0,0,1,6.18,5.65c.83,2.89.12,5.61-1.15,8.19-2,4.17-5.23,7.4-8.76,10.33C31.39,25.27,30.15,26.17,28.88,27.15Z"/><path d="M88.26,65.28a52,52,0,0,0-.85-5.58,60.33,60.33,0,0,0-2.18-6.22c-1-2.64-1.81-5.26-1-8.15,1-4,6.56-7.53,11.35-4.13a7.64,7.64,0,0,1,2.84,5,4.55,4.55,0,0,1,.1.59,23.41,23.41,0,0,1,3-1.47,7.21,7.21,0,0,1,7.58,1.84,7.08,7.08,0,0,1,2.16,7.27,10.31,10.31,0,0,1-4.53,6c-4.06,2.8-8.72,3.8-13.5,4.39C91.54,65.08,89.85,65.15,88.26,65.28Z"/><path d="M58.58,52.5a19.14,19.14,0,0,1,1.23-1.65,7.11,7.11,0,0,1,8.74-1.09,6.75,6.75,0,0,1,2.14,8.61,14.93,14.93,0,0,1-2.13,3.21c-1.37,1.62-2.85,3.15-4.33,4.68a25.23,25.23,0,0,0-4.7,6.91c-.11.24-.23.47-.38.76a1,1,0,0,1-.27-.16c-3.62-3.54-7.25-7-10.83-10.63a12.49,12.49,0,0,1-3.43-5.74,9.47,9.47,0,0,1,.64-6.91c2.52-4.86,8.16-4.26,10.84-1.46A28.44,28.44,0,0,1,58.24,52C58.36,52.11,58.45,52.29,58.58,52.5Z"/><path d="M113.79,51.78c-.3-2.2-.47-4.31-.89-6.37a26.46,26.46,0,0,0-1.43-4.36,11.69,11.69,0,0,1-.81-7.55c1.36-4.83,7.68-6.72,11.13-3.32a7.53,7.53,0,0,1,2,4c.06.34.13.68.2,1,.62-.34,1.18-.7,1.79-1a7.16,7.16,0,0,1,9.94,7c-.21,2.93-1.89,5-4.23,6.64a21.66,21.66,0,0,1-8.6,3.26A40.07,40.07,0,0,1,113.79,51.78Z"/><path d="M23.6,60.8c.57-.77,1.08-1.53,1.65-2.23,2.95-3.53,8.16-2.31,10.07,1.28,1.53,2.88.89,5.45-.74,8a11.57,11.57,0,0,1-1.65,2c-3.75,3.71-4.29,4.4-6.82,8.94-1.91-1-3.87-2-5.73-3.06a21.94,21.94,0,0,1-7.59-6.87,8.16,8.16,0,0,1-1.21-7.08,6.16,6.16,0,0,1,5.5-4.34,6.06,6.06,0,0,1,6,2.7Z"/><path d="M100.78,20.93c-3.06-1.66-6.17-3.28-9.22-5-2.76-1.56-4.79-3.73-5.23-7C86,6.19,86.39,3.73,88.72,2,91.58-.06,96.55.25,98.29,4.2a3.17,3.17,0,0,0,.22.32l.19-.39A6,6,0,0,1,106.07.67a6.1,6.1,0,0,1,4,7,11.33,11.33,0,0,1-3.29,5.63,18,18,0,0,1-1.35,1.27C102.51,17,102,17.67,100.78,20.93Z"/><path d="M64.22,34.11a23.47,23.47,0,0,1,.51-3,6.06,6.06,0,0,1,8.62-3.36c2.74,1.48,4.21,4.95,3.13,8.69-.5,1.72-1.42,3.31-2,5-.74,2-1.4,4-2,6-.16.51-.4.55-.8.49-2.9-.41-5.8-.83-8.71-1.23A11.24,11.24,0,0,1,57.74,45c-3.36-2.36-4.23-6.5-2-9.62a6,6,0,0,1,7.48-1.83Z"/><path d="M34.77,44.21c.1-.4.18-.68.25-1,.64-2.55,2.55-4.13,4.86-4a5.38,5.38,0,0,1,5,4.64,9,9,0,0,1-.77,4.72A18,18,0,0,0,42.31,56c0,.49-.21.65-.68.65a24.08,24.08,0,0,1-10.83-2,8.61,8.61,0,0,1-4.32-3.93,5.35,5.35,0,0,1,7.44-7Z"/><path d="M37.69,74.59c.15-.63.24-1.18.41-1.71a4.92,4.92,0,0,1,5.08-3.65,4.26,4.26,0,0,1,4.11,3.86,24.46,24.46,0,0,1,.18,5.61A22,22,0,0,1,45.69,86a1.11,1.11,0,0,1-.77.61,25.29,25.29,0,0,1-11.38-2.51,7.81,7.81,0,0,1-4.12-4.45,4.59,4.59,0,0,1,1.43-5.31,5,5,0,0,1,5.59-.46C36.84,74.05,37.21,74.3,37.69,74.59Z"/><path d="M122.39,27.43c-2.25-.75-4.52-1.44-6.75-2.26a12.81,12.81,0,0,1-5.67-4.1,5.6,5.6,0,0,1-1.06-5.89,5.14,5.14,0,0,1,8-1.92l.77.67c.24-.56.44-1.11.7-1.62a4.78,4.78,0,0,1,5.68-2.68,5.39,5.39,0,0,1,3.81,5.69,9.46,9.46,0,0,1-1.51,4c-.87,1.39-1.79,2.75-2.53,4.21A37.41,37.41,0,0,0,122.39,27.43Z"/><path d="M52.73,26.6c-2.67-1.67-5.3-3.25-7.85-4.94a6.07,6.07,0,0,1-2.79-6.82,5.34,5.34,0,0,1,4.5-4,4.88,4.88,0,0,1,5,2.17c.07.1.16.2.29.36.33-.55.59-1.07.93-1.53a5,5,0,0,1,5-2.18,4.66,4.66,0,0,1,4.24,3.64A5.78,5.78,0,0,1,61.24,18a19.92,19.92,0,0,1-4.45,4.34,39.22,39.22,0,0,0-3.44,3.5C53.15,26.05,53,26.29,52.73,26.6Z"/><path d="M75,63.21c.18-.74.29-1.4.5-2a5.28,5.28,0,0,1,4.85-3.6,4,4,0,0,1,4,2.9,11.88,11.88,0,0,1,.43,6.14,63.49,63.49,0,0,1-1.57,6.89,1.06,1.06,0,0,1-.72.68c-3.84.22-7.65.08-11.26-1.44-2.16-.9-3.94-2.24-4.49-4.7A4.84,4.84,0,0,1,70,62.43a5.18,5.18,0,0,1,4.28.46C74.49,63,74.69,63.08,75,63.21Z"/><path d="M78.54,18.35c1.13-3.08,3.2-4.3,6.15-3.74a4.6,4.6,0,0,1,3.54,4.2,8.42,8.42,0,0,1-1,4.51c-1.64,3.3-4.2,5.81-7.2,8.31a3.08,3.08,0,0,0-.37-.65,19.58,19.58,0,0,0-5.64-4.07c-1.87-.94-3.52-2.15-4.12-4.27a5,5,0,0,1,2.16-5.55,4.57,4.57,0,0,1,5.59.57Z"/><path d="M119.61,71a21.07,21.07,0,0,0-5.92-5.53,6.75,6.75,0,0,1-3-4.21A4.93,4.93,0,0,1,113,56.06a4.46,4.46,0,0,1,5.45,1c.29.28.54.58.86.93.16-.27.28-.47.39-.67a4.59,4.59,0,0,1,5.5-2.4,4.69,4.69,0,0,1,3.47,4.91,9.72,9.72,0,0,1-2.39,5.54A25.79,25.79,0,0,1,120,70.84,2.74,2.74,0,0,1,119.61,71Z"/><path d="M104.12,80.26a20.85,20.85,0,0,0-3.73-7.2A6.81,6.81,0,0,1,99,69a4.69,4.69,0,0,1,3.78-4.68,4.38,4.38,0,0,1,5,2.93c.11.26.21.53.3.75a13.27,13.27,0,0,1,2.06-1.33,4.63,4.63,0,0,1,5.18,1.16A4.46,4.46,0,0,1,116,73a11.22,11.22,0,0,1-2.5,3.1C110.81,78.34,107.56,79.4,104.12,80.26Z"/><path d="M92.22,77.54c.19-.53.34-1,.54-1.47a4.4,4.4,0,0,1,5-2.56,4.5,4.5,0,0,1,3.58,4.31A6.59,6.59,0,0,1,100,81.9c-1.56,2.21-3.17,4.38-4.85,6.69-1.64-.63-3.49-1.32-5.33-2.06a19.76,19.76,0,0,1-3-1.35,5.08,5.08,0,0,1-1.6-7.3,4.34,4.34,0,0,1,6.46-.74Z"/><path d="M89.86,37.26c-.89-3.75-1.6-7.43-.2-11.15A5.13,5.13,0,0,1,92,23.32a3.92,3.92,0,0,1,4.66.4,4,4,0,0,1,1.47,4.45c0,.18-.08.36-.12.54a17.69,17.69,0,0,1,1.93,0,4,4,0,0,1,3.62,3.44,4.46,4.46,0,0,1-2.5,4.49,6.8,6.8,0,0,1-4,.52,18.14,18.14,0,0,0-6.57,0A3.07,3.07,0,0,1,89.86,37.26Z"/><path d="M45.29,39.75c-1.75-2-3.54-4-5.15-6a6,6,0,0,1-1.22-5.91,4.55,4.55,0,0,1,4.34-3.14,4.37,4.37,0,0,1,4.3,3c.08.28.12.57.19.91a10.14,10.14,0,0,1,1.69-1,4.2,4.2,0,0,1,5.1,1.61,4.4,4.4,0,0,1-.95,5.44,11.19,11.19,0,0,1-4.21,2.3A7.48,7.48,0,0,0,45.29,39.75Z"/><path d="M82.81,88.13l.75-.61a3.54,3.54,0,0,1,4.53-.18,3.89,3.89,0,0,1,1,4.75,5.68,5.68,0,0,1-2.45,2.38,16.66,16.66,0,0,0-5.18,3.88c-2.57-2.15-4.93-4.43-5.84-7.73a4.09,4.09,0,0,1,1.14-4.56,3.7,3.7,0,0,1,5.75,1.3C82.58,87.57,82.67,87.8,82.81,88.13Z"/><path d="M68.54,101.63a3.52,3.52,0,0,1,3.3-1.51,3.45,3.45,0,0,1,2.5,5.28,8.71,8.71,0,0,1-3.71,3.48c-1.15.62-2.38,1.1-3.59,1.64-.37.16-.61.17-.88-.3-.87-1.47-1.86-2.87-2.78-4.31a11.61,11.61,0,0,1-1.27-2.31,3.44,3.44,0,0,1,2-4.31c1.63-.63,3.19,0,4.14,1.81C68.33,101.23,68.41,101.37,68.54,101.63Z"/><path d="M10.82,20.5a13.25,13.25,0,0,1,2.52-1.39,2.87,2.87,0,0,1,3.48,2.12A4.11,4.11,0,0,1,14.91,26a13.74,13.74,0,0,0-4.22,4c-.74-.54-1.48-1-2.14-1.57a12,12,0,0,1-4-5.05,4.13,4.13,0,0,1,.83-4.12A3.45,3.45,0,0,1,9.54,19,7.09,7.09,0,0,1,10.82,20.5Z"/><path d="M9.29,52.55c.47-.2.87-.41,1.29-.56a3,3,0,0,1,3.3.85,2.55,2.55,0,0,1,.22,3.21A6.22,6.22,0,0,1,12.4,58c-1.55,1-3.21,1.92-4.83,2.85a.85.85,0,0,1-1.22-.33c-1.49-2-2.87-4.07-3.19-6.6a6.27,6.27,0,0,1,.34-2.74,2.8,2.8,0,0,1,2.89-1.88,3.11,3.11,0,0,1,2.77,2.54C9.21,52,9.24,52.26,9.29,52.55Z"/><path d="M132.09,26a11.26,11.26,0,0,1,1.94.8,3.11,3.11,0,0,1,1.16,3.43,3.52,3.52,0,0,1-2.93,2.21,10.53,10.53,0,0,1-6.39-1.82c-.55-.31-1.07-.69-1.42-.91.61-1.93,1.19-3.73,1.74-5.53s2.06-3.11,3.72-2.95a3,3,0,0,1,2.51,4C132.32,25.46,132.19,25.73,132.09,26Z"/><path d="M107.73,25.36a3.36,3.36,0,0,1,3.16-1.06,2.44,2.44,0,0,1,1.87,3.12,6.9,6.9,0,0,1-1.47,2.46,43.14,43.14,0,0,1-3.85,3.27.92.92,0,0,1-.88,0,13.83,13.83,0,0,1-3.89-4.67,4.74,4.74,0,0,1-.45-3.59,2.57,2.57,0,0,1,2.36-2,2.77,2.77,0,0,1,2.79,1.66C107.48,24.75,107.58,25,107.73,25.36Z"/><path d="M78.14,51.15c.33-.13.65-.26,1-.36a2.53,2.53,0,0,1,3.09,1.05,2.77,2.77,0,0,1-.3,3.43,8.09,8.09,0,0,1-2.25,1.34c-.75.32-1.61.41-2.39.7S75.82,58,75,58.38c-1.49-2.23-3-4.49-2.7-7.4a2.87,2.87,0,0,1,2.84-2.76c1.57,0,2.56.93,2.9,2.68A1.43,1.43,0,0,0,78.14,51.15Z"/><path d="M82.49,33.28a12.41,12.41,0,0,1,.66-1.15,2.46,2.46,0,0,1,2.9-1,2.88,2.88,0,0,1,2,2.38,4.14,4.14,0,0,1-.65,2.61c-.91,1.51-1.81,3-2.77,4.62-2.22-.62-4.61-1.36-6.33-3.36-1.34-1.54-1.22-3.5.22-4.55a2.78,2.78,0,0,1,3.44,0C82.15,33,82.31,33.13,82.49,33.28Z"/><path d="M104.82,38.31a9.24,9.24,0,0,1,.51-1.33,2.4,2.4,0,0,1,2.41-1.31,2.21,2.21,0,0,1,2,1.75,8.72,8.72,0,0,1-.15,4.78c-.78,2.89-.31,2.45-3,2.15a7.89,7.89,0,0,1-4.86-1.91,4.79,4.79,0,0,1-1.07-1.74,2.05,2.05,0,0,1,.65-2.34,2.41,2.41,0,0,1,2.48-.53C104.1,38,104.43,38.13,104.82,38.31Z"/><path d="M116.13,4.32l.87-.23a2.89,2.89,0,0,1,3.1,1.2,2.06,2.06,0,0,1-.48,2.83,12,12,0,0,1-5.91,2.57.66.66,0,0,1-.51-.26,12.57,12.57,0,0,1-2.45-5.38,4.64,4.64,0,0,1,0-1.44,2.47,2.47,0,0,1,2.5-2.27A2.77,2.77,0,0,1,116,3.7C116,3.88,116.08,4.06,116.13,4.32Z"/><path d="M63.08,29.9a12.53,12.53,0,0,1-4.55-3.61,3.32,3.32,0,0,1-.77-2.93,2.3,2.3,0,0,1,1.87-1.87,2.85,2.85,0,0,1,2.91,1c.12.14.23.3.37.49.3-.26.57-.51.85-.74a2.33,2.33,0,0,1,3.6.35,2.67,2.67,0,0,1-.26,3.7C65.79,27.41,64.5,28.61,63.08,29.9Z"/><path d="M34.9,33.4a10.42,10.42,0,0,1,1.41-.4,2.27,2.27,0,0,1,2.37,1,2.06,2.06,0,0,1,0,2.42,8.36,8.36,0,0,1-3.31,2.73,10.66,10.66,0,0,1-1.62.72c-1.26.48-1.26.47-2-.67a9.82,9.82,0,0,1-2-5,5.22,5.22,0,0,1,.56-2.36,2.06,2.06,0,0,1,2.54-1,2.38,2.38,0,0,1,1.83,2C34.79,33,34.84,33.17,34.9,33.4Z"/><path d="M38.86,67.68c-.37-1.72-.67-3.13-1-4.54a3.28,3.28,0,0,1,.28-2.78,2.7,2.7,0,0,1,2.58-1.24,2.44,2.44,0,0,1,1.91,2.31c0,.13,0,.26,0,.47l.68-.18a2.49,2.49,0,0,1,2.63,4,4.78,4.78,0,0,1-3.16,1.6C41.46,67.53,40.08,67.59,38.86,67.68Z"/><path d="M51.27,79.93a11.41,11.41,0,0,1-2.55-5.31,5.61,5.61,0,0,1,.37-2.56,2.07,2.07,0,0,1,2.4-1.21,2.31,2.31,0,0,1,1.83,1.81c.06.23.1.47.16.75.42-.14.78-.29,1.15-.39a2.31,2.31,0,0,1,2.5,1,2.19,2.19,0,0,1-.37,2.68,11.05,11.05,0,0,1-4.37,2.8C52,79.69,51.68,79.79,51.27,79.93Z"/><path d="M90.55,68a2.86,2.86,0,0,1,2.28-1.32A2.4,2.4,0,0,1,95.09,70a4.66,4.66,0,0,1-1,1.35c-1,1-2.06,2-3.2,3.11a11,11,0,0,1-4.71-3.68,2.65,2.65,0,0,1,.08-3.36A2.59,2.59,0,0,1,89.45,67,8.93,8.93,0,0,1,90.55,68Z"/><path d="M48.7,4.3l.93,0a2.34,2.34,0,0,1,2.61,2.16,2.39,2.39,0,0,1-2.16,2.71c-.93.12-1.88.08-2.82.19-.74.08-1.46.27-2.3.43-.9-2-1.73-4.07-1.27-6.37A2.43,2.43,0,0,1,46.27,1.2a2.64,2.64,0,0,1,2.4,2.66C48.68,4,48.68,4.07,48.7,4.3Z"/><path d="M78.15,78.47c0-.35,0-.61,0-.87a2.42,2.42,0,0,1,2.21-2.36,2.35,2.35,0,0,1,2.56,1.85A7.23,7.23,0,0,1,83,78.77c0,1.23-.12,2.46-.09,3.69,0,.43-.11.58-.47.66a11.37,11.37,0,0,1-5.56.28c-1.51-.39-2.48-1.49-2.25-2.83a2.61,2.61,0,0,1,3-2.14Z"/><path d="M49.69,40.42a7.54,7.54,0,0,1,.33-.68,2.3,2.3,0,0,1,2.59-1.17,2,2,0,0,1,1.31,2.11,10.61,10.61,0,0,1-1.23,4.71.68.68,0,0,1-.49.32A8.74,8.74,0,0,1,46.68,44a2.24,2.24,0,0,1-.82-2.38,1.85,1.85,0,0,1,1.57-1.45A11,11,0,0,1,49.69,40.42Z"/><path d="M76.68,43.07a10.09,10.09,0,0,1,.39-2.36,1.76,1.76,0,0,1,2.69-.59,6.94,6.94,0,0,1,2.13,3.26,4.84,4.84,0,0,1,.17.54c.66,2.24.57,1.8-1.2,2.66a6.66,6.66,0,0,1-4.53.74,2.3,2.3,0,0,1-2-2.21,2.2,2.2,0,0,1,2.23-2C76.69,43.08,76.79,43.06,76.68,43.07Z"/><path d="M129.4,51.35a7.15,7.15,0,0,1,.64-1.44,1.7,1.7,0,0,1,1.87-.66,1.8,1.8,0,0,1,1.35,1.65,18,18,0,0,1,0,3.44c-.2,1.59-.28,1.64-1.88,1.5a11,11,0,0,1-3-.59,4.39,4.39,0,0,1-1.73-1.36,1.7,1.7,0,0,1,.06-2.17,1.87,1.87,0,0,1,2.1-.59Z"/><path d="M79.57,14.14c-.76-1.76-1.6-3.53-.94-5.55a2,2,0,0,1,1.93-1.42,1.92,1.92,0,0,1,1.9,1.34,6.83,6.83,0,0,1,.16,1l.55-.06c1.26-.16,2.09.34,2.29,1.35a2.13,2.13,0,0,1-1.58,2.54c-.52.14-1.06.15-1.59.25Z"/><path d="M12.15,13.52a5.79,5.79,0,0,1,1.53.28,1.76,1.76,0,0,1,.07,3,4.58,4.58,0,0,1-1.83.47,23.25,23.25,0,0,1-2.64.17.82.82,0,0,1-.65-.31A7.81,7.81,0,0,1,8.24,13a2.27,2.27,0,0,1,1.91-1.83A1.93,1.93,0,0,1,12,12.43,6.65,6.65,0,0,1,12.15,13.52Z"/><path d="M33.88,26.21c.1-.28.11-.59.27-.72.36-.31.8-.75,1.21-.75a1.54,1.54,0,0,1,1.13.79,5.3,5.3,0,0,1-.06,3.7.51.51,0,0,1-.41.29,17.62,17.62,0,0,1-3.27-.58,1.62,1.62,0,0,1-1.1-2.05C31.93,26.13,32.67,25.89,33.88,26.21Z"/><path d="M3,28.15c.35-.54.62-1.32,1.46-1s.86,1,.8,1.75c-.15,2,0,2.23-2.33,1.75a3.08,3.08,0,0,1-.54-.16,1.46,1.46,0,0,1-1.07-1.66C1.55,28.16,2.05,28,3,28.15Z"/><path d="M104.91,18.44c.2-.72.52-1.28,1.28-1.14s.93.79.93,1.48c0,2.45-.18,2.53-2.61,2a1.51,1.51,0,0,1-.37-.15c-.79-.4-1.17-1.06-.92-1.66C103.55,18.18,104.19,18.23,104.91,18.44Z"/><path d="M23.5,53.37c.11-.26.15-.53.3-.63a1.8,1.8,0,0,1,1-.47c.29,0,.76.4.78.65a14.45,14.45,0,0,1-.06,2.63c0,.15-.39.41-.57.39a10.09,10.09,0,0,1-2.26-.47,1.24,1.24,0,0,1-.84-1.61C22.19,53.16,22.79,53.13,23.5,53.37Z"/><path d="M40.17,21.31c.19,0,.4-.12.55-.06.37.15.85.3,1,.6a1.09,1.09,0,0,1-.19,1.06,14.57,14.57,0,0,1-2.26,1.33c-.11.06-.44-.09-.5-.22A10.7,10.7,0,0,1,38,22c-.21-.95.16-1.65.81-1.78C39.62,20,39.92,20.65,40.17,21.31Z"/><path d="M77.15,98.34a2,2,0,0,1,.66,0c.35.14.82.27,1,.55a1.14,1.14,0,0,1-.15,1.07,14.46,14.46,0,0,1-2.26,1.31.59.59,0,0,1-.53-.19A14,14,0,0,1,75,98.73a1.13,1.13,0,0,1,.89-1.48C76.61,97.09,77,97.58,77.15,98.34Z"/><path d="M64.53,17.53c.21,0,.39-.12.52-.07.35.13.85.25,1,.51a1.24,1.24,0,0,1-.14,1.14,11.35,11.35,0,0,1-2.22,1.21c-.15.06-.56-.17-.68-.37a7.29,7.29,0,0,1-.7-1.53,1.56,1.56,0,0,1,.71-2C63.6,16.21,64,16.51,64.53,17.53Z"/><path d="M92.05,18.86c.24,0,.45-.12.61-.06.35.14.82.27,1,.55a1.12,1.12,0,0,1-.15,1.07,15.25,15.25,0,0,1-2.25,1.32.63.63,0,0,1-.56-.23,10.7,10.7,0,0,1-.85-2.22,1.25,1.25,0,0,1,.9-1.57C91.29,17.61,91.74,18,92.05,18.86Z"/><path d="M20.82,21.62a6.65,6.65,0,0,1,1.07.11A.81.81,0,0,1,22.36,23a1.59,1.59,0,0,1-.54.58c-.68.38-1.39.72-2.09,1.08a16.9,16.9,0,0,1-1.12-2.51,1.19,1.19,0,0,1,.92-1.54C20.05,20.45,20.53,20.84,20.82,21.62Z"/></svg>