<svg xmlns="http://www.w3.org/2000/svg" viewBox="0 0 305.37 363.54"><title>mens-clip-mask</title><path d="M244.51,123c-.75.88-1.37,1.54-1.91,2.27a5,5,0,0,0-.87,1.66c-.49,2.13-.84,4.3-1.33,6.43A96.4,96.4,0,0,0,238.26,146c-.25,2.54-.9,5-1.2,7.57-.52,4.42-1.78,8.67-2.68,13a22,22,0,0,0,0,3.81c-.05,2.48.25,5-.29,7.4-1,4.1-1.92,8.27-4.2,11.92a11.3,11.3,0,0,0-1.48,4.14c-.34,2-.78,4.08-1.27,6.09a9.24,9.24,0,0,0,0,4c.62,3.17,1.15,6.37,1.71,9.55a2.44,2.44,0,0,1,.07.59c-.38,3.31.71,6.4,1.4,9.55,1.17,5.38,2.49,10.73,3.53,16.14.81,4.15,1.27,8.37,1.9,12.55a79.36,79.36,0,0,1,.67,13.16,43.87,43.87,0,0,1-.36,4.42,26.7,26.7,0,0,0,.47,8.69,20.25,20.25,0,0,1,.41,5.6,18.28,18.28,0,0,0,.45,5c.42,2.22.5,4.51.73,6.77a14.39,14.39,0,0,0,.33,2.37,28.86,28.86,0,0,1,.92,7.35,6.07,6.07,0,0,0,.4,2,24,24,0,0,1,1.51,8.08c.05,1.4.18,2.8.22,4.19,0,.76-.16,1.51-.14,2.27,0,1,.16,2,.22,3,.13,2.11.36,4.22.35,6.33a20.22,20.22,0,0,0,1.3,6.91,12.28,12.28,0,0,1,.74,4.45c0,1.8.17,3.6.16,5.39a10.51,10.51,0,0,1-4.62,8.53,11.36,11.36,0,0,1-3.28,1.42,55,55,0,0,1-10.4,2.2,159.47,159.47,0,0,1-18.54,1c-5,.06-9.91.4-14.86.62l-6,.29q-9,.45-18.09.9c-2.6.12-5.2.27-7.79.28-10.24,0-20.48.11-30.72,0-4.88,0-9.75-.4-14.62-.61-2.44-.1-4.87-.21-7.31-.3-5.24-.18-10.48-.28-15.71-.56-3.3-.17-6.61-.54-9.89-1a84.73,84.73,0,0,1-13.5-2.62c-1.87-.55-3.7-1.26-5.52-2-2.36-.92-3.41-2.89-3.93-5.21a11.92,11.92,0,0,1,.37-6.27,24.52,24.52,0,0,0,1-6.85,10.15,10.15,0,0,1,.64-3.51c1.06-2.6.81-5.23.64-7.91-.18-2.95-.11-5.91-.07-8.87a49,49,0,0,1,1.28-10.08,7.71,7.71,0,0,1,.31-1.28,9,9,0,0,0,.11-6.1c-1.25-4.65-1.06-9.42-1.1-14.17a1.22,1.22,0,0,1,.06-.47c1-2.47.78-5.11,1.1-7.67.57-4.64,1.14-9.28,1.83-13.9.74-4.89,1.69-9.75,2.4-14.65a28.13,28.13,0,0,0-.42-8.23c-.67-4.62-1.59-9.23-1.31-13.94.16-2.87.36-5.74.73-8.59.58-4.39,1.32-8.76,2-13.14,0-.36.14-.71.2-1.06a6.79,6.79,0,0,0-.32-3.75A37.32,37.32,0,0,1,66,189.7c-.19-2.63-.32-5.27-.25-7.9a44.1,44.1,0,0,0-.58-7.27c-.56-4.07-1.08-8.15-1.61-12.23-.33-2.52-.71-5.05-1-7.58-.29-3-.47-6-.68-9-.26-3.62-.51-7.25-.77-10.87a11.06,11.06,0,0,0-.25-1.25h-.29c0,.32-.12.64-.15,1-.11,1-.21,2-.31,3,0,.36-.13.71-.14,1.07,0,1.47-.07,2.95,0,4.43a18.68,18.68,0,0,1-.67,5.09c-.22.84-.3,1.71-.47,2.66-1.16.18-2.3.43-3.44.5-4.26.28-8.53.6-12.81.72a73.55,73.55,0,0,1-17.1-2q-6.25-1.31-12.49-2.8c-2.51-.61-5-1.38-7.49-2-1.24-.32-2.51-.5-3.74-.85-1.57-.44-1.9-.89-1.78-2.49a50.5,50.5,0,0,1,.6-5.36c1.14-6,2.41-12,3.54-18.09.47-2.5.72-5,1.1-7.58C5.82,107,6.35,103.19,7,99.37a230.58,230.58,0,0,1,7.43-30.58c1-3.19,1.35-6.48,2.13-9.7a57.17,57.17,0,0,1,4.6-13.33,39.53,39.53,0,0,1,5.06-7.55,7,7,0,0,0,1.28-2,6,6,0,0,1,3.27-3.49c1.88-.88,3.75-1.78,5.69-2.53,4-1.54,8-2.94,12-4.49,2.83-1.1,5.6-2.34,8.38-3.55,2.23-1,4.41-2.08,6.67-3,4.7-1.89,9.43-3.72,14.16-5.53A163.37,163.37,0,0,0,93.34,7c1.14-.58,2.21-1.28,3.35-1.87A10.21,10.21,0,0,1,99,4.19a14.16,14.16,0,0,0,4.28-1.8A11.31,11.31,0,0,1,106,1.26a3.05,3.05,0,0,1,2.52.37,11.92,11.92,0,0,0,5,1.4,130.16,130.16,0,0,0,15.66,1c3.76,0,7.52.21,11.28.14,4.19-.08,8.38-.38,12.57-.58,1.92-.1,3.84-.2,5.76-.27,3.07-.1,6.15-.29,9.23-.25A76.13,76.13,0,0,0,185,1.53a25.58,25.58,0,0,0,4.6-1.24,4.65,4.65,0,0,1,3.56.17c1.8.6,3.58,1.3,5.36,2,.19.07.39.13.57.21,3.87,1.7,7.78,3.33,11.61,5.13s7.37,3.85,11.17,5.53c4.78,2.11,9.65,4,14.54,5.89q13.63,5.24,27.36,10.3A59.41,59.41,0,0,0,270,31.17a5.46,5.46,0,0,1,2.76,1.31c2.16,2.14,4.31,4.29,6.58,6.3a29.13,29.13,0,0,1,8.91,14.51c1.9,7.05,3.58,14.16,5.21,21.28s3.1,14.12,4.51,21.2c1,4.78,1.59,9.62,2.57,14.39.77,3.71,1.87,7.34,2.78,11,.71,2.87,1.38,5.74,2,8.63.3,1.36-.12,2-1.6,2.51-2.16.81-4.38,1.51-6.53,2.35-4.71,1.86-9.37,3.85-14.1,5.67a156.07,156.07,0,0,1-25.67,7.54c-2.31.46-4.65.74-7,1a13.59,13.59,0,0,1-2.62-.14,1.06,1.06,0,0,1-1-1.1,26.43,26.43,0,0,0-2.25-8.4,7.84,7.84,0,0,1-.57-5.48,8,8,0,0,0-.1-2.61,8.33,8.33,0,0,1,.51-4.11C244.85,125.77,244.59,124.48,244.51,123Z"/></svg>