<svg xmlns="http://www.w3.org/2000/svg" viewBox="0 0 267.77 353.56"><title>womens-clip-mask</title><path d="M210.91,105.58a1.92,1.92,0,0,0-1.48,1.41,29.2,29.2,0,0,0-1.3,13c.31,3.43.56,6.85.82,10.28.16,2.15.38,4.3.42,6.46.1,5.83.13,11.67.17,17.51,0,1.64-.14,3.28-.09,4.91.12,3.92.26,7.83.5,11.74.13,2.15.52,4.28.75,6.42a111.15,111.15,0,0,1,.68,11.24c0,2.27.38,4.53.59,6.8.18,1.82.41,3.65.54,5.48.21,2.86.28,5.74.55,8.6.48,5,1,9.93,1.61,14.88.43,3.6,1,7.19,1.45,10.8.21,1.62.26,3.26.49,4.88.38,2.61.79,5.21,1.3,7.79a130.28,130.28,0,0,1,2.35,14.41c.27,3.1.61,6.2.86,9.31.08,1.07,0,2.15,0,3.23,0,.92.1,1.84.06,2.75-.21,4.55-.42,9.09-.7,13.64-.15,2.5-.51,5-.61,7.5s0,5.2,0,7.8c.07,2.35.21,4.71.36,7.06.19,3.15.42,6.3.65,9.45.17,2.31.33,4.62.55,6.93s.59,4.83.82,7.25c.24,2.67.43,5.33.6,8a3.28,3.28,0,0,1-1.74,3.18,20.62,20.62,0,0,1-6.83,2.48,54.76,54.76,0,0,1-9.9.83c-2,0-4,.21-6,.29-1.36.05-2.71.05-4.07.06-3.64,0-7.28,0-10.91.1-7.2.15-14.39.34-21.58.51-6,.15-12,.26-18,.43-2.24.06-4.47.24-6.7.35-1.72.07-3.44.13-5.15.16-3.08,0-6.16.08-9.23.07-2,0-4.07-.14-6.1-.14-2.84,0-5.68.06-8.52.09-3.2,0-6.39.07-9.59,0-4.36-.05-8.7-.31-13.07-.21-5,.13-10,.05-15,0a22.75,22.75,0,0,1-2.84-.37,2.45,2.45,0,0,0-.71,0,20.19,20.19,0,0,1-5.49.08c-1.92-.11-3.83-.19-5.74-.36-2.19-.19-4.37-.42-6.54-.74A10.37,10.37,0,0,1,47,351.1a2.39,2.39,0,0,1-1.55-2.57,44.48,44.48,0,0,1,.34-4.9c.6-3.57,1.36-7.12,2-10.68a15.53,15.53,0,0,0,.2-1.67c.23-3.18.46-6.37.67-9.55,0-.6,0-1.2,0-1.8,0-2.52,0-5,0-7.54,0-1.16-.17-2.31-.26-3.47-.05-.63-.1-1.27-.14-1.91-.15-2.47-.31-4.94-.46-7.41-.09-1.71-.16-3.43-.25-5.14-.22-3.87-.51-7.73-.63-11.61-.07-2.35.05-4.71.18-7.06.16-2.63.41-5.26.65-7.88a116.47,116.47,0,0,1,2-13c.67-3.16,1.23-6.35,1.74-9.54.28-1.77.34-3.57.57-5.35.26-2,.62-3.94.89-5.92q.45-3.26.8-6.53c.48-4.49,1-9,1.36-13.47.33-3.5.54-7,.83-10.51.26-3.07.57-6.13.84-9.19.28-3.31.53-6.61.82-9.92.27-3.1.53-6.2.89-9.3a69,69,0,0,0,.34-8c0-4.52,0-9,0-13.56s.08-9.11.23-13.66c.1-2.75.41-5.49.62-8.24.11-1.43.21-2.87.31-4.3.15-2.11.37-4.22.43-6.34,0-1.55-.08-3.11-.18-4.66a3.47,3.47,0,0,0-1.18-2.24c-.09.23-.2.39-.17.5a6.16,6.16,0,0,1-.29,3c-.35,1.71-.75,3.42-1.16,5.13-.14.58-.35,1.14-.54,1.7a1.61,1.61,0,0,1-1.65,1.15c-2.56,0-5.12.15-7.67.12-6.51-.06-12.73-1.69-18.85-3.7A138.09,138.09,0,0,1,9.57,113.9c-2.74-1.39-5.43-2.89-8.13-4.35-1.6-.86-1.73-1.13-1.06-2.85,2.4-6.14,4.76-12.29,7.26-18.38,3.69-9,7.51-17.89,11.23-26.85.84-2,1.5-4.13,2.19-6.21,1-3.1,2.08-6.21,3-9.34.69-2.29,1.21-4.63,1.84-6.93a26.51,26.51,0,0,1,4.19-8.57,44.82,44.82,0,0,1,3.55-3.89,17.11,17.11,0,0,0,1.54-1.66,9,9,0,0,1,5-3.56c5.48-1.73,10.94-3.53,16.42-5.24,8.65-2.69,17.32-5.32,26-8a11.07,11.07,0,0,0,2.16-1,9.88,9.88,0,0,1,4.47-1.57,4.37,4.37,0,0,0,1.67-.6c1.94-1,3.82-2.19,5.78-3.17A20.92,20.92,0,0,1,100.33.38a5.92,5.92,0,0,1,3,.09c1.86.43,3.76.69,5.66,1a174.07,174.07,0,0,0,18.4,1.28c4.28.15,8.56.16,12.83-.1,3.87-.23,7.73-.58,11.59-.87,2.31-.18,4.62-.33,6.93-.54C162.51.85,166.32.46,170.14.1a9.48,9.48,0,0,1,4.6.4c1.07.43,2.22.67,3.28,1.12a8.45,8.45,0,0,1,1.77,1.19c.47.36.9.78,1.34,1.19a7.15,7.15,0,0,0,4,2.15,7.17,7.17,0,0,1,2.74,1.12,30.67,30.67,0,0,0,4.72,2.29q5,1.95,9.95,4.15c5.66,2.53,11.56,4.4,17.4,6.44,1,.35,2.06.65,3.06,1a24.27,24.27,0,0,0,6.72,1.62,17,17,0,0,1,3,.64,22,22,0,0,0,4.86,1.13,4.44,4.44,0,0,1,3.44,1.91c1.61,2.14,3.36,4.17,5,6.25a8.71,8.71,0,0,1,.64.86,47.72,47.72,0,0,1,6.06,14c.82,3.61,1.54,7.26,2.14,10.92a120.86,120.86,0,0,0,4.71,17.92,221.08,221.08,0,0,1,7.12,26.7l.81,4.11c.42,2.12.05,2.9-1.95,3.77-1.28.56-2.59,1-3.91,1.5q-13.89,4.92-27.78,9.81a66,66,0,0,1-11.27,2.75c-.82.13-1.66.2-2.5.25a4.43,4.43,0,0,1-4.4-2.11,20.53,20.53,0,0,1-1.36-2.53,41.14,41.14,0,0,1-3.23-12.95C211.16,107.05,211,106.34,210.91,105.58Z"/></svg>